<svg id="グループ_9" data-name="グループ 9" xmlns="http://www.w3.org/2000/svg" width="28" height="7.5" viewBox="0 0 28 7.5">
  <path id="線_2" data-name="線 2" d="M0,.5H27a.5.5,0,0,0,.5-.5A.5.5,0,0,0,27-.5H0A.5.5,0,0,0-.5,0,.5.5,0,0,0,0,.5Z" transform="translate(0.5 5)" fill="#b1b1b1"/>
  <path id="線_3" data-name="線 3" d="M0,5a.5.5,0,0,0,.164-.028l13-4.5a.5.5,0,0,0,.308-.636.5.5,0,0,0-.636-.308l-13,4.5A.5.5,0,0,0,0,5Z" transform="translate(0.501 0.5)" fill="#b1b1b1"/>
  <path id="線_4" data-name="線 4" d="M0,7a.5.5,0,0,0,.5-.5V0A.5.5,0,0,0,0-.5.5.5,0,0,0-.5,0V6.5A.5.5,0,0,0,0,7Z" transform="translate(13.5 0.5)" fill="#b1b1b1"/>
</svg>
