<svg xmlns="http://www.w3.org/2000/svg" width="28" height="7.5" viewBox="0 0 28 7.5">
  <g id="グループ_9" data-name="グループ 9" transform="translate(-547 -4244.5)">
    <path id="線_2" data-name="線 2" d="M27,.5H0A.5.5,0,0,1-.5,0,.5.5,0,0,1,0-.5H27a.5.5,0,0,1,.5.5A.5.5,0,0,1,27,.5Z" transform="translate(547.5 4249.5)" fill="#b1b1b1"/>
    <path id="線_3" data-name="線 3" d="M13,5a.5.5,0,0,1-.164-.028l-13-4.5A.5.5,0,0,1-.472-.164.5.5,0,0,1,.164-.472l13,4.5A.5.5,0,0,1,13,5Z" transform="translate(561.5 4245)" fill="#b1b1b1"/>
    <path id="線_4" data-name="線 4" d="M0,7a.5.5,0,0,1-.5-.5V0A.5.5,0,0,1,0-.5.5.5,0,0,1,.5,0V6.5A.5.5,0,0,1,0,7Z" transform="translate(561.5 4245)" fill="#b1b1b1"/>
  </g>
</svg>
