<svg xmlns="http://www.w3.org/2000/svg" xmlns:xlink="http://www.w3.org/1999/xlink" width="35" height="35" viewBox="0 0 35 35">
  <defs>
    <clipPath id="clip-アートボード_29">
      <rect width="35" height="35"/>
    </clipPath>
  </defs>
  <g id="アートボード_29" data-name="アートボード – 29" clip-path="url(#clip-アートボード_29)">
    <g id="グループ_113" data-name="グループ 113" transform="translate(-893.983 622.026)">
      <path id="パス_20" data-name="パス 20" d="M3.865,0a14.219,14.219,0,0,1,10,4.289,15.635,15.635,0,0,1,4.2,10.239c0,1.076-.135-1.041,0,.776a11.682,11.682,0,0,1-1.042,5.156c-1.125,1.771-2.271,3.577-4.624,4.093-2.217.487-5.987-.117-8.426-.117-3.774,0-8.221,1.342-11.446-.316a6.458,6.458,0,0,1-3.2-4.367,17.974,17.974,0,0,1-.2-6.732,22.093,22.093,0,0,1,1.11-3.683,17.007,17.007,0,0,1,1.6-2.963A15.373,15.373,0,0,1-6.646,4.561,14.842,14.842,0,0,1,3.865,0Z" transform="translate(908 -617)" fill="#628afa"/>
      <path id="パス_21" data-name="パス 21" d="M3.919.369a10.975,10.975,0,0,1,1.017,3.2L0,2.14,2.052.355S3.313-.453,3.919.369Z" transform="matrix(0.829, 0.559, -0.559, 0.829, 921.037, -616.045)" fill="#628afa"/>
      <path id="パス_22" data-name="パス 22" d="M3.942.317a10.975,10.975,0,0,1,1.017,3.2L0,2.881,2.133.522S3.337-.5,3.942.317Z" transform="matrix(0.629, -0.777, 0.777, 0.629, 897.631, -612.011)" fill="#628afa"/>
    </g>
  </g>
</svg>
