<svg xmlns="http://www.w3.org/2000/svg" xmlns:xlink="http://www.w3.org/1999/xlink" width="23" height="23" viewBox="0 0 23 23">
  <defs>
    <clipPath id="clip-path">
      <rect id="長方形_49" data-name="長方形 49" width="23" height="23"/>
    </clipPath>
  </defs>
  <g id="アートボード_9" data-name="アートボード – 9" clip-path="url(#clip-path)">
    <g id="icon_twitter" clip-path="url(#clip-path)">
      <path id="パス_19" data-name="パス 19" d="M11.5,0a11.5,11.5,0,1,0,8.132,3.368A11.5,11.5,0,0,0,11.5,0Zm.262,10h.007a2.4,2.4,0,0,1-.065-.561,2.461,2.461,0,0,1,4.259-1.682,4.914,4.914,0,0,0,1.3-.458c.087-.044.175-.087.26-.135a2.455,2.455,0,0,1-.789,1.144,2.285,2.285,0,0,1-.29.2h.013l-.013.009A4.889,4.889,0,0,0,17.6,8.242c.084-.03.168-.06.251-.094a4.983,4.983,0,0,1-1.223,1.264c.007.108.007.212.007.32a7,7,0,0,1-10.778,5.9,5.27,5.27,0,0,0,.589.036,4.917,4.917,0,0,0,2.323-.582l.045-.022c.044-.024.087-.051.13-.077a5.151,5.151,0,0,0,.557-.368H9.493l.009-.006a2.434,2.434,0,0,1-2.3-1.706,2.369,2.369,0,0,0,.933-.008c.058-.009.117-.017.175-.029h0a2.464,2.464,0,0,1-1.977-2.415v-.029A2.464,2.464,0,0,0,7.2,10.7c.084.013.168.023.253.029l-.009-.007h.013A2.445,2.445,0,0,1,6.616,7.6c.027-.052.051-.106.082-.157A6.975,6.975,0,0,0,11.691,10c.024,0,.047.006.071.008Z"/>
    </g>
  </g>
</svg>
