<svg xmlns="http://www.w3.org/2000/svg" xmlns:xlink="http://www.w3.org/1999/xlink" width="35" height="35" viewBox="0 0 35 35">
  <defs>
    <clipPath id="clip-アートボード_28">
      <rect width="35" height="35"/>
    </clipPath>
  </defs>
  <g id="アートボード_28" data-name="アートボード – 28" clip-path="url(#clip-アートボード_28)">
    <g id="コメントのフリーアイコン6" transform="translate(2.512 -56.398)">
      <path id="パス_158" data-name="パス 158" d="M20.652,62.572H9.327a9.327,9.327,0,1,0,0,18.654h8.91c1.333,0,1.749.619,1.749,1.125a2.615,2.615,0,0,1-1.332,2.124c-.584.416-.125.748.333.748,5.953,0,10.991-6.5,10.991-13.325A9.327,9.327,0,0,0,20.652,62.572ZM7.908,73.67A1.771,1.771,0,1,1,9.678,71.9,1.771,1.771,0,0,1,7.908,73.67Zm7.082,0A1.771,1.771,0,1,1,16.761,71.9,1.772,1.772,0,0,1,14.989,73.67Zm7.082,0A1.771,1.771,0,1,1,23.842,71.9,1.771,1.771,0,0,1,22.071,73.67Z" transform="translate(0 0)" fill="#628afa"/>
    </g>
  </g>
</svg>
