<svg xmlns="http://www.w3.org/2000/svg" width="23.31" height="20.138" viewBox="0 0 23.31 20.138">
  <path id="icon_favoritelist" d="M6.215.18h.913A.069.069,0,0,1,7.176.2a1.751,1.751,0,0,1,.288.024q.144.024.312.048a6.411,6.411,0,0,1,2.355.961,6.32,6.32,0,0,1,1.8,1.826.069.069,0,0,1,.024.048l.048.048a.069.069,0,0,0,.024-.048l.048-.048a5.966,5.966,0,0,1,.553-.745,9.159,9.159,0,0,1,.7-.673A6.188,6.188,0,0,1,14.794.732a6.619,6.619,0,0,1,1.658-.5A1.222,1.222,0,0,0,16.693.2a1.223,1.223,0,0,1,.24-.024h.913A.069.069,0,0,1,17.894.2q.192.024.36.048A1.58,1.58,0,0,1,18.639.3a6.3,6.3,0,0,1,1.9.721,6.131,6.131,0,0,1,1.586,1.3,6.362,6.362,0,0,1,.937,1.442,5.745,5.745,0,0,1,.529,1.634,1.906,1.906,0,0,1,.024.312q.024.168.048.312v.865a.708.708,0,0,1-.024.168V7.2a6.327,6.327,0,0,1-.361,1.442,6.141,6.141,0,0,1-.7,1.322,5.437,5.437,0,0,1-.529.673q-.289.312-.6.6L19.288,13.4q-1.081,1.081-2.187,2.163l-2.163,2.163-2.163,2.163q-.144.144-.288.264a.656.656,0,0,1-.312.168h-.312a1.649,1.649,0,0,1-.336-.168q-.144-.12-.288-.264L9.075,17.722q-1.081-1.057-2.163-2.139L4.749,13.421Q3.692,12.339,2.61,11.282l-.12-.12-.1-.1a6.517,6.517,0,0,1-1.3-1.61A6.515,6.515,0,0,1,.424,7.509Q.4,7.341.376,7.2A2.376,2.376,0,0,0,.352,6.86V5.971a.069.069,0,0,0,.024-.048A1.751,1.751,0,0,0,.4,5.635q.024-.168.048-.312a6.127,6.127,0,0,1,.577-1.706,6.357,6.357,0,0,1,1.033-1.49A6.285,6.285,0,0,1,3.644.925,6.525,6.525,0,0,1,5.566.252,2.376,2.376,0,0,1,5.9.228Q6.071.2,6.215.18Z" transform="translate(-0.352 -0.18)"/>
</svg>
