<svg xmlns="http://www.w3.org/2000/svg" xmlns:xlink="http://www.w3.org/1999/xlink" width="35" height="35" viewBox="0 0 35 35">
  <defs>
    <clipPath id="clip-アートボード_26">
      <rect width="35" height="35"/>
    </clipPath>
  </defs>
  <g id="アートボード_26" data-name="アートボード – 26" clip-path="url(#clip-アートボード_26)">
    <g id="T-シャツのフリーアイコン" transform="translate(1.355 -53.488)">
      <path id="パス_156" data-name="パス 156" d="M31.5,62.207l-9.812-3.6a1.206,1.206,0,0,0-1.032.1s-.255,2.678-4.51,2.678-4.51-2.678-4.51-2.678a1.206,1.206,0,0,0-1.031-.1l-9.812,3.6a1.206,1.206,0,0,0-.759,1.41l1.021,4.315a1.207,1.207,0,0,0,1.246.926l3.9-.232v13.04a1.774,1.774,0,0,0,1.774,1.775H24.313a1.775,1.775,0,0,0,1.774-1.775V68.627l3.9.232a1.207,1.207,0,0,0,1.246-.926l1.021-4.315A1.206,1.206,0,0,0,31.5,62.207Z" transform="translate(0)" fill="#628afa"/>
    </g>
  </g>
</svg>
