<svg xmlns="http://www.w3.org/2000/svg" xmlns:xlink="http://www.w3.org/1999/xlink" width="35" height="35" viewBox="0 0 35 35">
  <defs>
    <clipPath id="clip-アートボード_27">
      <rect width="35" height="35"/>
    </clipPath>
  </defs>
  <g id="アートボード_27" data-name="アートボード – 27" clip-path="url(#clip-アートボード_27)">
    <g id="本の無料アイコン素材_1_" data-name="本の無料アイコン素材 (1)" transform="translate(-58.457 5.047)">
      <path id="パス_157" data-name="パス 157" d="M83.72,4.541,82.8,1.5A.812.812,0,0,0,82.364,0H69.821A3.073,3.073,0,0,0,66.75,3.071V22.9a2.007,2.007,0,0,0,2.007,2.007H83.472a1.69,1.69,0,0,0,1.69-1.69V6.206A1.686,1.686,0,0,0,83.72,4.541Zm-13.9-.024a1.446,1.446,0,1,1,0-2.891H81.593l.874,2.891Z" fill="#628afa"/>
    </g>
  </g>
</svg>
