<svg xmlns="http://www.w3.org/2000/svg" width="52" height="52" viewBox="0 0 52 52">
  <g id="loading" transform="translate(-24 -24)">
    <g id="グループ_2499" data-name="グループ 2499">
      <rect id="長方形_1781" data-name="長方形 1781" width="5" height="12" rx="2.5" transform="translate(47.5 24)" opacity="0.083"/>
    </g>
    <g id="グループ_2500" data-name="グループ 2500" transform="translate(31.699 -18.301) rotate(30)">
      <rect id="長方形_1782" data-name="長方形 1782" width="5" height="12" rx="2.5" transform="translate(47.5 24)" opacity="0.167"/>
    </g>
    <g id="グループ_2501" data-name="グループ 2501" transform="translate(68.301 -18.301) rotate(60)">
      <rect id="長方形_1783" data-name="長方形 1783" width="5" height="12" rx="2.5" transform="translate(47.5 24)" opacity="0.25"/>
    </g>
    <g id="グループ_2502" data-name="グループ 2502" transform="translate(100) rotate(90)">
      <rect id="長方形_1784" data-name="長方形 1784" width="5" height="12" rx="2.5" transform="translate(47.5 24)" opacity="0.333"/>
    </g>
    <g id="グループ_2503" data-name="グループ 2503" transform="translate(118.301 31.699) rotate(120)">
      <rect id="長方形_1785" data-name="長方形 1785" width="5" height="12" rx="2.5" transform="translate(47.5 24)" opacity="0.417"/>
    </g>
    <g id="グループ_2504" data-name="グループ 2504" transform="translate(118.301 68.301) rotate(150)">
      <rect id="長方形_1786" data-name="長方形 1786" width="5" height="12" rx="2.5" transform="translate(47.5 24)" opacity="0.5"/>
    </g>
    <g id="グループ_2505" data-name="グループ 2505" transform="translate(100 100) rotate(180)">
      <rect id="長方形_1787" data-name="長方形 1787" width="5" height="12" rx="2.5" transform="translate(47.5 24)" opacity="0.583"/>
    </g>
    <g id="グループ_2506" data-name="グループ 2506" transform="translate(68.301 118.301) rotate(-150)">
      <rect id="長方形_1788" data-name="長方形 1788" width="5" height="12" rx="2.5" transform="translate(47.5 24)" opacity="0.667"/>
    </g>
    <g id="グループ_2507" data-name="グループ 2507" transform="translate(31.699 118.301) rotate(-120)">
      <rect id="長方形_1789" data-name="長方形 1789" width="5" height="12" rx="2.5" transform="translate(47.5 24)" opacity="0.75"/>
    </g>
    <g id="グループ_2508" data-name="グループ 2508" transform="translate(0 100) rotate(-90)">
      <rect id="長方形_1790" data-name="長方形 1790" width="5" height="12" rx="2.5" transform="translate(47.5 24)" opacity="0.833"/>
    </g>
    <g id="グループ_2509" data-name="グループ 2509" transform="translate(-18.301 68.301) rotate(-60)">
      <rect id="長方形_1791" data-name="長方形 1791" width="5" height="12" rx="2.5" transform="translate(47.5 24)" opacity="0.917"/>
    </g>
    <g id="グループ_2510" data-name="グループ 2510" transform="translate(-18.301 31.699) rotate(-30)">
      <rect id="長方形_1792" data-name="長方形 1792" width="5" height="12" rx="2.5" transform="translate(47.5 24)"/>
    </g>
  </g>
</svg>
