<?xml version="1.0" encoding="utf-8"?>
<!-- Generator: Adobe Illustrator 21.1.0, SVG Export Plug-In . SVG Version: 6.00 Build 0)  -->
<svg version="1.1" id="レイヤー_1" xmlns="http://www.w3.org/2000/svg" xmlns:xlink="http://www.w3.org/1999/xlink" x="0px"
	 y="0px" viewBox="0 0 850.4 850.4" style="enable-background:new 0 0 850.4 850.4;" xml:space="preserve">
<path d="M817.2,220.6c-2.6,9-8.8,15.4-15.2,21.8c-157.8,160.9-315.6,321.9-473.3,483c-9.2,9.4-19.3,13.9-32.2,10.7
	c-6.1-1.5-10.7-5.4-15-9.9c-32.1-34-64.3-68-96.4-102.1C141.5,578,97.9,531.8,54.3,485.6c-8.7-9.2-16.7-19.1-21.1-31.2
	c0-3.3,0-6.5,0-9.8c2.9-9.9,9.7-16.9,17-23.8c11.1-10.6,22-21.6,33-32.4c14.2-13.8,31.3-14.1,45.1,0.2
	c32.4,33.7,64.5,67.8,96.7,101.8c22.7,24,45.4,47.9,68.2,71.9c8.9,9.5,16.7,9.6,25.8,0.3c80.6-82.2,161.1-164.4,241.7-246.6
	C612.9,262.7,665,209,718,156.2c9.4-9.4,22.1-16.3,36.9-10.2c4.3,1.8,8.4,4.5,11.7,7.7c11.8,11.2,23.2,22.8,35,34.1
	c6.7,6.4,13,12.9,15.6,22.1C817.2,213.5,817.2,217,817.2,220.6z"/>
</svg>
