<?xml version="1.0" encoding="utf-8"?>
<!-- Generator: Adobe Illustrator 21.1.0, SVG Export Plug-In . SVG Version: 6.00 Build 0)  -->
<svg version="1.1" id="レイヤー_1" xmlns="http://www.w3.org/2000/svg" xmlns:xlink="http://www.w3.org/1999/xlink" x="0px"
	 y="0px" viewBox="0 0 850.4 850.4" style="enable-background:new 0 0 850.4 850.4;" xml:space="preserve">
<path d="M817.9,366c0,32.9,0,65.7,0,98.6c-1.9,0.1-3.8,0.3-5.8,0.3c-107.4,0-214.7,0-322.1,0c-1.9,0-3.8,0-6.3,0c0,2.2,0,4,0,5.7
	c0,114.3,0,228.5,0,342.8c0,1.6,0.2,3.3,0.3,4.9c-32.9,0-65.7,0-98.6,0c0-1.9-0.1-3.9-0.1-5.8c0-114,0-227.9,0-341.9
	c0-1.7,0-3.5,0-5.7c-2.4,0-4.3,0-6.2,0c-113.8,0-227.7,0-341.5,0c-1.9,0-3.8-0.2-5.8-0.3c0-32.9,0-65.7,0-98.6
	c1.4,0.1,2.7,0.3,4.1,0.3c114.8,0,229.7,0,344.5,0c1.5,0,3,0,4.9,0c0-2.3,0-4,0-5.8c0-107.7,0-215.3,0-323c0-1.8,0.1-3.6,0.1-5.4
	c32.9,0,65.7,0,98.6,0c-0.1,1.4-0.3,2.7-0.3,4.1c0,108.4,0,216.7,0,325.1c0,1.5,0,3,0,4.9c2.2,0,4,0,5.7,0c107.8,0,215.6,0,323.4,0
	C814.6,366.3,816.3,366.1,817.9,366z"/>
</svg>
