<?xml version="1.0" encoding="utf-8"?>
<!-- Generator: Adobe Illustrator 21.1.0, SVG Export Plug-In . SVG Version: 6.00 Build 0)  -->
<svg version="1.1" id="レイヤー_1" xmlns="http://www.w3.org/2000/svg" xmlns:xlink="http://www.w3.org/1999/xlink" x="0px"
	 y="0px" viewBox="0 0 850.4 850.4" style="enable-background:new 0 0 850.4 850.4;" xml:space="preserve">
<path d="M260.4,86.4c7.7,1.1,15.5,2,23.2,3.3c45,7.8,83.7,28.1,116.4,59.8c8.2,8,16.3,16.1,24.9,24.7c3.6-3.8,7.2-7.5,10.7-11.2
	c18.3-19.3,38.2-36.6,61.8-49.3c35.5-19.2,73.4-27.9,113.7-26.6c100.1,3.2,184.1,74.8,205.8,168.4c18.4,79.4,0.8,151.1-56.4,209.6
	C654.9,573.2,547.6,679.6,440.9,786.7c-10.3,10.3-23.7,10.1-34.2-0.5C306.8,685.5,206.9,584.7,107,484
	c-15.5-15.6-31.3-30.9-43.6-49.3c-20.1-29.9-32.3-62.6-36.8-98.3c-12.6-98.3,42.9-194.9,134.3-233c21.4-8.9,43.7-14.5,66.9-16.2
	c1.1-0.1,2.1-0.5,3.2-0.8C240.8,86.4,250.6,86.4,260.4,86.4z M425.2,738.6c0.4-0.6,0.8-2.1,1.8-3.1c99.4-99.9,199-199.5,298.2-299.6
	c44.1-44.5,60.1-98.4,49.2-159.7c-14.4-81.6-86.2-141.8-169.2-142.9c-46.5-0.6-87,15-121,46.4c-14.5,13.4-28,27.9-41.9,41.8
	c-11.4,11.4-24.3,11.4-35.7,0c-13-13-25.5-26.4-38.9-39c-44.2-41.9-96.8-57.9-156.4-46.2C122,153.9,57.5,239.6,73.2,338.3
	c6,37.9,23.4,70.2,50.4,97.4c89.6,90.2,179.1,180.6,268.8,270.8C402.8,717.1,413.6,727.3,425.2,738.6z"/>
</svg>
