<?xml version="1.0" encoding="utf-8"?>
<!-- Generator: Adobe Illustrator 21.1.0, SVG Export Plug-In . SVG Version: 6.00 Build 0)  -->
<svg version="1.1" id="レイヤー_1" xmlns="http://www.w3.org/2000/svg" xmlns:xlink="http://www.w3.org/1999/xlink" x="0px"
	 y="0px" viewBox="0 0 850.4 850.4" style="enable-background:new 0 0 850.4 850.4;" xml:space="preserve">
<g>
	<path d="M765.2,153.9c-0.6,4.1-1.1,8.3-1.8,12.4c-4.4,23.9-15.8,43.8-32.7,61.2C632.7,328.6,534.9,430,437,531.4
		c-42.5,44-84.9,87.9-127.4,131.8c-9,9.3-20,9.1-29,0c-3.5-3.6-7.4-6.8-11.2-10.2c0.1-0.3,0.1-0.7,0.2-1c-0.6,0.7-1,1.6-1.7,2.2
		c-16.6,17.2-33.3,34.5-49.9,51.7c-6.8,7-16.3,8.1-24,2.9c-1.4-1-2.6-2.2-3.8-3.4c-7.5-7.7-14.9-15.4-22.7-23.4
		c-0.7,0.8-1.2,1.6-1.8,2.3c-14,14.5-28,29.1-42.1,43.6c-7.3,7.5-17.4,8.4-25.3,2.4c-9.2-7.1-10.1-21-1.7-29.7
		c14.1-14.6,28.2-29.2,42.3-43.8c0.6-0.7,1.3-1.4,2-2.2c-2.1-2.2-4.1-4.3-6.1-6.3c-5.5-5.7-11.1-11.4-16.6-17.2
		c-8.2-8.6-8.1-20.4,0.2-28.9c16.7-17.2,33.4-34.4,50-51.6c0.5-0.5,0.9-1,1.5-1.7c-3.7-3.8-7.4-7.6-11-11.4c-3.1-3.2-5.3-6.9-6-11.4
		c-1-6.8,0.9-12.6,5.7-17.6c13.4-13.8,26.7-27.7,40.1-41.6c71.7-74.3,143.5-148.6,215.2-223c36.6-37.9,73.2-75.9,109.9-113.8
		c0.7-0.7,1.3-1.4,2.1-2.3c-7-7.3-14-14.5-22-22.8c-0.5,1.1-0.8,2.2-1.5,2.9c-61.6,63.9-123.2,127.7-184.9,191.6
		c-13.7,14.2-27.5,28.4-41.2,42.7c-4.5,4.6-9.7,7.3-16.2,6.5c-14.5-1.9-21.8-18.4-13.5-30.5c0.8-1.1,1.7-2.2,2.6-3.2
		c80.4-83.2,160.8-166.5,241.2-249.7c8.6-8.9,19.8-8.9,28.4,0.1c51.6,53.4,103.3,106.8,154.9,160.2c0.8,0.8,1.4,1.7,2,2.5
		c0.7-0.4,0.9-0.5,1.1-0.7c10.2-10.5,20.4-20.9,30.5-31.6c14.9-15.8,21.7-34.7,19.6-56.3c-2.7-27.9-16.8-48.3-42.6-59.6
		c-24.8-10.8-53.5-4.8-72.9,14.6c-3.2,3.2-6.8,5.7-11.4,6.4c-10,1.6-19.7-5.3-21.4-15.4c-1.2-6.7,0.4-12.7,5.1-17.5
		c17.5-18,38.6-29,63.6-31.8c50-5.5,92.4,24.5,109.5,66.6c4.3,10.5,6.9,21.4,7.8,32.7c0,0.6,0.3,1.1,0.5,1.7
		C765.2,143,765.2,148.5,765.2,153.9z M295.1,623c118.4-122.5,236.5-244.7,354.7-367.1c-32.4-33.5-64.6-66.9-96.9-100.3
		C434.6,277.9,316.5,400.2,198.2,522.6C230.5,556.1,262.7,589.4,295.1,623z M243.2,624.5c-15.6-16.1-31-32.1-46.5-48.2
		c-13.1,13.6-26,27-39,40.4c15.6,16.2,31,32.1,46.5,48.2C217.2,651.4,230.2,638,243.2,624.5z"/>
	<path d="M411.2,807.2c-100.2,0-200.4,0-300.7,0c-9.8,0-17.1-5.8-19.3-15.4c-2.6-11.6,6.3-23.1,18.2-23.5c0.4,0,0.9,0,1.3,0
		c200.3,0,400.5,0,600.8,0c9.3,0,16.8,5.3,19.2,13.7c4,13.7-6.7,25.4-18.9,25.4c-81.9-0.2-163.8-0.1-245.7-0.1
		C447.9,807.2,429.5,807.2,411.2,807.2z"/>
</g>
</svg>
