<?xml version="1.0" encoding="utf-8"?>
<!-- Generator: Adobe Illustrator 21.1.0, SVG Export Plug-In . SVG Version: 6.00 Build 0)  -->
<svg version="1.1" id="レイヤー_1" xmlns="http://www.w3.org/2000/svg" xmlns:xlink="http://www.w3.org/1999/xlink" x="0px"
	 y="0px" viewBox="0 0 850.4 850.4" style="enable-background:new 0 0 850.4 850.4;" xml:space="preserve">
<style type="text/css">
	.st0{fill:#FFFFFF;}
</style>
<path d="M814,257.7c0,3.6,0,7.2,0,10.8c-0.8,2.4-1.6,4.8-2.4,7.2c-26.4,78-52.8,156-79.2,233.9c-5.2,15.3-10.4,30.6-15.8,45.9
	c-3.6,10.3-11,16.3-21.9,17.6c-5.3,0.7-10.8,1-16.1,1c-113.9,0.1-227.7,0-341.6,0c-1.9,0-3.8,0-6.2,0c0.9,4.6,1.9,8.7,2.4,12.8
	c0.3,3.2,1.5,4.1,4.7,4.3c23.3,1.5,42.4,11.2,56,30.5c2,2.8,4,3.7,7.4,3.7c72.8-0.1,145.7-0.1,218.5,0c4.9,0,8-1.3,11.4-5
	c15.9-17.3,36.2-26,59.4-27c34-1.4,65.8,12.9,81.4,47.4c8.9,19.6,11.6,40.2,6.5,61.1c-8.7,35.5-30.8,59.4-66.5,67.8
	c-34.9,8.3-64.5-3.1-87.6-30.5c-9-10.7-15.2-22.9-18.9-36.6c-1.9,0-3.7,0-5.5,0c-46.6,0-93.1,0-139.7,0c-12.8,0-25.5-0.1-38.3,0.1
	c-1.5,0-4,1.2-4.4,2.3c-5.9,18.2-17,32.7-31.5,44.6c-22.9,19-48.7,26.8-78,18.2c-62-18.1-85.8-97.2-44.3-146.7
	c2-2.3,2.5-4.3,1.7-7.2c-4.1-16.3-7.9-32.6-11.8-48.9c-23.6-98.7-47.1-197.4-70.7-296.2c-4.3-17.9-8.6-35.8-12.9-54
	c-2,0-3.8,0-5.5,0c-38.6,0-77.2,0-115.8,0c-3.9,0-7.8-0.4-11.7-0.5C29,214.1,22.7,211,20,202.7c0-16.5,0-33,0-49.6
	c2.7-3.9,5-8.2,8.4-11.4c2.1-2.1,5.8-2.6,8.7-3.9c54.4,0,108.8,0,163.1,0c0.2,0.2,0.4,0.5,0.7,0.5c17.9,3.6,26.9,15.6,30.6,32.5
	c4.1,18.9,8,37.8,12,56.7c1.4,6.9,1.4,6.9,8.5,6.9c135.1,0,270.2,0,405.3,0.1c39.2,0,78.4-0.1,117.5,0.1
	C792.1,234.7,807.3,239.2,814,257.7z M330.2,714.8c18.3,0.1,33.2-14.4,33.3-32.4c0.1-18.4-14.7-33.3-33-33.3
	c-18.4,0-33.7,14.9-33.7,32.8C296.8,700.1,311.6,714.7,330.2,714.8z M660.7,682c0,17.9,14.8,32.6,32.7,32.6
	c18.2,0,33.3-14.9,33.2-32.8c-0.1-17.8-14.9-32.2-33.1-32.2C675.3,649.6,660.7,664,660.7,682z"/>
<path class="st0" d="M-890-386c-3.3,1.4-7.3,2-9.7,4.3c-3.7,3.6-6.3,8.4-9.3,12.7c0-5.7,0-11.3,0-17C-902.7-386-896.3-386-890-386z"
	/>
</svg>
