<?xml version="1.0" encoding="utf-8"?>
<!-- Generator: Adobe Illustrator 21.1.0, SVG Export Plug-In . SVG Version: 6.00 Build 0)  -->
<svg version="1.1" id="レイヤー_1" xmlns="http://www.w3.org/2000/svg" xmlns:xlink="http://www.w3.org/1999/xlink" x="0px"
	 y="0px" viewBox="0 0 850.4 850.4" style="enable-background:new 0 0 850.4 850.4;" xml:space="preserve">
<g>
	<path d="M735.1,440.5c-2.2,2.8-4.1,5.9-6.6,8.4c-30.7,31-61.4,62-92.2,92.8c-1.8,1.8-2.5,3.5-2.5,6c0.1,87.5,0.1,174.9,0,262.4
		c0,2.1-0.1,4.2-0.6,6.2c-1.1,4.9-5.5,8.4-10.6,8.6c-1.2,0.1-2.4,0-3.6,0c-122.1,0-244.2,0-366.3,0c-2,0-4,0.1-5.9-0.3
		c-5.2-1.2-8.5-5.6-8.9-11.2c-0.1-1.2,0-2.4,0-3.6c0-87.2,0-174.5,0.1-261.7c0-2.7-0.7-4.6-2.7-6.6c-30.8-30.9-61.5-61.8-92.2-92.8
		c-2.4-2.4-4.2-5.4-6.3-8.2c0-2,0-3.9,0-5.9c2.1-2.6,3.8-5.6,6.2-7.8c39.7-35.4,79.5-70.8,119.4-106.1c1.7-1.5,3.8-2.7,5.9-3.4
		c28.9-10.5,57.8-20.9,86.7-31.3c8.8-3.2,15.9,1,17,10.4c1.6,14.2,5.7,27.3,14.2,38.9c9.4,12.7,22.1,19.9,37.5,22.4
		c15.6,2.5,30.7,0.7,44.6-7.4c15.2-8.8,23.5-22.7,28-39.2c1.3-4.6,2.1-9.4,2.6-14.1c0.9-9.4,7.9-14.3,16.8-11.1
		c15,5.3,30,10.7,45,16c13.8,4.9,27.5,9.7,41.2,14.8c2.7,1,5.4,2.5,7.5,4.4c40.2,35.4,80.3,70.9,120.3,106.5c2.2,2,3.7,4.7,5.5,7.1
		C735.1,436.6,735.1,438.5,735.1,440.5z M609.8,800.7c0-1.8,0-3.2,0-4.6c0-112.6,0-225.2,0-337.9c0-8,4.7-13.2,11.8-13.1
		c7.2,0,11.7,5.1,11.7,13.2c0,16.2,0,32.4,0,48.5c0,1.1,0,2.2,0,3.3c-0.2-0.4-0.5-0.9-0.7-1.3c24.2-23.5,48.3-47,72.7-70.7
		c-0.7-0.6-1.1-0.9-1.6-1.3c-36.1-32.3-72.2-64.6-108.3-96.8c-1.2-1-2.7-1.8-4.2-2.3c-16.5-6-33-11.9-49.5-17.8
		c-6.9-2.5-13.9-4.9-20.8-7.4c-8.3,40.8-43.2,68.6-80.7,69.3c-47.5,0.9-76.7-24.2-90.1-69.1c-0.5,0.2-1.2,0.4-1.9,0.6
		c-23,8.3-45.9,16.5-68.9,24.9c-1.7,0.6-3.2,1.8-4.6,3c-25.5,22.7-50.9,45.4-76.4,68.1c-10.8,9.7-21.7,19.3-33.1,29.5
		c24.3,23.7,48.5,47.3,72.5,70.6c0-0.7,0-2,0-3.3c0-16.5-0.1-33,0.1-49.5c0.1-6.1,4.6-10.8,10.2-11.3c6.6-0.6,11.6,3.1,13,9.4
		c0.4,1.8,0.4,3.7,0.4,5.5c0,112.1,0,224.1,0,336.2c0,1.5,0,3,0,4.5C377.7,800.7,493.5,800.7,609.8,800.7z"/>
	<path d="M503.2,95.7c2.7-1.3,5.2-2.5,7.8-3.7c19.3-9.4,38.7-18.8,57.9-28.2c4.7-2.3,9.2-2.4,13.6,0.6c4.6,3.2,6.1,8.6,4.2,14.9
		c-9.4,31.1-18.9,62.1-28.4,93.2c-5.8,19-11.6,37.9-17.4,56.9c-2.1,6.8-6.1,9.7-13.3,9.7c-64.3,0-128.6,0-192.8,0
		c-7.3,0-11.4-2.9-13.5-9.9C306,179,290.8,128.9,275.6,78.8c-1.6-5.3-0.7-10,3.5-13.7c4.3-3.8,9.2-3.9,14.3-1.4
		c21,10.3,42,20.4,62.9,30.7c2.3,1.1,3.5,0.8,5.1-1.1c19.7-22.8,39.5-45.6,59.3-68.4c6.7-7.7,14.4-7.6,21.1,0.1
		c19.4,22.4,38.8,44.8,58.2,67.1C501,93.3,502.1,94.4,503.2,95.7z M307.1,97.7c0.3,1.2,0.4,1.6,0.5,2c11.2,37,22.5,74,33.7,111
		c0.9,3.2,2.3,3.9,5.4,3.9c56.3-0.1,112.6-0.1,168.9-0.1c1.3,0,2.6,0,4.2,0c11.8-38.8,23.6-77.5,35.5-116.8
		c-1.7,0.7-2.8,1.2-3.8,1.7c-14.9,7.2-29.8,14.5-44.7,21.8c-7,3.4-12.1,2.3-17.2-3.6c-17.8-20.5-35.5-40.9-53.3-61.4
		c-1.6-1.9-3.3-3.7-5.2-5.8c-1.4,1.6-2.6,3-3.8,4.3c-18.3,21.1-36.7,42.3-55,63.4c-4.8,5.5-10,6.5-16.4,3.4
		c-7.3-3.5-14.5-7.1-21.8-10.6C325.3,106.6,316.5,102.3,307.1,97.7z"/>
</g>
</svg>
