<?xml version="1.0" encoding="utf-8"?>
<!-- Generator: Adobe Illustrator 21.1.0, SVG Export Plug-In . SVG Version: 6.00 Build 0)  -->
<svg version="1.1" id="レイヤー_1" xmlns="http://www.w3.org/2000/svg" xmlns:xlink="http://www.w3.org/1999/xlink" x="0px"
	 y="0px" viewBox="0 0 850.4 850.4" style="enable-background:new 0 0 850.4 850.4;" xml:space="preserve">
<path d="M518.7,71.4c8.5,1.6,17.2,2.8,25.6,4.8c66.3,15.4,118.3,71.3,128,138.4c5.4,37.1,0.3,73.6-10.2,109.2
	c-12.2,41.6-32.3,78.8-63.7,109.2c-19.1,18.6-41.1,32.7-67.3,38.9c-36.8,8.8-70.3,0.4-101-20.6c-33.2-22.8-55.5-54.5-71.7-90.8
	c-13.7-30.8-21.2-63.2-23.8-96.8c-2.4-30.1-0.2-59.6,12-88.6c-5.7-1.1-10.9-2.5-16.2-3.1c-47.4-5-87.7,28.3-93,69.8
	c-5.6,44.2,6.6,84.2,36.4,117.9c5.8,6.5,13.5,11.5,20.9,16.4c8.2,5.4,11.5,13.5,7.3,21c-4.4,7.7-13.5,10.3-21.8,5.7
	c-4.5-2.5-8.7-5.5-13.1-8.2c-1.1-0.7-2.6-1.5-3.6-1.2c-13.8,4.2-27.7,8.4-41.4,13c-18,6-35.2,13.8-49.5,26.7
	c-15.6,14-24.8,31.9-30.7,51.7c-6.4,21.7-12.3,43.5-18.4,65.2c-1.5,5.5-0.8,6.4,4.7,6.5c29.1,0,58.2,0,87.3,0.1c3.2,0,5-1,6.8-3.6
	c29.3-42.6,69.4-68.9,120-79.2c14-2.9,25.9,2.1,35.4,12.5c11.5,12.5,24.7,22.5,40.4,29c15.2,6.3,31.1,9.7,47.4,10.2
	c21.7,0.7,43.5,1.1,65.1-0.1c33.9-1.7,64-12.9,87.3-39.2c10-11.3,22.8-15.3,37.8-12.1c67.5,14.4,112.3,54.8,137.7,118.5
	c15.4,38.8,24.4,79.4,36.6,119.1c6.9,22.5-7.5,45.7-30.4,52c-1,0.3-1.9,0.8-2.9,1.1c-198.3,0-396.7,0-595,0
	c-0.4-0.3-0.7-0.7-1.1-0.8c-26.3-6.9-39.2-29.3-31.8-55.3c6.4-22.5,12.9-44.9,19.4-67.4c5.3-18.2,10.6-36.4,16-54.9
	c-1.8,0-3.5,0-5.2,0c-24.7,0-49.4,0.1-74.1,0c-21.8-0.1-37.4-20.6-31.7-41.5c3.4-12.5,7-24.9,10.5-37.4c3.8-13.6,7.7-27.2,11.7-41.3
	c-1.9,0-3.6,0-5.3,0c-17,0-34.1,0-51.1,0c-19.6-0.1-30.9-15.2-25.6-34.1c3.4-12,6.8-24,10-36c9.1-35.1,31-58,65.7-68.7
	c5.2-1.6,10.3-3.2,15.7-4.9c-11.1-19.6-16.9-40.3-17-62.4c-0.2-25.1,9.2-46,29.4-60.8c27.5-20.3,56.9-20.1,87.1-5
	c0.4-0.6,1.1-1.4,1.7-2.3c29.9-42.8,81-60.5,131-45.3c3.7,1.1,5.1,0.2,7.1-2.6C388.6,109.1,422,86.2,464,76.1
	c8.1-2,16.4-3.1,24.7-4.7C498.7,71.4,508.7,71.4,518.7,71.4z M498.5,735c95.7,0,191.4-0.1,287.1,0.2c11.6,0,18.1-7.8,14.3-19.2
	c-7.3-21.8-14-43.8-20.9-65.8c-5.5-17.5-9.5-35.7-16.5-52.6c-20.8-50.4-59-80.8-111.8-93.4c-4.9-1.2-8.7,0.4-12.1,4.2
	c-25.7,29-58.7,43.3-96.5,47.1c-31.8,3.3-63.7,3.4-95.4-0.8c-34.7-4.6-65-18.5-88.8-44.8c-4.8-5.3-9.6-6.8-16.5-5
	c-57.5,15.1-95.8,50.6-113.5,107.5c-10.7,34.4-20,69.2-30.4,103.6c-3.8,12.7,3.2,19.2,14.2,19.2C307.4,734.9,402.9,735,498.5,735z
	 M364.2,252.8c1.2,25.1,5.7,49.4,13.7,73c12.5,36.8,31.2,69.7,61.7,95c36.7,30.5,81.5,32.6,120.7,5.6c24.9-17.2,42.4-40.8,55.9-67.5
	c16.4-32.3,24.9-66.8,27.2-102.9c0.6-9.5,0.1-19,0.1-28.9c-32.7,6-61-2.5-86.6-23.4c-0.5,0.8-0.8,1.5-1.3,2.1
	c-12.1,15.5-27.6,26.6-45.4,34.6c-35.1,15.7-72.2,18.7-110,16.3C388.3,255.9,376.6,254.2,364.2,252.8z M636.9,198.3
	c-20.1-63.3-87-109.4-162.1-93.9c-68.9,14.2-105.5,74.7-108.6,119c17,1.4,34.1,3.4,51.2,4.1c25.3,1,50.2-2.2,74-11.4
	c20.7-8,37.8-20.4,48.2-40.8c6.8-13.4,18.6-14.6,28-2.9c6.7,8.3,14.7,14.9,24.2,19.6C606,199.1,620.8,200.9,636.9,198.3z M63,435.9
	c1.7,0.4,2.1,0.6,2.6,0.6c20.8,0,41.6,0.1,62.4-0.1c1.5,0,3.2-1.4,4.3-2.6c7-7.8,13.2-16.3,20.7-23.5c17.1-16.2,38.1-25.8,60.3-32.9
	c9.3-3,18.7-5.5,28.1-8.3c-30.2-45.6-43.9-94.4-31-148.8c-3-1.2-6.1-2.5-9.3-3.8c-24.4-10.1-53,3-61.3,28
	c-2.9,8.9-2.8,17.9-1.3,26.9c3.8,23.4,12.2,44.1,33.8,57.3c8.7,5.3,9.3,17.4,1.6,24.1c-5.8,5.1-12.8,5.5-20.6,0.1
	c-4.8-3.4-8.7-4.5-14.6-2.1c-9.2,3.7-19.2,5.5-28.5,8.9c-12.8,4.7-24.5,12-29.8,24.9C73.7,401.2,68.8,418.7,63,435.9z"/>
</svg>
