<?xml version="1.0" encoding="utf-8"?>
<!-- Generator: Adobe Illustrator 21.1.0, SVG Export Plug-In . SVG Version: 6.00 Build 0)  -->
<svg version="1.1" id="レイヤー_1" xmlns="http://www.w3.org/2000/svg" xmlns:xlink="http://www.w3.org/1999/xlink" x="0px"
	 y="0px" viewBox="0 0 850.4 850.4" style="enable-background:new 0 0 850.4 850.4;" xml:space="preserve">
<path d="M227.8,101c9.9,0,19.8,0,29.7,0c1,0.3,1.9,0.6,2.9,0.8c7,0.9,14,1.3,20.9,2.6c61.5,12.1,109.6,44.3,144.2,96.6
	c0.7,1,1.4,2,2.3,3.2c0.8-1.2,1.4-2,2-2.9c12.1-18.7,26.6-35.3,43.7-49.6c31.5-26.2,67.4-42.5,108-48.4c5.5-0.8,11-1.5,16.5-2.3
	c9.9,0,19.8,0,29.7,0c1.3,0.3,2.5,0.6,3.8,0.8c8.4,1.2,16.8,1.8,25.1,3.5c47.9,10,88.2,33.2,120.5,69.9
	c26.9,30.6,43.9,66,50.6,106.2c1.2,7.3,2.1,14.6,3.1,21.9c0,9.9,0,19.8,0,29.7c-0.5,3.6-1.1,7.1-1.5,10.7c-4.1,35-16.3,66.9-36,96
	c-11.1,16.4-25.2,30-39.1,43.9C654,583,554.1,682.6,454.3,782.3c-6.2,6.2-12.3,12.3-21.1,14.6c-3.6,0-7.3,0-10.9,0
	c-8.8-2.4-14.9-8.5-21.1-14.6c-99.5-99.3-199-198.4-298.6-297.6c-2.4-2.4-4.9-4.7-7.4-7c-36.1-33.6-58.9-74.4-67.4-123.1
	c-1.3-7.4-2.1-14.9-3.1-22.3c0-9.6,0-19.3,0-28.9c0.3-1.3,0.6-2.5,0.8-3.8c0.9-6.8,1.4-13.7,2.6-20.5c7.9-42.2,26.5-79.1,56.1-110.2
	c33.2-34.8,73.7-56.5,121.2-64.7C212.9,102.9,220.4,102.1,227.8,101z"/>
</svg>
