<?xml version="1.0" encoding="utf-8"?>
<!-- Generator: Adobe Illustrator 21.1.0, SVG Export Plug-In . SVG Version: 6.00 Build 0)  -->
<svg version="1.1" id="レイヤー_1" xmlns="http://www.w3.org/2000/svg" xmlns:xlink="http://www.w3.org/1999/xlink" x="0px"
	 y="0px" viewBox="0 0 850.4 850.4" style="enable-background:new 0 0 850.4 850.4;" xml:space="preserve">
<path d="M396.8,52.4c9.6,1.5,19.2,2.5,28.7,4.5c86.2,17.8,149.4,66.5,190.7,143.6c26,48.6,36.2,101.1,31.9,156.1
	c-5.4,70.3-32.8,130.6-82.3,180.9c-0.4,0.4-0.7,0.9-1.4,1.7c0.8,1,1.5,2.1,2.4,3.1c70.7,72.6,141.4,145.2,212.1,217.8
	c1.1,1.1,2.4,1.9,3.6,2.9c0,0.4,0,0.8,0,1.2c-4,4.1-8,8.2-11.9,12.4c-6.8,7.3-13.5,14.7-20.3,22.1c-0.8,0-1.6,0-2.4,0
	c-1-1.4-2-2.9-3.2-4.1c-71.5-73.5-143-146.9-214.5-220.4c-1.2-1.3-2.5-2.4-4-3.8c-20.8,14-42.6,25.8-66.4,32.9
	c-107.9,32.4-201.5,7.3-279.6-73c-42.9-44.1-66.2-98.3-74-159.3c-0.6-5-1.5-10.1-2.3-15.1c0-14.3,0-28.6,0-42.8
	c0.4-1.7,1-3.4,1.1-5.1c3.9-44.9,17.5-86.7,41.5-124.9C189.1,115.5,248.9,72.4,327.8,57c9.4-1.9,19-3.1,28.5-4.6
	C369.8,52.4,383.3,52.4,396.8,52.4z M372.4,101.3c-4.8,0.4-13.7,1-22.6,2c-44.8,5.3-84.9,22.2-117.8,52.8
	c-75.1,69.6-97.8,154.9-68.5,252.5c29.6,99,126.9,168.3,232.5,158.1c52.5-5.1,98.3-25.3,134.9-62.9c66.4-68.2,85.9-149.4,59.6-240.5
	C562.8,167.7,473.9,101.4,372.4,101.3z"/>
</svg>
