<?xml version="1.0" encoding="utf-8"?>
<!-- Generator: Adobe Illustrator 21.1.0, SVG Export Plug-In . SVG Version: 6.00 Build 0)  -->
<svg version="1.1" id="レイヤー_1" xmlns="http://www.w3.org/2000/svg" xmlns:xlink="http://www.w3.org/1999/xlink" x="0px"
	 y="0px" viewBox="0 0 850.4 850.4" style="enable-background:new 0 0 850.4 850.4;" xml:space="preserve">
<path d="M835.4,264.6c-1.5,4.8-4.7,8.4-8.2,11.9c-42.9,43.8-85.7,87.6-128.6,131.4c-1.8,1.8-2.5,3.6-2.5,6.1
	c0.1,123.4,0.1,246.8,0.1,370.2c0,9.1-4.5,15.5-12.3,17.5c-1.5,0.4-3.2,0.4-4.7,0.4c-169.9,0-339.8,0-509.7,0c-10.6,0-17-6.9-17-18
	c0-123.2,0-246.4,0.1-369.6c0-2.9-0.7-4.9-2.8-7C106,363.1,62.5,318.5,18.9,273.9c-8-8.2-7.8-18,0.7-25.7
	c51.9-46.8,103.9-93.5,155.5-140.6c9.7-8.9,20.3-15.1,32.6-19.4C243,75.8,277.9,62.7,313,49.9c12.1-4.4,22,1.9,23.3,14.7
	c1.8,18.2,7,35.4,17.2,50.8c11.4,17.3,27.2,28.4,47.3,33.2c19.9,4.7,39.5,3.8,58.4-4.1c23.3-9.8,37.2-28.1,45.5-51.3
	c3.5-9.8,5.2-19.9,6.3-30.1c1.1-10.9,11.3-17.3,21.6-13.6c40.7,14.6,81.4,29.4,122,44.2c2.4,0.9,4.8,2.4,6.7,4.1
	c55.7,50,111.4,100.1,167.1,150.2c3.3,2.9,5.5,6.4,6.9,10.5C835.4,260.4,835.4,262.5,835.4,264.6z M794.6,262.4
	c-0.6-0.5-1.1-0.8-1.4-1.2c-49.7-45.1-99.4-90.2-149.1-135.3c-1.7-1.5-3.8-2.8-5.9-3.6c-19-7.1-38-14-57-20.9
	c-13.4-4.9-26.9-9.8-40.4-14.7c-11.1,56.1-58.9,97-116.7,97.3c-56.4,0.3-106.3-40.4-117.2-97.1c-1.2,0.4-2.4,0.7-3.6,1.1
	c-31,11.3-62,22.6-92.9,34c-2.8,1-5.5,2.7-7.7,4.7c-44.9,40.6-89.8,81.2-134.6,121.8c-5.1,4.6-10.2,9.2-15.4,14
	c32.9,33.8,65.7,67.3,99,101.5c0-2.1,0-3.3,0-4.4c0-23.6,0-47.2,0-70.8c0-10.8,9.3-18.5,19.5-16.4c8.1,1.7,13,8.3,13,17.6
	c0,158.1,0,316.2,0,474.2c0,1.4,0,2.9,0,4.3c159.9,0,319.3,0,479,0c0-1.7,0-3.2,0-4.7c0-157.3,0-314.7,0-472c0-1.2,0-2.3,0-3.5
	c0.5-11.1,9.8-18.4,20.2-15.9c6.9,1.7,12.1,8.1,12.1,15.4c0.1,24,0,48.1,0,72.1c0,1.1,0,2.2,0,4
	C728.9,329.7,761.6,296.2,794.6,262.4z"/>
</svg>
