<?xml version="1.0" encoding="utf-8"?>
<!-- Generator: Adobe Illustrator 21.1.0, SVG Export Plug-In . SVG Version: 6.00 Build 0)  -->
<svg version="1.1" id="レイヤー_1" xmlns="http://www.w3.org/2000/svg" xmlns:xlink="http://www.w3.org/1999/xlink" x="0px"
	 y="0px" viewBox="0 0 850.4 850.4" style="enable-background:new 0 0 850.4 850.4;" xml:space="preserve">
<style type="text/css">
	.st0{fill:#FFFFFF;}
</style>
<path class="st0" d="M-890-386c-3.3,1.4-7.3,2-9.7,4.3c-3.7,3.6-6.3,8.4-9.3,12.7c0-5.7,0-11.3,0-17C-902.7-386-896.3-386-890-386z"
	/>
<path d="M46.3,471.9c0.8-4,1.4-8,2.5-11.9c9.9-35.2,32.9-56.7,68.3-65.1c12.9-3,25.9-5.5,38.8-8.3c5-1.1,9.5-0.2,12.7,4.2
	c2.7,3.8,2.8,7.8,0.6,11.9c-1.8,3.3-4.7,4.9-8.3,5.6c-5.2,1.1-10.3,2.2-15.4,3.2c-2.6,21.2,11.5,40,32.3,43.6
	c15.6,2.7,31.2,5.3,46.7,8.4c24.9,5,44.2,25.8,47.6,51c0.1,0.4,0.1,0.8,0.3,1.5c1.2,0,2.4,0,3.6,0c62.8,0,125.7,0,188.5,0
	c2.4,0,4.8-0.1,7.1-0.6c6.5-1.4,8.2-3.6,8.6-10.1c0.6-13.8,7.4-23.8,19.1-30.7c0.7-0.4,1.5-1,2.3-1.1c4.8-0.8,5.8-4,6.5-8.3
	c7.4-46.3,26.5-87.4,57-123c8.9-10.4,18.9-19.8,28.5-29.8c-15.6-8.6-27.7-22.1-40.3-35.7c-5.3,4.2-10.5,8.3-15.7,12.4
	c-38.9,30.4-78.4,59.8-120.8,85.2c-22.6,13.6-46,25.8-70.9,34.1c-32.7,10.8-61.8,2.8-86.4-21.4c-1.6-1.5-2.7-1.8-4.7-1.2
	c-13.6,3.8-27.2,7.6-40.8,11.1c-7.7,2-14.3-3.5-14.3-11.4c0-3.9,2-6.7,5.4-8.1c3.6-1.5,7.5-2.6,11.4-3.5
	c20.2-4.6,39.6-11.6,58.8-19.3c6-2.4,12.2-4.1,18.3-6.2c17.3-5.7,33.2-14.3,48.9-23.3c41-23.8,79.7-51.2,117.6-79.6
	c22.7-17,44.9-34.8,67.5-51.9c4.2-3.2,9.4-4.9,14.1-7.4c3,0,6,0,9.1,0c4.1,1.7,8.7,2.9,12.3,5.4c17.9,12.3,27.7,29.5,29,51.2
	c0.7,11.5-1.7,22.7-4.3,33.9c-0.5,2.2-0.2,3.7,1.6,5.3c16.9,14.7,36.3,23.3,58.5,25.5c28.3,2.8,53.9-4.5,76.1-22.3
	c5.2-4.1,9.5-9.4,13.9-14.4c13.2-14.9,34.8-13.3,45.3,3.6c2.4,3.9,4.5,8.2,5.7,12.6c2.8,9.7,5.2,19.5,7.6,29.3
	c3.7,15.1,7.4,30.3,10.9,45.5c1.1,4.7,1.6,9.5,2.4,14.2c0,5.4,0,10.8,0,16.2c-0.9,2.9-1.5,5.8-2.7,8.5c-1.9,4.3-5.4,6.2-10.2,5.9
	c-4.7-0.3-7.7-2.7-9.1-7c-0.7-2.2-1.3-4.6-1.3-6.9c-0.4-13.8-1-27.7-4.3-41.1c-5.3-21.4-11.2-42.6-17-63.9
	c-1.4-5.3-6.4-6.4-10.1-2.4c-4.3,4.7-8.1,9.9-13,14c-36.1,30-76.8,38-121.7,25.1c-2.7-0.8-4.5-0.5-6.7,1.3
	c-40,32.5-66.6,73.5-79.6,123.4c-1.8,6.8-3,13.8-4.5,20.9c85.9,0,171.3,0,257,0c0-1.3,0-2.5,0-3.6c0-6.2-0.1-12.3,0-18.5
	c0.2-6.5,4.1-10.7,9.8-10.6c6.2,0.1,11.9,5.1,12.7,11.3c0.2,1.1,0.4,2.3,0.7,3.4c0,5.2,0,10.4,0,15.5c-0.2,2.6-0.6,5.1-0.6,7.7
	c-0.1,14.8,0,29.5-0.1,44.3c0,4.1,0,8.2-0.8,12.2c-5.9,30.8-23.9,51.1-53.7,60.7c-5.6,1.8-11.6,2.3-17.4,3.4
	c-90.7,0-181.4,0-272.1,0c-0.4-0.2-0.7-0.5-1.1-0.6c-6.4-1.7-9.9-5.5-9.9-10.7c0.1-5.4,4.1-9.7,10.6-10.8c4.3-0.7,8.8-1.2,13.2-1.1
	c18.9,0.1,37.8,0.3,56.6,0.5c6.8,0.1,13.5,0,20.3,0c6.8-36.5,38.4-60.2,74.4-59.7c51.1,0.7,102.1,0.2,153.2,0.2c1.4,0,2.7,0,4,0
	c0-7.3,0-14.1,0-21.2c-1.4,0-2.7,0-4,0c-87.4,0-174.9,0-262.3,0c-1.9,0-3.9,0.1-5.8,0.4c-5.6,0.8-10.7,5.7-11.6,11.2
	c-0.3,2.1-0.4,4.3-0.6,6.4c-0.7,8.3-4.4,15-10.9,20.2c-8.1,6.4-17.7,8-27.7,8c-110.7,0-221.3,0-332-0.1c-4.8,0-9.7-0.5-14.4-1.5
	c-19.9-4.5-34.2-16.2-42.7-34.8c-1-2.2-2-4.5-5-5c0.2,4.1,0.1,8,0.7,11.8c0.4,3.1,1,6.5,2.4,9.2c13.2,26.1,34.2,42.7,62.1,51.1
	c12.6,3.8,25.5,4.1,38.4,4.1c78.5-0.1,157-0.1,235.4-0.1c1.9,0,3.9,0.1,5.8,0.5c4.9,1.1,8.2,5.2,8.4,10.2c0.2,5.3-2.2,8.7-7.3,10.5
	c-1.3,0.4-2.6,0.9-3.9,1.3c-84.9,0-169.7,0-254.6,0c-4.9-0.6-9.8-1.1-14.7-1.9c-40-7-69.8-28.4-89.1-64.2c-3-5.5-5.6-11.1-5.3-17.7
	c0.1-2.4-0.2-4.7-0.4-7.1c-0.4-5.4-0.9-10.7-1.3-16C46.3,483.2,46.3,477.6,46.3,471.9z M69.4,473.2c2.2,0.7,4.2,1.4,6.3,2
	c9,2.9,15.4,8.6,19.4,17.3c7.1,15.6,19.3,23.6,36.5,23.6c38.2,0,76.4,0,114.6,0c1.1,0,2.3,0,3.5,0c-1.9-14.3-13.9-27.5-28.5-30.5
	c-15.6-3.2-31.3-5.9-47-8.5c-24-4-43.8-22.1-49.4-45.8c-1.1-4.8-1.6-9.7-2.3-14.5C95.2,420.9,72.1,445.2,69.4,473.2z M784,537.6
	c-11.4,0-22.1,0.1-32.8,0c-40.5-0.6-80.9-1.3-121.4-1.8c-5.4-0.1-11.1,0.3-16.3,1.7c-18.3,5-29.9,17.1-35.3,35.4
	c1.1,0.1,1.8,0.2,2.5,0.2c51.4,0,102.8,0.1,154.2-0.1c15.4,0,28.2-6.4,38.6-17.6C778,550.5,781.4,544.9,784,537.6z M391.1,323.9
	c1.9,0.4,3.2,0.7,4.6,1c6.9,1.4,11,6.8,9.8,12.9c-1.4,6.6-7.3,10.3-14.2,8.9c-7.2-1.4-14.3-2.8-21.7-4.2c-0.3,1-0.5,1.8-0.7,2.6
	c-1.4,7-2.7,14-4.1,20.9c-1.5,6.9-7.2,11-13.3,9.7c-6.9-1.5-10.2-7.1-8.7-14.5c0.8-3.7,1.4-7.5,2.1-10.8
	c-21,9.1-41.9,18.1-62.8,27.1c0.2,0.2,0.6,0.7,1.2,1c16.7,12.1,35.3,16.3,54.7,9.3c16.6-6,32.7-13.8,48.5-21.9
	c28.6-14.7,55.1-33,81.1-51.9c23.5-17.2,46.6-34.9,70-52.4c-16.6-14.3-45.7-14.5-60.9-1.7c3.5,0.4,7,0.3,10.5,0.4
	c7.2,0.3,11.8,5.4,11.3,12.2c-0.4,6.1-6.1,10.4-12.8,10c-7.9-0.5-15.7-0.8-23.6-1.1c-1.8-0.1-3.6,0-5.6,0c-0.4,4-0.7,7.8-1,11.7
	c-0.4,3.9-0.8,7.7-1.1,11.6c-0.6,8.3-7.5,13.5-14.9,11.1c-4.7-1.5-7.8-5.7-7.7-10.8c0.1-3.2,0.5-6.4,0.7-9.9
	C418.7,304.8,405.1,314.2,391.1,323.9z M518.6,227.9c10.8,2.1,20.2,5.5,28.1,11.7c7.8,6.1,14.9,13.2,22.2,19.9
	c4.7-17.8-1.8-37.4-16.3-48.7c-2.8-2.2-6.1-3-9-1C535.3,215.4,527.4,221.4,518.6,227.9z"/>
</svg>
