<?xml version="1.0" encoding="utf-8"?>
<!-- Generator: Adobe Illustrator 21.1.0, SVG Export Plug-In . SVG Version: 6.00 Build 0)  -->
<svg version="1.1" id="レイヤー_1" xmlns="http://www.w3.org/2000/svg" xmlns:xlink="http://www.w3.org/1999/xlink" x="0px"
	 y="0px" viewBox="0 0 850.4 850.4" style="enable-background:new 0 0 850.4 850.4;" xml:space="preserve">
<style type="text/css">
	.st0{fill:#FFFFFF;}
</style>
<path class="st0" d="M-964,778c1.7,0,3.3,0,5,0c296.5,0,593,0,889.5,0c1.5,0,3,0,4.5,0c-0.2,0.3-0.3,0.9-0.5,1c-1.3,0.1-2.7,0-4,0
	c-296.7,0-593.3,0-890,0C-961,778.9-962.5,778.3-964,778z"/>
<path d="M426.2,87c2.3,0,4.7,0,7,0c3.2,1.6,6.9,2.7,9.6,4.9c8.1,6.7,15.9,13.8,23.8,20.7c34.8,30.9,69.5,61.8,104.2,92.8
	c36.3,32.3,72.5,64.5,108.8,96.8c34.7,30.9,69.4,61.9,104.2,92.7c5.1,4.5,9.9,9,11.3,16c0,2.3,0,4.7,0,7c-0.2,0.4-0.4,0.8-0.5,1.2
	c-1.2,4.3-3.3,8-6.9,10.8c-8.2,6.4-19,5.7-27.3-1.7c-19.3-17.3-38.7-34.5-58.1-51.8c-0.7-0.6-1.4-1.2-2.5-2.1c0,1.6,0,2.6,0,3.6
	c0,112,0,224,0,336c0,12.2-2.1,24-7.6,35c-7.1,14-17.4,24.4-33,28.6c-1.8,0.5-3.6,0.8-5.4,1.3c-39.6,0-79.2,0-118.8,0
	c-3.8-1-7.7-1.7-11.4-3.1c-17.3-6.4-31-23.6-30.9-45.7c0.2-59,0.1-117.9,0.1-176.9c0-1,0-2-0.1-3c-0.4-4.3-3.1-7-7.5-7
	c-4.4-0.1-8.9,0-13.3,0c-31.5,0-62.9,0-94.4,0c-2.3,0-4.5,0.3-6.3,2c-1.8,1.7-2.2,3.9-2.2,6.4c0,59.6,0,119.2,0,178.8
	c0,22.4-14,41-35.1,46.9c-2.4,0.7-5,1.1-7.4,1.7c-39.7,0-79.5,0-119.2,0c-0.4-0.2-0.8-0.3-1.3-0.4c-4-1-8.1-1.7-11.9-3.2
	c-19.8-7.8-32.1-26.4-32.2-48.1c0-117.1,0-234.2,0-351.3c0-1,0-2,0-3.3c-0.6,0.5-0.9,0.7-1.2,0.9c-5.6,5-11.3,10.1-16.9,15.1
	c-14.4,12.9-28.8,25.8-43.3,38.6c-11.5,10.2-29.3,5-33.3-9.6c-0.2-0.7-0.4-1.3-0.6-1.9c0-2.3,0-4.7,0-7c1.5-4.4,3.3-8.5,6.9-11.6
	c11.3-9.9,22.5-20,33.7-30c49-43.6,98-87.2,147-130.8c51.8-46.1,103.7-92.3,155.5-138.4C414.7,93.4,419.3,88.5,426.2,87z
	 M429.9,134.1c-8.2,7.3-16.3,14.5-24.3,21.6c-66.9,59.5-133.8,119-200.7,178.4c-1.8,1.6-2.4,3.1-2.4,5.4c0,128.8,0,257.6,0,386.4
	c0,1.2,0,2.3,0.1,3.5c0.2,3,1.7,5.3,4,7.1c2.3,1.8,5.1,2.2,7.9,2.2c34.8,0,69.7,0,104.5,0c6.9,0,9.4-2.6,9.4-9.5
	c0-58.9,0-117.8,0-176.7c0-3.6,0.1-7.4,0.8-10.9c4.7-23.1,24-38.8,47.6-38.8c35.9,0,71.8,0,107.8,0c3.5,0,7,0.3,10.4,1
	c22.9,5,38.1,24,38.2,47.4c0,59.4,0,118.7,0,178.1c0,6.3,2.6,8.9,8.9,8.9c34.9,0,69.8,0,104.7,0.1c2.6,0,4.6-0.9,6-2.9
	c1.3-1.8,2.4-3.6,3.4-5.6c2.4-5.3,2.9-10.9,2.9-16.6c0-124,0-248.1,0-372.1c0-2.1-0.6-3.6-2.2-5c-30.2-26.8-60.4-53.7-90.6-80.6
	c-39.3-35-78.7-70-118-105.1C442.2,145.1,436.1,139.7,429.9,134.1z"/>
</svg>
