<?xml version="1.0" encoding="utf-8"?>
<!-- Generator: Adobe Illustrator 21.1.0, SVG Export Plug-In . SVG Version: 6.00 Build 0)  -->
<svg version="1.1" id="レイヤー_1" xmlns="http://www.w3.org/2000/svg" xmlns:xlink="http://www.w3.org/1999/xlink" x="0px"
	 y="0px" viewBox="0 0 850.4 850.4" style="enable-background:new 0 0 850.4 850.4;" xml:space="preserve">
<path d="M90.3,504.8c0.3-1.6,0.6-3.1,0.9-4.7c1.7-7.9,5.6-14.6,11.2-20.3c15.7-15.9,31.3-31.8,46.9-47.7
	c93.8-95.5,187.7-190.9,281.4-286.4c1.1-1.1,2.2-1.5,3.7-1.5c86.1,0,172.2,0,258.4,0.1c1.5,0,2.6-0.4,3.7-1.5
	c13.2-13.4,26.5-26.8,39.8-40.2c4-4,9.2-4.9,13.7-2.5c6.8,3.6,8.1,12.7,2.6,18.3c-10.2,10.3-20.4,20.6-30.6,30.9
	c-3.2,3.3-6.5,6.6-9.8,9.8c-1,1-1.4,2-1.4,3.4c0,90.7,0,181.5,0.1,272.2c0,1.6-0.5,2.7-1.6,3.9c-55.1,57.1-110.3,114.2-165.4,171.3
	c-50.9,52.8-101.9,105.5-152.7,158.4c-6.6,6.9-14.2,11.6-23.6,13.3c-0.9,0.2-1.8,0.4-2.7,0.6c-2.6,0-5.2,0-7.8,0
	c-0.9-0.2-1.8-0.4-2.7-0.6c-8.8-1.5-16.1-5.7-22.4-12C275,711.8,217.9,654.2,160.8,596.6c-19.4-19.6-38.9-39.2-58.3-58.8
	c-5.3-5.4-9.1-11.6-10.9-18.9c-0.5-1.9-0.8-3.9-1.2-5.8C90.3,510.3,90.3,507.5,90.3,504.8z M634,238.2c17.9,28.2,8.1,61.4-14.1,77.6
	c-22.3,16.2-52.9,13.9-72.8-5.8c-19.7-19.6-22.2-51-6.1-73.7c15.7-22.2,48.9-32.6,77-14.3c18-18.1,36-36.3,54.3-54.8
	c-1.1,0-1.7,0-2.2,0c-75.5,0-151.1,0-226.6,0c-1.3,0-2.2,0.3-3.1,1.3C383.5,226.3,326.7,284.1,269.9,342
	C219.4,393.3,169,444.6,118.6,495.9c-1.7,1.7-3.2,3.7-4.1,5.9c-3.2,6.9-1.6,14.2,4.1,19.9c63.5,64.1,127.1,128.2,190.6,192.3
	c13.2,13.3,26.3,26.6,39.5,39.8c4,4.1,8.9,5.8,14.6,5.1c4.3-0.5,7.7-2.6,10.7-5.7c42.5-44.1,85.1-88.2,127.6-132.3
	c61.9-64.1,123.8-128.3,185.7-192.5c0.6-0.6,0.9-1.7,0.9-2.6c0-80.2,0-160.3,0-240.5c0-0.6-0.1-1.1-0.1-2
	C670,201.8,652,220,634,238.2z M616.9,254.8c-0.4,0.7-0.7,1.3-1.2,1.8c-6.9,7-13.9,14.1-20.9,21c-4,4-9.7,4.5-14.3,1.5
	c-6.2-4.1-6.9-12.4-1.4-18c6.8-7,13.7-13.9,20.6-20.8c0.4-0.4,0.9-0.9,1.3-1.4c-13.1-6.9-31.1-3.6-41.4,10.2
	c-10.4,13.9-8.6,33.7,4.1,45.4c12.7,11.8,31.9,12.2,45.1,0.8C622.1,283.9,623.1,265.9,616.9,254.8z"/>
</svg>
