<?xml version="1.0" encoding="utf-8"?>
<!-- Generator: Adobe Illustrator 21.1.0, SVG Export Plug-In . SVG Version: 6.00 Build 0)  -->
<svg version="1.1" id="レイヤー_1" xmlns="http://www.w3.org/2000/svg" xmlns:xlink="http://www.w3.org/1999/xlink" x="0px"
	 y="0px" viewBox="0 0 850.4 850.4" style="enable-background:new 0 0 850.4 850.4;" xml:space="preserve">
<path d="M421.6,152.9c2.6,0,5.1,0,7.7,0c0.2,0.1,0.4,0.3,0.7,0.4c7.8,1.2,14.1,4.9,19.3,10.8c16.3,18.8,32.7,37.6,49.1,56.4
	c31.8,36.5,63.5,73,95.3,109.4c4.4,5,8.8,10,13.1,15.1c0.7-0.3,1.2-0.6,1.8-0.8c27.9-13.6,55.9-27.1,83.8-40.7
	c27.5-13.3,55-26.7,82.6-40c17.7-8.6,38.3,0.6,43.5,19.4c0.4,1.4,0.7,2.9,1.1,4.3c0,2.6,0,5.1,0,7.7c-0.5,1.9-0.9,3.8-1.5,5.6
	c-38.9,127.4-77.7,254.7-116.6,382.1c-4.2,13.8-15.7,22.3-30.1,22.3c-163.9,0-327.8,0-491.7,0c-14.4,0-25.9-8.6-30.1-22.3
	c-7.5-24.5-14.9-48.9-22.4-73.4c-27.7-90.8-55.4-181.5-83.1-272.3c-4.3-14-8.4-28-12.6-42c0-2.7,0-5.4,0-8.1c0.8-2.5,1.3-5,2.3-7.4
	c6.8-16.7,26-23.7,42.6-15.7c55.2,26.8,110.5,53.5,165.7,80.3c0.7,0.3,1.4,0.7,2.1,1c0.4-0.5,0.8-0.8,1.1-1.2
	c25-28.8,50.1-57.5,75.1-86.3c27.4-31.5,54.8-62.9,82.2-94.3c3.6-4.1,8-7,13.2-8.6C417.6,153.9,419.6,153.5,421.6,152.9z
	 M112.2,349.4c0.3,1,0.4,1.5,0.6,2.1c29.5,96.5,58.9,193.1,88.3,289.6c0.5,1.7,1.2,2.4,3.2,2.4c147.4-0.1,294.8-0.1,442.2,0
	c2,0,2.6-0.7,3.1-2.4c28.4-93.1,56.8-186.3,85.2-279.4c1.2-4,2.4-8,3.7-12.3c-0.9,0.4-1.6,0.7-2.2,1
	c-41.1,19.9-82.2,39.8-123.2,59.8c-4.3,2.1-8.8,3.4-13.6,3.4c-10.3,0.1-18.5-4.2-25.2-12c-24.9-28.8-50-57.4-75-86.2
	c-21.5-24.7-43.1-49.5-64.6-74.2c-3.1-3.6-6.2-7.1-9.4-10.8c-0.6,0.6-1,1-1.4,1.5c-14.2,16.3-28.3,32.5-42.5,48.8
	c-22.3,25.6-44.5,51.1-66.8,76.7c-13.1,15-26.1,30.1-39.3,45.1c-10,11.3-24.4,14.1-37.9,7.6c-31.2-15.1-62.4-30.3-93.6-45.4
	C133.5,359.7,123,354.6,112.2,349.4z"/>
</svg>
