<?xml version="1.0" encoding="utf-8"?>
<!-- Generator: Adobe Illustrator 21.1.0, SVG Export Plug-In . SVG Version: 6.00 Build 0)  -->
<svg version="1.1" id="レイヤー_1" xmlns="http://www.w3.org/2000/svg" xmlns:xlink="http://www.w3.org/1999/xlink" x="0px"
	 y="0px" viewBox="0 0 850.4 850.4" style="enable-background:new 0 0 850.4 850.4;" xml:space="preserve">
<path d="M220.6,458.6c0-45.4,0-90.7,0-136.1c2-0.1,3.9-0.4,5.9-0.4c36.3,0,72.6,0,108.9,0c1.9,0,3.8-0.2,6.1-0.3c0-2.3,0-4.1,0-6
	c0-30.9,0-61.9,0-92.8c0-18.9,1.6-37.6,6.1-56c11.6-47.5,37.7-83.8,82-106.1c26-13.1,53.9-19.2,82.8-19.5
	c26.8-0.2,53.6,0.9,80.4,1.9c12.4,0.5,24.7,2.2,37,3.3c0,40.8,0,81.5,0,122.3c-1.1-0.1-2.1-0.3-3.2-0.3c-25.1,0-50.3-0.1-75.4,0.2
	c-6.9,0.1-13.8,0.8-20.5,1.9c-23.7,4-37.5,16.8-42.2,39.4c-1.4,6.9-2.1,14-2.1,21c-0.2,28.8-0.1,57.6-0.1,86.4
	c0,1.3,0.1,2.7,0.2,4.7c46.2,0,92.2,0,138.5,0l-0.9,136.5c-40.5,0-97.6,0-137.8,0c0,2.4,0,4.4,0,6.4c0,78.5,0,156.9,0,235.4
	c0,36.2,0,72.3,0.1,108.5c-48.1,0-96.3,0-144.4,0c-0.2-2.1-0.4-4.2-0.4-6.4c0-112.4,0-224.9,0-337.3c0-2.1,0-4.2,0-6.7
	C300.8,458.6,260.7,458.6,220.6,458.6z"/>
</svg>
