<?xml version="1.0" encoding="utf-8"?>
<!-- Generator: Adobe Illustrator 21.1.0, SVG Export Plug-In . SVG Version: 6.00 Build 0)  -->
<svg version="1.1" id="レイヤー_1" xmlns="http://www.w3.org/2000/svg" xmlns:xlink="http://www.w3.org/1999/xlink" x="0px"
	 y="0px" viewBox="0 0 850.4 850.4" style="enable-background:new 0 0 850.4 850.4;" xml:space="preserve">
<g>
	<path d="M788.3,361.2c-5.8,22.7-29.5,30.6-51.1,15.7c-40.2-27.7-85.6-38.7-134.4-35.6c-50.2,3.2-93.8,21.9-131.6,54.9
		c-4.5,3.9-6.8,8-7.7,14.2c-4.4,32.7-18.5,60.9-41.7,84.4c-1.4,1.5-2.9,2.9-4.3,4.4c-0.1,0.1-0.1,0.3-0.2,0.5
		c11.1,5.5,22.4,10.7,33.3,16.6c7.9,4.2,15.4,9.1,22.8,14.1c14.1,9.6,17.6,27.2,8.5,40.7c-9.3,13.6-26.8,17.2-40.9,7.7
		c-25.5-17.3-53-29.6-83.4-35c-69.4-12.4-131.7,4-186.5,48c-31.9,25.5-54.1,58.1-67.8,96.7c-8,22.4,8.7,41,29,40.8
		c82.6-0.6,165.2-0.3,247.8-0.3c15.7,0,27,7.5,31.1,20.6c5.8,18.5-7.7,37.4-27.3,38c-6,0.2-12,0-18.1,0c-78.1,0-156.3,0-234.4,0
		c-42.9,0-77.5-27.5-87.1-69.3c-4.2-18.2-1.4-35.8,5.1-53c29.6-78.1,84.1-131.6,160.6-163.6c1.6-0.7,3.1-1.3,5.1-2.2
		c-37.7-37.8-54.2-82.6-45-135.2c7.3-42.1,29.7-75.2,65.6-98.3c39-25.1,81.3-30.7,125.4-16.9c44,13.8,74.5,43.3,92.6,84.4
		c20.8-11.3,41.4-22.5,62.2-33.7c-0.2-0.2-1.1-1.3-2.2-2.3c-31.4-31.6-46.5-69.7-44.5-114.1c3-68.4,56.4-127.5,124-138.1
		c3.7-0.6,7.4-1.4,11.1-2c9,0,17.9,0,26.8,0c5.5,1,11.1,2,16.6,3.1c99.6,19.6,150.4,135.1,97.1,221.5c-7.4,12-17,22.7-25.5,33.9
		c0.4,0.2,1.8,0.8,3.2,1.5c14.5,7.5,29,14.8,43.3,22.5c10.2,5.4,18.7,12.6,22.3,24.2C788.3,353.6,788.3,357.4,788.3,361.2z
		 M406.4,390.2c-0.1-49.5-40.4-89.9-90-89.9c-49.7,0-90.2,40.6-90.1,90.4c0.1,49.7,40.2,89.6,90,89.6
		C366.5,480.2,406.5,440.2,406.4,390.2z M617.8,101.5c-49.8,0-89.9,40-90,89.7c-0.1,49.8,40.3,90.4,90,90.3
		c49.7,0,90.1-40.6,90-90.4C707.7,141.5,667.5,101.5,617.8,101.5z"/>
	<path d="M788.3,547.1c-3.8,6.6-7.1,13.7-11.5,19.9C731.7,630.1,686.5,693,641.3,756c-28,39.2-80.3,44.1-115.1,10.9
		c-30.2-28.9-60.4-57.8-90.6-86.8c-10.8-10.4-13.1-24.7-6.2-36.6c9.7-16.7,31.6-19.7,46-6.1c23.3,22.2,46.5,44.5,69.7,66.7
		c7,6.7,13.9,13.3,20.9,20c9.7,9.3,20.1,8.4,27.9-2.4c46.9-65.4,93.8-130.8,140.7-196.1c8.3-11.5,21.5-16,34-11.5
		c8.4,3,14.3,8.7,17.6,17c0.6,1.5,1.3,3,2,4.5C788.3,539.5,788.3,543.3,788.3,547.1z"/>
</g>
</svg>
