<?xml version="1.0" encoding="utf-8"?>
<!-- Generator: Adobe Illustrator 21.1.0, SVG Export Plug-In . SVG Version: 6.00 Build 0)  -->
<svg version="1.1" id="レイヤー_1" xmlns="http://www.w3.org/2000/svg" xmlns:xlink="http://www.w3.org/1999/xlink" x="0px"
	 y="0px" viewBox="0 0 850.4 850.4" style="enable-background:new 0 0 850.4 850.4;" xml:space="preserve">
<style type="text/css">
	.st0{fill:#FFFFFF;}
</style>
<path class="st0" d="M-890-386c-3.3,1.4-7.3,2-9.7,4.3c-3.7,3.6-6.3,8.4-9.3,12.7c0-5.7,0-11.3,0-17C-902.7-386-896.3-386-890-386z"
	/>
<path d="M715.4,656.4c0,55.7,0,111.3,0,167c-1,0-2,0-3,0c-194.9,0-389.8,0-584.8,0c-1.1,0-2.2,0-3.3,0c0-55.2,0-110.4,0-165.7
	c0.2-1.2,0.5-2.3,0.6-3.5c0.9-16.9,3.4-33.5,7.2-49.9c22.5-97,92.4-177.1,185.3-212.2c4.3-1.6,8.7-3.2,13.2-4.8
	c-81.8-44.8-116.4-137.5-93.3-220.7c21.6-77.9,91-134.4,171.5-139.2c80.9-4.8,156.1,43.2,186.6,119.5c18,45,19,90.9,2.6,136.6
	c-16.4,45.7-46.8,79.9-89.2,103.8c1.1,0.4,1.8,0.7,2.5,0.9c87.3,30.8,148.2,89.4,183.3,174.8c10.8,26.2,17,53.7,19.4,82
	C714.5,648.8,715,652.6,715.4,656.4z"/>
<path class="st0" d="M-964,778c1.7,0,3.3,0,5,0c296.5,0,593,0,889.5,0c1.5,0,3,0,4.5,0c-0.2,0.3-0.3,0.9-0.5,1c-1.3,0.1-2.7,0-4,0
	c-296.7,0-593.3,0-890,0C-961,778.9-962.5,778.3-964,778z"/>
</svg>
