<?xml version="1.0" encoding="utf-8"?>
<!-- Generator: Adobe Illustrator 21.1.0, SVG Export Plug-In . SVG Version: 6.00 Build 0)  -->
<svg version="1.1" id="レイヤー_1" xmlns="http://www.w3.org/2000/svg" xmlns:xlink="http://www.w3.org/1999/xlink" x="0px"
	 y="0px" viewBox="0 0 850.4 850.4" style="enable-background:new 0 0 850.4 850.4;" xml:space="preserve">
<g>
	<path d="M498.7,78.7c4.2,1.6,7.1,4.8,10,8.1c20.5,23.7,41.1,47.4,61.6,71.1c1.5,1.7,2.5,1.5,4.2,0.7c22.4-11,44.9-21.9,67.3-32.8
		c5.2-2.6,10.3-2.6,14.9,1.2c4.7,3.9,5.8,8.9,4,14.7c-8.9,29.2-17.8,58.4-26.6,87.7c-7.3,24.1-14.7,48.3-22.1,72.4
		c-2.1,7-6.6,10.3-13.8,10.3c-68.4,0-136.8,0-205.1,0c-7.2,0-11.8-3.3-13.9-10.2C363,248.5,346.8,195.2,330.6,142
		c-1.7-5.7-1-10.8,3.7-14.8c4.7-4,9.9-4,15.4-1.3c22.2,10.9,44.5,21.6,66.7,32.6c2.4,1.2,3.5,0.7,5.1-1.2
		c21-24.4,42.1-48.7,63.3-72.9c2-2.3,5-3.8,7.6-5.7C494.5,78.7,496.6,78.7,498.7,78.7z M364,161.8c0.3,1.2,0.4,1.7,0.6,2.2
		c12,39.7,24.1,79.3,36.1,119c0.8,2.5,2,2.8,4.2,2.8c60.5-0.1,120.9-0.1,181.4,0c2.7,0,3.7-0.8,4.5-3.3
		c11.5-38.2,23.2-76.3,34.8-114.5c0.6-1.8,1-3.7,1.7-6.1c-1.5,0.7-2.5,1.1-3.4,1.6c-15.1,7.3-30.2,14.4-45.1,22
		c-11.3,5.8-16.3,3.1-23-4.8c-19.4-22.7-39-45.1-58.5-67.6c-0.4-0.5-1-0.9-1.6-1.5c-0.8,0.9-1.4,1.6-2,2.3
		c-20.2,23.2-40.3,46.4-60.5,69.7c-4.7,5.4-10.4,6.6-16.8,3.6c-3.9-1.9-7.9-3.8-11.8-5.7C391.1,175,377.8,168.6,364,161.8z"/>
	<path d="M263.6,661.3c1.2,0,2.3,0,3.4,0c61.6,0,123.2,0,184.9-0.1c3.5,0,7.1-0.5,10.4-1.4c3.4-0.9,5.1-3.5,5.3-7.2
		c0.5-16.5,9.2-28.5,24.7-34.5c0.9-0.3,1.9-1.5,2.1-2.5c9.5-61,37.6-111.7,84.1-152.2c0.5-0.4,1-0.7,2-1.3
		c-16.5-9.1-28.4-22.4-40.7-35.6c-7.8,6.1-15.5,12.2-23.2,18.2c-37,28.5-74.6,56.1-114.9,79.8c-19.8,11.7-40.5,21.3-61.7,29.9
		c-30.2,12.3-66.4,4.3-88.9-19.4c-1.6-1.7-3-2.2-5.3-1.5c-13.2,3.8-26.4,7.4-39.7,10.8c-8.6,2.2-16.1-5.3-13.9-13.5
		c0.8-3.1,3-5.1,5.8-6.1c4-1.4,8.1-2.4,12.3-3.4c19.4-4.6,38-11.4,56.5-18.7c11.6-4.6,23.7-7.9,35.1-12.9
		c25.1-11.1,48.2-25.8,71.1-40.9c48.6-32.1,95.2-67.1,140.8-103.4c12.7-10.1,25.5-10.7,38.3-0.7c18.8,14.7,27.9,34.1,25.7,58.1
		c-0.7,8.2-2.5,16.2-4,24.3c-0.4,2,0.1,3,1.5,4.2c15.1,13.3,32.5,21.7,52.3,24.6c28.8,4.3,55.1-1.9,78.3-19.5
		c5.7-4.4,10.6-9.9,15.5-15.4c13.4-15.1,34.9-13.4,45.3,3.9c5.1,8.4,7.2,17.8,9.5,27.3c3.9,16.1,8.1,32,11.9,48.1
		c2.7,11.8,4.8,23.7,4.1,35.9c-0.2,3.8-1,7.6-2.3,11.2c-1.6,4.7-5.4,6.8-9.9,6.6c-4.8-0.2-8.1-2.7-9.5-7.6c-0.7-2.3-1.3-4.7-1.2-7
		c0.3-22.1-4.2-43.4-10.3-64.5c-3.5-12.3-6.9-24.6-10.3-36.9c-0.7-2.5-1.6-4.6-4.3-5.2c-2.8-0.7-4.8,0.6-6.5,2.7
		c-13.5,17.2-31,28.8-51.5,36.1c-26.9,9.6-54,10-81.2,1.4c-2.2-0.7-3.6-0.4-5.3,1c-43.4,35.2-71,79.9-81.8,134.8
		c-0.4,2.2-0.8,4.5-1.3,7c84.3,0,168.3,0,252.7,0c0-5,0-10,0-15c0-2.5-0.1-5,0.1-7.5c0.4-7.2,6-11,12.9-9c4.9,1.5,8.6,5.7,9,10.8
		c0.4,4.5,0.6,8.9,0.6,13.4c-0.1,18.7-0.4,37.3-0.5,56c-0.1,37.8-27.7,69.1-65.2,73.8c-3.1,0.4-6.2,0.6-9.4,0.6
		c-86.2,0.1-172.4,0.1-258.7,0.1c-2.9,0-5.9-0.4-8.6-1.2c-5.4-1.7-8-6.1-7.3-11.3c0.7-4.8,5.4-9.1,11.2-9.2
		c17.4-0.5,34.8-0.9,52.2-0.9c11.8,0,23.5,0.6,35.2,0.9c1.4-4.8,2.4-9.4,4.2-13.7c10.8-25.9,30.2-40.8,58.1-44.6
		c3.6-0.5,7.3-0.6,10.9-0.6c50.4,0,100.7,0,151.1,0c1.2,0,2.5,0,4,0c0-6.9,0-13.6,0-20.7c-1.2,0-2.3,0-3.4,0
		c-86.6,0-173.3,0-259.9,0c-10.1,0-15.5,5.1-16.1,15c-1,15.9-11.2,27-27.3,29.4c-3.7,0.6-7.5,0.8-11.2,0.8
		c-108.7,0-217.5,0.1-326.2,0c-26.3,0-45.2-12.2-56.6-35.9c-0.9-1.8-2.3-3.2-3.5-4.8c-0.3,0.1-0.5,0.2-0.8,0.3
		c-0.1,0.6-0.2,1.3-0.2,1.9c-1.4,15.3,6.1,27,15.4,37.8c16.6,19.3,37.7,30.5,62.9,33.8c8.4,1.1,17,1.2,25.6,1.2
		c77.3,0.1,154.5,0,231.8,0c7.4,0,12,4.8,11.6,12c-0.2,3.8-2.1,6.7-5.6,7.9c-3.1,1.1-6.4,1.9-9.7,1.9c-19.6,0.1-39.2,0-58.8,0
		c-60.8,0-121.6,0.7-182.3-0.2c-51.1-0.8-88.2-25-110.3-71.5c-1.4-3-1.6-6.6-1.9-10c-0.7-9.8-1.4-19.5-1.7-29.3
		c-1.1-34.8,20.7-66.7,52.1-80.2c10.5-4.5,21.8-6.2,32.8-8.7c7.6-1.7,15.2-3.3,22.9-4.8c5-1,9.4-0.2,12.6,4.1
		c4.6,6.1,1.4,14.9-6.2,16.8c-4.8,1.2-9.8,2-14.6,3.2c-0.8,0.2-1.9,1.5-1.9,2.3c-1.2,21,12.4,37.6,33.1,40.9
		c15.2,2.5,30.4,5,45.4,8.1c23.8,4.9,42.2,24.7,46,48.7C263,659.4,263.3,660.2,263.6,661.3z M115.4,563.9c-28.1,4.3-50,30-51.9,55.4
		c2,0.6,4.1,1.2,6.2,1.9c8.6,2.9,15,8.3,18.8,16.6c7.1,15.6,19.3,23.5,36.5,23.5c37.5,0,75,0,112.6,0c1.1,0,2.2,0,3.3,0
		c-2.7-15.1-14.2-27.3-29-30.2c-15.2-3-30.5-5.3-45.7-8.2c-23.4-4.6-39.4-18.1-47.1-40.7C117.1,576.3,116.6,570,115.4,563.9z
		 M563.9,717.4c1.6,0,2.7,0,3.9,0c14.5,0,29,0,43.5,0c34.8,0,69.6,0.2,104.4-0.1c22.5-0.2,39.1-10.6,49.1-31c0.5-1,0.8-2,1.2-3.2
		c-0.9-0.1-1.5-0.2-2-0.2c-51-0.8-101.9-1.7-152.9-2.4c-10.5-0.2-20.1,3-28.6,9.2C573.2,696.5,566.9,705.5,563.9,717.4z
		 M464.1,409.2c0,0.4,0,0.7,0,1.1c3.6,0,7.3-0.2,10.9,0c6.5,0.4,10.8,5.2,10.6,11.5c-0.2,5.7-5.1,10.2-11.3,10.2
		c-2.7,0-5.4-0.2-8.1-0.3c-7.2-0.3-14.5-0.7-21.8-1c-0.9,8.7-1.5,17-2.7,25.2c-0.3,2.3-1.9,4.9-3.7,6.6c-3.4,3.2-7.7,3.7-11.9,1.7
		c-4.2-2-6.4-5.6-6.2-10.3c0.1-3,0.5-6,0.7-9.3c-13.8,9.5-27.2,18.7-40.8,28.1c1.8,0.4,3.4,0.6,4.9,1c6.6,1.5,10.6,7.1,9.2,13
		c-1.4,6.1-7.4,9.6-14,8.3c-7-1.4-14.1-2.7-21.3-4.1c-0.3,1.2-0.6,2.3-0.8,3.4c-1.4,7-2.7,14.1-4.3,21.1c-1.2,5.2-5.8,8.4-11.1,8.3
		c-5.3-0.2-9.6-3.7-10.4-9c-0.3-2.2,0.2-4.5,0.5-6.7c0.5-3.1,1.1-6.2,1.6-9.1c-20.8,8.9-41.3,17.7-61.6,26.5
		c14.2,12.9,38.9,17,58.5,9.1c18.9-7.7,37.4-16.1,55.1-26.3c31.8-18.3,61.8-39.4,91.2-61.3c15.5-11.6,30.8-23.5,46.2-35.3
		C508.3,397.9,480,397.1,464.1,409.2z M505.3,378.6c12.5,2.4,23.1,7.1,32.2,14.8c5.2,4.4,9.8,9.6,14.7,14.4c0.8,0.8,1.5,1.5,2.7,2.6
		c3.9-19.8-1.1-35.8-16.1-48.6c-2.7-2.3-5.9-3.2-8.9-1.1C521.8,366.3,513.9,372.2,505.3,378.6z"/>
</g>
</svg>
