<svg xmlns="http://www.w3.org/2000/svg" viewBox="0 0 258.56 79.97"><defs><style>.cls-1{fill:#fff;}</style></defs><title>f_logo</title><g id="レイヤー_2" data-name="レイヤー 2"><g id="レイヤー_1-2" data-name="レイヤー 1"><rect class="cls-1" width="14.99" height="61.53"/><polygon class="cls-1" points="49.23 13.55 49.23 61.53 35.23 61.53 35.23 13.55 21.09 13.55 21.09 0 63.37 0 63.37 13.55 49.23 13.55"/><path class="cls-1" d="M69.49,24.6V17.76A15.37,15.37,0,0,1,71,11a18.14,18.14,0,0,1,4.17-5.58,20.46,20.46,0,0,1,6.12-3.78A19.73,19.73,0,0,1,88.71.19a20.11,20.11,0,0,1,7.38,1.37,19.78,19.78,0,0,1,6.12,3.74,17.94,17.94,0,0,1,4.18,5.58,15.65,15.65,0,0,1,1.55,6.88v1.65h-13V17.76a6.75,6.75,0,0,0-.46-2.49,7.29,7.29,0,0,0-1.3-2.12,6.64,6.64,0,0,0-1.94-1.51,5.31,5.31,0,0,0-2.49-.58,5.63,5.63,0,0,0-4.43,2,6.9,6.9,0,0,0-1.76,4.68V24.6H90V35.47H82.52V61.53h-13V35.47H64.81V24.6Zm38.45,36.93h-13V24.6h13Z"/><path class="cls-1" d="M116.86,24.6h13v4.68a14.25,14.25,0,0,1,5.41-4.36,16.94,16.94,0,0,1,6.4-1.12,16.15,16.15,0,0,1,6.66,1.26,13.4,13.4,0,0,1,4.72,3.57,10.42,10.42,0,0,1,2.16,4.17,22,22,0,0,1,.57,5.26V61.53h-13V42.88a20.27,20.27,0,0,0-.39-4.42,5.54,5.54,0,0,0-1.41-2.7A4.85,4.85,0,0,0,139,34.53a7.26,7.26,0,0,0-2.31-.36,6.43,6.43,0,0,0-5.07,2,8.21,8.21,0,0,0-1.77,5.65V61.53h-13Z"/><path class="cls-1" d="M163.8,10.41a7.14,7.14,0,0,1,.58-2.84A7.38,7.38,0,0,1,166,5.23a7.82,7.82,0,0,1,2.34-1.59,7.18,7.18,0,0,1,2.85-.57,7.1,7.1,0,0,1,2.84.57,7.58,7.58,0,0,1,2.34,1.59,7.41,7.41,0,0,1,1.59,2.34,7.39,7.39,0,0,1,0,5.69,7.52,7.52,0,0,1-1.59,2.34A7.38,7.38,0,0,1,174,17.18a6.94,6.94,0,0,1-2.84.58,7,7,0,0,1-2.85-.58A7.61,7.61,0,0,1,166,15.6a7.49,7.49,0,0,1-1.58-2.34,7.19,7.19,0,0,1-.58-2.85m13.9,51.12h-13V24.6h13Z"/><polygon class="cls-1" points="201.17 35.47 201.17 61.53 188.14 61.53 188.14 35.47 183.82 35.47 183.82 24.6 188.14 24.6 188.14 13.51 201.17 13.51 201.17 24.6 208.59 24.6 208.59 35.47 201.17 35.47"/><polygon class="cls-1" points="226.88 56.49 209.02 24.6 224.14 24.6 234 43.53 243.58 24.6 258.56 24.6 228.89 79.97 214.28 79.97 226.88 56.49"/></g></g></svg>