<svg id="b" xmlns="http://www.w3.org/2000/svg" width="670.363" height="474.717" viewBox="0 0 670.363 474.717">
  <g id="c">
    <g id="グループ_520" data-name="グループ 520">
      <rect id="長方形_524" data-name="長方形 524" width="670.364" height="64.04" transform="translate(0 410.677)" fill="#2b2b2b"/>
      <circle id="楕円形_43" data-name="楕円形 43" cx="66.646" cy="66.646" r="66.646" transform="translate(388.796 0)" fill="#2b2b2b"/>
      <path id="パス_285" data-name="パス 285" d="M415.869,376.883H568.951V256.553a99.228,99.228,0,0,0-86.1-98.348l-27.412,73.812L428.029,158.2a99.228,99.228,0,0,0-86.1,98.348v20.076l73.938,25.145v75.109Z" fill="#2b2b2b"/>
      <path id="パス_286" data-name="パス 286" d="M390.467,319.967,272.95,280V182.936H193.5V158.973h52.447A13.972,13.972,0,0,0,259.919,145V82.814a13.972,13.972,0,0,0-13.972-13.972H102.053A13.972,13.972,0,0,0,88.081,82.814V145a13.972,13.972,0,0,0,13.972,13.972H154.5v23.963H75.051V376.883H390.467V319.967ZM116.025,96.787h115.95V131.03H116.025Z" fill="#2b2b2b"/>
    </g>
  </g>
</svg>
