<svg width="12" height="10" viewBox="0 0 12 10" fill="none" xmlns="http://www.w3.org/2000/svg">
<path d="M3.21094 0.179688C3.28125 0.179688 3.35156 0.179688 3.42188 0.179688C3.49219 0.179688 3.5625 0.179688 3.63281 0.179688C3.64062 0.179688 3.64844 0.179688 3.65625 0.179688C3.66406 0.179688 3.67188 0.183594 3.67969 0.191406C3.72656 0.191406 3.77344 0.195312 3.82031 0.203125C3.86719 0.210938 3.91797 0.21875 3.97266 0.226562C4.40234 0.3125 4.78516 0.46875 5.12109 0.695312C5.46484 0.921875 5.75781 1.21875 6 1.58594C6.00781 1.59375 6.01172 1.60156 6.01172 1.60938C6.01953 1.61719 6.02734 1.625 6.03516 1.63281C6.04297 1.625 6.04688 1.61719 6.04688 1.60938C6.05469 1.60156 6.0625 1.59375 6.07031 1.58594C6.14844 1.46094 6.23828 1.33984 6.33984 1.22266C6.44922 1.10547 6.5625 0.996094 6.67969 0.894531C6.90625 0.707031 7.14453 0.558594 7.39453 0.449219C7.65234 0.332031 7.92188 0.25 8.20312 0.203125C8.24219 0.203125 8.28125 0.199219 8.32031 0.191406C8.35938 0.183594 8.39844 0.179688 8.4375 0.179688C8.50781 0.179688 8.57812 0.179688 8.64844 0.179688C8.71875 0.179688 8.78906 0.179688 8.85938 0.179688C8.86719 0.179688 8.875 0.179688 8.88281 0.179688C8.89062 0.179688 8.89844 0.183594 8.90625 0.191406C8.96875 0.199219 9.02734 0.207031 9.08203 0.214844C9.14453 0.214844 9.20703 0.222656 9.26953 0.238281C9.60547 0.308594 9.91406 0.425781 10.1953 0.589844C10.4844 0.753906 10.7422 0.964844 10.9688 1.22266C11.1562 1.44141 11.3086 1.67578 11.4258 1.92578C11.5508 2.17578 11.6367 2.44141 11.6836 2.72266C11.6914 2.76953 11.6953 2.82031 11.6953 2.875C11.7031 2.92969 11.7109 2.98047 11.7188 3.02734C11.7188 3.09766 11.7188 3.16797 11.7188 3.23828C11.7188 3.30859 11.7188 3.37891 11.7188 3.44922C11.7188 3.47266 11.7148 3.5 11.707 3.53125C11.707 3.55469 11.707 3.57812 11.707 3.60156C11.6758 3.84375 11.6172 4.07812 11.5312 4.30469C11.4453 4.53125 11.332 4.74609 11.1914 4.94922C11.1133 5.06641 11.0273 5.17578 10.9336 5.27734C10.8398 5.37891 10.7422 5.47656 10.6406 5.57031C10.2891 5.92188 9.9375 6.27344 9.58594 6.625C9.23438 6.97656 8.87891 7.32812 8.51953 7.67969C8.16797 8.03125 7.81641 8.38281 7.46484 8.73438C7.11328 9.08594 6.76172 9.4375 6.41016 9.78906C6.36328 9.83594 6.31641 9.87891 6.26953 9.91797C6.23047 9.95703 6.17969 9.98438 6.11719 10C6.08594 10 6.05859 10 6.03516 10C6.01172 10 5.98828 10 5.96484 10C5.90234 9.97656 5.84766 9.94922 5.80078 9.91797C5.75391 9.87891 5.70703 9.83594 5.66016 9.78906C5.30859 9.4375 4.95703 9.08594 4.60547 8.73438C4.25391 8.39062 3.90234 8.04297 3.55078 7.69141C3.19922 7.33984 2.84766 6.98828 2.49609 6.63672C2.15234 6.28516 1.80469 5.9375 1.45312 5.59375C1.42969 5.57031 1.41016 5.55078 1.39453 5.53516C1.37891 5.51953 1.36328 5.50391 1.34766 5.48828C1.08984 5.25391 0.878906 4.99219 0.714844 4.70312C0.558594 4.41406 0.449219 4.09766 0.386719 3.75391C0.378906 3.69922 0.371094 3.64844 0.363281 3.60156C0.363281 3.54688 0.359375 3.49219 0.351562 3.4375C0.351562 3.36719 0.351562 3.30078 0.351562 3.23828C0.351562 3.16797 0.351562 3.09766 0.351562 3.02734C0.351562 3.01953 0.351562 3.01172 0.351562 3.00391C0.359375 2.99609 0.363281 2.98828 0.363281 2.98047C0.371094 2.93359 0.375 2.88672 0.375 2.83984C0.382812 2.78516 0.390625 2.73438 0.398438 2.6875C0.453125 2.39062 0.546875 2.11328 0.679688 1.85547C0.8125 1.58984 0.980469 1.34766 1.18359 1.12891C1.41797 0.886719 1.67578 0.691406 1.95703 0.542969C2.24609 0.386719 2.55859 0.277344 2.89453 0.214844C2.94922 0.207031 3.00391 0.203125 3.05859 0.203125C3.11328 0.195312 3.16406 0.1875 3.21094 0.179688Z" fill="#D82424"/>
</svg>
