<svg xmlns="http://www.w3.org/2000/svg" width="87.368" height="92.636" viewBox="0 0 87.368 92.636">
  <g id="グループ_41" data-name="グループ 41" transform="translate(-140 -4806)">
    <path id="パス_1" data-name="パス 1" d="M-56-.821H31.368L-56,91.814Z" transform="translate(196 4806.821)" fill="#4b4b4b"/>
    <path id="パス_24" data-name="パス 24" d="M1.807,0V-16.1l11,11.5V-15.078h2.275v16l-11-11.475V0ZM27.158-4.238H20.342A2.888,2.888,0,0,0,21.1-2.373a2.322,2.322,0,0,0,1.729.684,2.248,2.248,0,0,0,1.357-.391,5.558,5.558,0,0,0,1.2-1.445L27.246-2.49a7.381,7.381,0,0,1-.908,1.255,4.829,4.829,0,0,1-1.025.859,4.112,4.112,0,0,1-1.182.493,5.752,5.752,0,0,1-1.377.156,4.477,4.477,0,0,1-3.418-1.367,5.128,5.128,0,0,1-1.289-3.652A5.27,5.27,0,0,1,19.3-8.4a4.309,4.309,0,0,1,3.34-1.377,4.272,4.272,0,0,1,3.32,1.338,5.263,5.263,0,0,1,1.211,3.682ZM24.9-6.035a2.1,2.1,0,0,0-2.217-1.758,2.277,2.277,0,0,0-.752.122,2.151,2.151,0,0,0-.64.352,2.229,2.229,0,0,0-.493.552,2.564,2.564,0,0,0-.312.732Zm5.547-3.477,2.49,5.43,2.686-6.3,2.705,6.3,2.461-5.43h2.461L38.271.713,35.625-5.41,32.949.713,27.979-9.512Z" transform="matrix(0.695, -0.719, 0.719, 0.695, 162.019, 4855.722)" fill="#fff"/>
  </g>
</svg>
