<svg xmlns="http://www.w3.org/2000/svg" width="3.586" height="7.896" viewBox="0 0 3.586 7.896">
  <g id="グループ_51" data-name="グループ 51" transform="translate(-198 -410)">
    <path id="線_17" data-name="線 17" d="M2.586,3.948a.5.5,0,0,1-.4-.2L-.4.3A.5.5,0,0,1-.3-.4a.5.5,0,0,1,.7.1L2.986,3.148a.5.5,0,0,1-.4.8Z" transform="translate(198.5 410.5)" fill="#888"/>
    <path id="線_18" data-name="線 18" d="M0,3.948a.5.5,0,0,1-.3-.1.5.5,0,0,1-.1-.7L2.186-.3a.5.5,0,0,1,.7-.1.5.5,0,0,1,.1.7L.4,3.748A.5.5,0,0,1,0,3.948Z" transform="translate(198.5 413.948)" fill="#888"/>
  </g>
</svg>
