<svg xmlns="http://www.w3.org/2000/svg" xmlns:xlink="http://www.w3.org/1999/xlink" width="23" height="23" viewBox="0 0 23 23">
  <defs>
    <clipPath id="clip-アートボード_11">
      <rect width="23" height="23"/>
    </clipPath>
  </defs>
  <g id="アートボード_11" data-name="アートボード – 11" clip-path="url(#clip-アートボード_11)">
    <g id="Page-1" transform="translate(0 2.472)">
      <g id="index" transform="translate(0 0.882)">
        <g id="Group-16">
          <g id="Group-12" transform="translate(0 0)">
            <g id="icon_youtube" transform="translate(0 0)">
              <path id="Shape" d="M11.646,17.174c-2.584-.082-5.042-.146-7.5-.242A8.45,8.45,0,0,1,2.562,16.7,2.635,2.635,0,0,1,.58,14.925a9.533,9.533,0,0,1-.448-2.386A46.411,46.411,0,0,1,.05,6.818,14.393,14.393,0,0,1,.408,3.611,3.311,3.311,0,0,1,1.29,1.923a2.921,2.921,0,0,1,1.856-.8c1.937-.1,3.87-.214,5.807-.233C11.56.864,14.172.9,16.779.951a31.016,31.016,0,0,1,3.381.228,2.635,2.635,0,0,1,2.2,1.715,8.071,8.071,0,0,1,.5,2.4,46.063,46.063,0,0,1,.081,6.173,13.378,13.378,0,0,1-.394,3.111,2.875,2.875,0,0,1-2.231,2.2,8.159,8.159,0,0,1-1.412.155C16.435,17.023,13.977,17.1,11.646,17.174Zm-2.5-5.187c2.064-1.077,4.105-2.144,6.187-3.235-2.078-1.095-4.119-2.167-6.187-3.257Z" transform="translate(0 -0.882)"/>
            </g>
          </g>
        </g>
      </g>
    </g>
  </g>
</svg>
