<svg xmlns="http://www.w3.org/2000/svg" width="4.918" height="11.448" viewBox="0 0 4.918 11.448">
  <g id="グループ_64" data-name="グループ 64" transform="translate(-198 -410)">
    <path id="線_17" data-name="線 17" d="M3.918,5.724a.5.5,0,0,1-.4-.2L-.4.3A.5.5,0,0,1-.3-.4a.5.5,0,0,1,.7.1L4.318,4.924a.5.5,0,0,1-.4.8Z" transform="translate(198.5 410.5)"/>
    <path id="線_18" data-name="線 18" d="M0,5.724a.5.5,0,0,1-.3-.1.5.5,0,0,1-.1-.7L3.518-.3a.5.5,0,0,1,.7-.1.5.5,0,0,1,.1.7L.4,5.524A.5.5,0,0,1,0,5.724Z" transform="translate(198.5 415.724)"/>
  </g>
</svg>
