<svg xmlns="http://www.w3.org/2000/svg" xmlns:xlink="http://www.w3.org/1999/xlink" width="23" height="23" viewBox="0 0 23 23">
  <defs>
    <clipPath id="clip-アートボード_8">
      <rect width="23" height="23"/>
    </clipPath>
  </defs>
  <g id="アートボード_8" data-name="アートボード – 8" clip-path="url(#clip-アートボード_8)">
    <g id="Page-1">
      <g id="index" transform="translate(0)">
        <g id="Group-16">
          <g id="Group-12">
            <g id="icon_fb">
              <path id="Shape" d="M11.5,0A11.5,11.5,0,1,0,23,11.5,11.5,11.5,0,0,0,11.5,0ZM9.771,18.508V12.122h0v-.007H7.622V9.624H9.771V7.788a3.83,3.83,0,0,1,.357-1.7c.009-.019.021-.037.031-.056.037-.071.075-.141.117-.207.02-.032.043-.061.064-.092.036-.052.071-.1.11-.154.024-.03.05-.057.075-.086.041-.048.082-.1.127-.14.02-.019.041-.037.061-.056.054-.051.109-.1.168-.148l.021-.016a3.331,3.331,0,0,1,2.076-.638,17,17,0,0,1,1.923.1V6.821H13.581c-1.035,0-1.236.492-1.236,1.211V9.617h0v.007H14.81l-.32,2.49H12.344v6.393H9.771Z"/>
            </g>
          </g>
        </g>
      </g>
    </g>
  </g>
</svg>
