<svg width="501" height="488" viewBox="0 0 501 488" fill="none" xmlns="http://www.w3.org/2000/svg">
<path d="M0.00012207 487.247L7.94739e-05 0.00025735L500.179 0.000213623L0.00012207 487.247Z" fill="#A17605"/>
<path d="M239.148 92.7124C237.199 92.7117 235.286 93.2435 233.617 94.2505C231.949 95.2574 230.586 96.7012 229.678 98.4259C228.77 100.151 228.351 102.091 228.465 104.036C228.579 105.982 229.222 107.86 230.326 109.467L190.854 135.929L154.363 89.4598C156.595 88.4548 158.415 86.7149 159.52 84.5303C160.624 82.3456 160.946 79.8483 160.432 77.4549C159.918 75.0614 158.6 72.9165 156.695 71.3779C154.791 69.8393 152.417 69 149.969 69C147.521 69 145.147 69.8393 143.243 71.3779C141.339 72.9165 140.02 75.0614 139.506 77.4549C138.992 79.8483 139.315 82.3456 140.419 84.5303C141.524 86.7149 143.344 88.4548 145.576 89.4598L109.084 135.929L69.6128 109.467C71.0761 107.346 71.7296 104.77 71.4545 102.208C71.1793 99.6464 69.9938 97.2683 68.1136 95.5066C66.2333 93.7449 63.7832 92.7165 61.2089 92.6085C58.6345 92.5005 56.1069 93.3201 54.0857 94.9181C52.0646 96.5162 50.6841 98.7866 50.1953 101.316C49.7066 103.846 50.1421 106.468 51.4226 108.703C52.7031 110.939 54.7435 112.641 57.1729 113.5C59.6022 114.359 62.259 114.317 64.6602 113.382L101.401 206.725H198.538L235.278 113.383C236.743 113.952 238.316 114.191 239.884 114.083C241.453 113.975 242.978 113.523 244.352 112.759C245.725 111.995 246.914 110.938 247.832 109.662C248.751 108.386 249.377 106.924 249.666 105.379C249.956 103.834 249.901 102.244 249.506 100.722C249.111 99.2009 248.386 97.7851 247.381 96.5758C246.377 95.3665 245.119 94.3933 243.696 93.7256C242.273 93.0578 240.72 92.7119 239.148 92.7124V92.7124ZM188.072 191.358H111.867L93.1174 143.726L112.366 156.632L149.969 108.745L187.572 156.631L206.821 143.726L188.072 191.358Z" fill="black"/>
<path d="M198.812 216.834H101.127V231.885H198.812V216.834Z" fill="black"/>
</svg>
