<svg xmlns="http://www.w3.org/2000/svg" xmlns:xlink="http://www.w3.org/1999/xlink" width="1280" height="800" viewBox="0 0 1280 800">
  <defs>
    <clipPath id="clip-path">
      <rect id="長方形_299" data-name="長方形 299" width="1280" height="800" transform="translate(-5909 12)" fill="#fff" stroke="#707070" stroke-width="1"/>
    </clipPath>
  </defs>
  <g id="マスクグループ_31" data-name="マスクグループ 31" transform="translate(5909 -12)" clip-path="url(#clip-path)">
    <g id="グループ_462" data-name="グループ 462" transform="translate(-5915 -129)">
      <path id="パス_197" data-name="パス 197" d="M51.492,52.368H41.58v4.7Zm-.168,25.368a67.579,67.579,0,0,1-9.744-20.58v.168q0,17.22-5.88,28.98A51.9,51.9,0,0,0,51.324,77.736Zm8.316-9.744a51.433,51.433,0,0,0,5.8-15.624H52.584A53.467,53.467,0,0,0,59.64,67.992Zm20.58-44.6v10.92H41.58v7.56H77.7v10.5q-3.108,15.288-9.828,25.2A54.014,54.014,0,0,0,82.4,86.64l-5.88,11.172A55.652,55.652,0,0,1,59.472,86.976,63.58,63.58,0,0,1,40.236,97.812L35.2,87.4a57.1,57.1,0,0,1-6.888,10L22.176,89.16v8.988H9.408V64.3a46.073,46.073,0,0,1-4.956,6.636L1.008,55.392q10.92-14.028,15.036-34.356l12.348,2.856a96.533,96.533,0,0,1-6.216,21.924V82.44A42.773,42.773,0,0,0,27.426,68.5q1.386-7.392,1.386-21V23.388ZM48.468,181.432q17.892-2.52,17.892-21.672a20.37,20.37,0,0,0-4.494-13.314,19.581,19.581,0,0,0-11.8-6.93,237.884,237.884,0,0,1-4.914,26.25q-2.73,10.542-6.132,16.128t-6.93,7.77a15.16,15.16,0,0,1-8.148,2.184q-7.14,0-13.146-8.064T4.788,164.128q0-16.548,11.172-26.922t29.4-10.374q14.7,0,24.276,9.282t9.576,23.646q0,14.952-7.56,23.856t-20.412,10ZM36.54,140.02a24.382,24.382,0,0,0-13.9,8.568,24.439,24.439,0,0,0-5,15.54,23.03,23.03,0,0,0,2.226,10.206q2.226,4.578,4.074,4.578A3.1,3.1,0,0,0,26,177.736a15.65,15.65,0,0,0,2.478-4.032,53.785,53.785,0,0,0,2.646-7.14q1.3-4.284,2.73-11.13T36.54,140.02ZM15.372,239.012v-12.18H68.628v12.18Zm-9.912,10.5H78.54v12.18H51.828q0,14.028-7.56,22.3t-23.352,11.3l-3.948-12.18q11.256-2.436,15.918-7.308t4.662-14.112H5.46Zm26.208,74.632,14.28-1.092,1.176,13.524,26.292-.924.42,12.18-25.62.924,1.344,15.456,27.216-.924.42,12.18-26.544.924,1.68,18.984-14.28,1.092L36.372,376.9,7.224,377.9l-.42-12.18,28.476-1.008L33.852,349.26l-23.268.756-.42-12.18,22.6-.756ZM14.7,440.272v-12.6H69.3v12.6a98.776,98.776,0,0,1-15.288,23.184q11.172,9.912,22.68,21l-9.324,9.24Q54.6,481.264,44.94,472.7a121.377,121.377,0,0,1-31.668,20.748L7.224,482.356q31.92-15.456,46.788-42.084Zm3.192,84.46h14.28v23.184a430.858,430.858,0,0,1,45.192,13.692L73,574.46q-21.252-7.644-40.824-12.6v32.928H17.892Zm33.6,127.636H41.58v4.7Zm-.168,25.368a67.579,67.579,0,0,1-9.744-20.58v.168q0,17.22-5.88,28.98A51.9,51.9,0,0,0,51.324,677.736Zm8.316-9.744a51.433,51.433,0,0,0,5.8-15.624H52.584A53.468,53.468,0,0,0,59.64,667.992Zm20.58-44.6v10.92H41.58v7.56H77.7v10.5q-3.108,15.288-9.828,25.2A54.015,54.015,0,0,0,82.4,686.64l-5.88,11.172a55.653,55.653,0,0,1-17.052-10.836,63.582,63.582,0,0,1-19.236,10.836L35.2,687.4a57.1,57.1,0,0,1-6.888,10l-6.132-8.232v8.988H9.408V664.3a46.071,46.071,0,0,1-4.956,6.636l-3.444-15.54q10.92-14.028,15.036-34.356l12.348,2.856a96.533,96.533,0,0,1-6.216,21.924V682.44a42.772,42.772,0,0,0,5.25-13.944q1.386-7.392,1.386-21V623.388Z" transform="translate(18 222)" fill="#eaeaea"/>
      <path id="パス_196" data-name="パス 196" d="M45.975,47.4h-8.85v4.2Zm-.15,22.65a60.338,60.338,0,0,1-8.7-18.375v.15q0,15.375-5.25,25.875A46.339,46.339,0,0,0,45.825,70.05Zm7.425-8.7A45.922,45.922,0,0,0,58.425,47.4H46.95A47.739,47.739,0,0,0,53.25,61.35ZM71.625,21.525v9.75h-34.5v6.75h32.25V47.4Q66.6,61.05,60.6,69.9A48.227,48.227,0,0,0,73.575,78l-5.25,9.975A49.69,49.69,0,0,1,53.1,78.3a56.768,56.768,0,0,1-17.175,9.675l-4.5-9.3a50.983,50.983,0,0,1-6.15,8.925L19.8,80.25v8.025H8.4V58.05a41.136,41.136,0,0,1-4.425,5.925L.9,50.1q9.75-12.525,13.425-30.675l11.025,2.55A86.19,86.19,0,0,1,19.8,41.55v32.7A38.19,38.19,0,0,0,24.487,61.8a108.2,108.2,0,0,0,1.238-18.75V21.525ZM43.275,160.35Q59.25,158.1,59.25,141a18.188,18.188,0,0,0-4.012-11.887A17.483,17.483,0,0,0,44.7,122.925a212.4,212.4,0,0,1-4.388,23.438q-2.437,9.412-5.475,14.4T28.65,167.7a13.536,13.536,0,0,1-7.275,1.95q-6.375,0-11.738-7.2T4.275,144.9q0-14.775,9.975-24.037T40.5,111.6q13.125,0,21.675,8.287T70.725,141q0,13.35-6.75,21.3T45.75,171.225Zm-10.65-36.975a21.77,21.77,0,0,0-12.413,7.65A21.82,21.82,0,0,0,15.75,144.9a20.563,20.563,0,0,0,1.988,9.113q1.988,4.088,3.638,4.088a2.772,2.772,0,0,0,1.838-1.05,13.973,13.973,0,0,0,2.212-3.6,48.022,48.022,0,0,0,2.363-6.375q1.162-3.825,2.438-9.937T32.625,123.375Zm-18.9,86.1V198.6h47.55v10.875Zm-8.85,9.375h65.25v10.875H46.275q0,12.525-6.75,19.912t-20.85,10.088L15.15,248.85q10.05-2.175,14.212-6.525t4.163-12.6H4.875Zm23.4,64.35,12.75-.975,1.05,12.075,23.475-.825.375,10.875-22.875.825,1.2,13.8,24.3-.825.375,10.875-23.7.825,1.5,16.95-12.75.975-1.5-17.475-26.025.9-.375-10.875,25.425-.9-1.275-13.8L9.45,306.3l-.375-10.875,20.175-.675ZM13.125,384.6V373.35h48.75V384.6a88.193,88.193,0,0,1-13.65,20.7q9.975,8.85,20.25,18.75L60.15,432.3q-11.4-11.1-20.025-18.75A108.373,108.373,0,0,1,11.85,432.075l-5.4-9.9q28.5-13.8,41.775-37.575Zm2.85,73.125h12.75v20.7a384.689,384.689,0,0,1,40.35,12.225l-3.9,11.475Q46.2,495.3,28.725,490.875v29.4H15.975Zm-2.25,99.75V546.6h47.55v10.875Zm-8.85,9.375h65.25v10.875H46.275q0,12.525-6.75,19.913t-20.85,10.087L15.15,596.85q10.05-2.175,14.212-6.525t4.163-12.6H4.875Zm23.4,64.35,12.75-.975,1.05,12.075,23.475-.825.375,10.875-22.875.825,1.2,13.8,24.3-.825.375,10.875-23.7.825,1.5,16.95-12.75.975-1.5-17.475-26.025.9-.375-10.875,25.425-.9-1.275-13.8L9.45,654.3l-.375-10.875,20.175-.675ZM13.125,732.6V721.35h48.75V732.6a88.192,88.192,0,0,1-13.65,20.7q9.975,8.85,20.25,18.75L60.15,780.3q-11.4-11.1-20.025-18.75A108.372,108.372,0,0,1,11.85,780.075l-5.4-9.9q28.5-13.8,41.775-37.575Zm2.85,73.125h12.75v20.7a384.675,384.675,0,0,1,40.35,12.225l-3.9,11.475Q46.2,843.3,28.725,838.875v29.4H15.975Z" transform="translate(754 251)" fill="#eaeaea"/>
      <path id="パス_195" data-name="パス 195" d="M33.715,34.36h-6.49v3.08ZM33.6,50.97a44.248,44.248,0,0,1-6.38-13.475v.11q0,11.275-3.85,18.975A33.982,33.982,0,0,0,33.6,50.97Zm5.445-6.38a33.676,33.676,0,0,0,3.795-10.23H34.43A35.008,35.008,0,0,0,39.05,44.59Zm13.475-29.2v7.15h-25.3v4.95h23.65V34.36a45.265,45.265,0,0,1-6.435,16.5,35.367,35.367,0,0,0,9.515,5.94L50.1,64.115A36.439,36.439,0,0,1,38.94,57.02a41.63,41.63,0,0,1-12.595,7.095l-3.3-6.82a37.387,37.387,0,0,1-4.51,6.545L14.52,58.45v5.885H6.16V42.17a30.167,30.167,0,0,1-3.245,4.345L.66,36.34a53.2,53.2,0,0,0,9.845-22.495l8.085,1.87A63.206,63.206,0,0,1,14.52,30.07V54.05a28.006,28.006,0,0,0,3.438-9.13,79.349,79.349,0,0,0,.907-13.75V15.385Zm-20.79,102Q43.45,115.74,43.45,103.2a13.338,13.338,0,0,0-2.943-8.717,12.821,12.821,0,0,0-7.727-4.537,155.758,155.758,0,0,1-3.218,17.187,40.331,40.331,0,0,1-4.015,10.56,15.036,15.036,0,0,1-4.538,5.088,9.926,9.926,0,0,1-5.335,1.43q-4.675,0-8.608-5.28a20.938,20.938,0,0,1-3.933-12.87q0-10.835,7.315-17.627T29.7,81.64q9.625,0,15.9,6.077a20.633,20.633,0,0,1,6.27,15.482q0,9.79-4.95,15.62a18.851,18.851,0,0,1-13.365,6.545Zm-7.81-27.115a15.964,15.964,0,0,0-9.1,5.61A16,16,0,0,0,11.55,106.06a15.079,15.079,0,0,0,1.458,6.683q1.458,3,2.668,3a2.033,2.033,0,0,0,1.348-.77,10.247,10.247,0,0,0,1.622-2.64,35.216,35.216,0,0,0,1.733-4.675q.852-2.805,1.787-7.287T23.925,90.275Zm-13.86,63.34V145.64h34.87v7.975Zm-6.49,6.875h47.85v7.975H33.935q0,9.185-4.95,14.6t-15.29,7.4L11.11,182.49q7.37-1.6,10.422-4.785t3.052-9.24H3.575Zm17.16,47.39,9.35-.715.77,8.855,17.215-.6.275,7.975-16.775.6.88,10.12,17.82-.605.275,7.975-17.38.6,1.1,12.43-9.35.715-1.1-12.815-19.085.66L4.455,235.1l18.645-.66-.935-10.12-15.235.5-.275-7.975,14.795-.495ZM9.625,282.44v-8.25h35.75v8.25a64.675,64.675,0,0,1-10.01,15.18q7.315,6.49,14.85,13.75l-6.1,6.05q-8.36-8.14-14.685-13.75A79.474,79.474,0,0,1,8.69,317.255l-3.96-7.26q20.9-10.12,30.635-27.555Zm2.09,53.825h9.35v15.18a282.106,282.106,0,0,1,29.59,8.965l-2.86,8.415q-13.915-5.005-26.73-8.25v21.56h-9.35Zm-1.65,73.35V401.64h34.87v7.975Zm-6.49,6.875h47.85v7.975H33.935q0,9.185-4.95,14.6t-15.29,7.4L11.11,438.49q7.37-1.595,10.422-4.785t3.052-9.24H3.575Zm17.16,47.39,9.35-.715.77,8.855,17.215-.6.275,7.975-16.775.6.88,10.12,17.82-.6.275,7.975-17.38.605,1.1,12.43-9.35.715-1.1-12.815-19.085.66-.275-7.975,18.645-.66-.935-10.12L6.93,480.82l-.275-7.975,14.795-.495ZM9.625,538.44v-8.25h35.75v8.25a64.676,64.676,0,0,1-10.01,15.18q7.315,6.49,14.85,13.75l-6.1,6.05q-8.36-8.14-14.685-13.75A79.472,79.472,0,0,1,8.69,573.255l-3.96-7.26q20.9-10.12,30.635-27.555Zm2.09,53.825h9.35v15.18a282.106,282.106,0,0,1,29.59,8.965l-2.86,8.415q-13.915-5.005-26.73-8.25v21.56h-9.35Zm22,82.095h-6.49v3.08Zm-.11,16.61a44.248,44.248,0,0,1-6.38-13.475v.11q0,11.275-3.85,18.975A33.981,33.981,0,0,0,33.6,690.97Zm5.445-6.38a33.676,33.676,0,0,0,3.795-10.23H34.43A35.009,35.009,0,0,0,39.05,684.59Zm13.475-29.205v7.15h-25.3v4.95h23.65v6.875a45.265,45.265,0,0,1-6.435,16.5,35.366,35.366,0,0,0,9.515,5.94l-3.85,7.315A36.439,36.439,0,0,1,38.94,697.02a41.63,41.63,0,0,1-12.595,7.095l-3.3-6.82a37.389,37.389,0,0,1-4.51,6.545l-4.015-5.39v5.885H6.16V682.17a30.17,30.17,0,0,1-3.245,4.345L.66,676.34a53.2,53.2,0,0,0,9.845-22.5l8.085,1.87a63.207,63.207,0,0,1-4.07,14.355v23.98a28.006,28.006,0,0,0,3.438-9.13,79.349,79.349,0,0,0,.907-13.75V655.385Z" transform="translate(123 237)" fill="#eaeaea"/>
      <path id="パス_194" data-name="パス 194" d="M78.708,47.58H65.52V69.336A182.027,182.027,0,0,1,79.38,82.86l-8.4,8.4q-3.612-3.948-6.552-6.8Q60.816,94.788,46.956,94.788q-9.66,0-14.994-4.494T26.628,77.82q0-7.812,5.292-12.222t15.036-4.41a21.608,21.608,0,0,1,5.712.672V47.58H29.736V36.072H52.668V23.808H65.52V36.072H78.708ZM23.268,26.16a135.525,135.525,0,0,0-3.948,33.6,135.525,135.525,0,0,0,3.948,33.6l-12.6,1.428a138.077,138.077,0,0,1-4.2-35.028,138.077,138.077,0,0,1,4.2-35.028Zm29.4,48.3A13.241,13.241,0,0,0,46.2,72.7q-7.224,0-7.224,5.124,0,5.46,7.224,5.46,3.444,0,4.956-1.512t1.512-5.04ZM6.3,130.36H23.52v-8.232H36.372v8.232H49.14v11.508H36.372v21.42A49.314,49.314,0,0,1,34.44,176.98a21.571,21.571,0,0,0-1.008,4.452,2.886,2.886,0,0,0,.21,1.3q.21.378,1.512.714a18.638,18.638,0,0,0,3.78.42q2.478.084,7.266.084,7.98,0,10.206-1.134t2.226-4.914q0-3.276-2.856-17.472l12.516-2.52q3.528,14.868,3.528,22.764,0,5.88-2.1,8.9t-7.56,4.452Q56.7,195.46,46.2,195.46a140.94,140.94,0,0,1-17.472-.8q-5.88-.8-7.728-2.352a5.644,5.644,0,0,1-1.848-4.578,14.637,14.637,0,0,1,1.344-5.04,31.886,31.886,0,0,0,1.428-3.78l-.168-.084a14.514,14.514,0,0,1-4.536.84A11.746,11.746,0,0,1,7.56,175.3q-3.528-4.368-3.528-13.02,0-8.568,3.486-12.978a11.673,11.673,0,0,1,9.7-4.41,17.623,17.623,0,0,1,6.132,1.26l.168-.084v-4.2H6.3Zm47.628,8.4L60.4,128.68q11.34,6.636,21.336,13.44L75.264,152.2Q65.772,145.648,53.928,138.76Zm-37.38,17.556q-1.008,1.764-1.008,5.964t1.05,5.964a3.656,3.656,0,0,0,3.4,1.764,3.41,3.41,0,0,0,3.192-1.764q1.008-1.764,1.008-5.964,0-7.728-4.2-7.728A3.754,3.754,0,0,0,16.548,156.316Zm-12.1,78.412H22.008v-11.76H34.86v19.488q7.644-6.72,11.676-8.694a19.414,19.414,0,0,1,8.652-1.974q6.8,0,9.744,4.116t2.94,15.036a54.876,54.876,0,0,1-1.26,10.332,57.266,57.266,0,0,0-1.176,10.248q0,6.972,2.6,6.972,2.268,0,8.4-5.628l6.552,9.24a36.248,36.248,0,0,1-9.492,7.308,20.385,20.385,0,0,1-9.324,2.688q-6.384,0-9.324-4.242t-2.94-14.91a58.622,58.622,0,0,1,1.176-10.332,53.208,53.208,0,0,0,1.176-10.248q0-7.056-2.6-7.056a3.737,3.737,0,0,0-1.848.672,53.164,53.164,0,0,0-4.788,3.864q-3.7,3.192-10.164,9.324v36.54H22.008V271.6q-1.68,1.68-5.418,5.376t-5.67,5.544l-8.652-8.568q17.724-17.472,19.74-19.488v-8.316H4.452Zm8.9,113.1q21-4.788,31.248-4.788,26.04,0,26.04,21.672,0,13.86-10.836,20.79t-33.768,6.93L25.2,381.18q17.556,0,25.116-3.906t7.56-11.8q0-5.712-3.4-8.316t-11.046-2.6q-7.9,0-27.72,4.536Zm-4.2,101.6L6.3,436.576q26.544-6.048,38.892-6.048,32.508,0,32.508,27.132,0,17.22-13.566,25.83T22.092,492.1l-1.008-12.852q15.372,0,24.738-2.31t13.314-6.678a16.025,16.025,0,0,0,3.948-11.172q0-7.9-4.536-11.592t-14.7-3.7Q33.432,443.8,9.156,449.428ZM78.708,547.58H65.52v21.756A182.034,182.034,0,0,1,79.38,582.86l-8.4,8.4q-3.612-3.948-6.552-6.8-3.612,10.332-17.472,10.332-9.66,0-14.994-4.494T26.628,577.82q0-7.812,5.292-12.222t15.036-4.41a21.608,21.608,0,0,1,5.712.672V547.58H29.736V536.072H52.668V523.808H65.52v12.264H78.708Zm-55.44-21.42a144.953,144.953,0,0,0,0,67.2l-12.6,1.428a148.167,148.167,0,0,1,0-70.056Zm29.4,48.3A13.241,13.241,0,0,0,46.2,572.7q-7.224,0-7.224,5.124,0,5.46,7.224,5.46,3.444,0,4.956-1.512t1.512-5.04ZM6.3,630.36H23.52v-8.232H36.372v8.232H49.14v11.508H36.372v21.42A49.313,49.313,0,0,1,34.44,676.98a21.572,21.572,0,0,0-1.008,4.452,2.886,2.886,0,0,0,.21,1.3q.21.378,1.512.714a18.636,18.636,0,0,0,3.78.42q2.478.084,7.266.084,7.98,0,10.206-1.134t2.226-4.914q0-3.276-2.856-17.472l12.516-2.52q3.528,14.868,3.528,22.764,0,5.88-2.1,8.9t-7.56,4.452Q56.7,695.46,46.2,695.46a140.929,140.929,0,0,1-17.472-.8q-5.88-.8-7.728-2.352a5.644,5.644,0,0,1-1.848-4.578,14.637,14.637,0,0,1,1.344-5.04,31.887,31.887,0,0,0,1.428-3.78l-.168-.084a14.514,14.514,0,0,1-4.536.84A11.746,11.746,0,0,1,7.56,675.3q-3.528-4.368-3.528-13.02,0-8.568,3.486-12.978a11.673,11.673,0,0,1,9.7-4.41,17.623,17.623,0,0,1,6.132,1.26l.168-.084v-4.2H6.3Zm47.628,8.4L60.4,628.68q11.34,6.636,21.336,13.44L75.264,652.2Q65.772,645.648,53.928,638.76Zm-37.38,17.556q-1.008,1.764-1.008,5.964t1.05,5.964a3.656,3.656,0,0,0,3.4,1.764,3.41,3.41,0,0,0,3.192-1.764q1.008-1.764,1.008-5.964,0-7.728-4.2-7.728A3.754,3.754,0,0,0,16.548,656.316Z" transform="translate(199 222)" fill="#eaeaea"/>
      <path id="パス_193" data-name="パス 193" d="M51.492,52.368H41.58v4.7Zm-.168,25.368a67.579,67.579,0,0,1-9.744-20.58v.168q0,17.22-5.88,28.98A51.9,51.9,0,0,0,51.324,77.736Zm8.316-9.744a51.433,51.433,0,0,0,5.8-15.624H52.584A53.467,53.467,0,0,0,59.64,67.992Zm20.58-44.6v10.92H41.58v7.56H77.7v10.5q-3.108,15.288-9.828,25.2A54.014,54.014,0,0,0,82.4,86.64l-5.88,11.172A55.652,55.652,0,0,1,59.472,86.976,63.58,63.58,0,0,1,40.236,97.812L35.2,87.4a57.1,57.1,0,0,1-6.888,10L22.176,89.16v8.988H9.408V64.3a46.073,46.073,0,0,1-4.956,6.636L1.008,55.392q10.92-14.028,15.036-34.356l12.348,2.856a96.533,96.533,0,0,1-6.216,21.924V82.44A42.773,42.773,0,0,0,27.426,68.5q1.386-7.392,1.386-21V23.388ZM48.468,181.432q17.892-2.52,17.892-21.672a20.37,20.37,0,0,0-4.494-13.314,19.581,19.581,0,0,0-11.8-6.93,237.884,237.884,0,0,1-4.914,26.25q-2.73,10.542-6.132,16.128t-6.93,7.77a15.16,15.16,0,0,1-8.148,2.184q-7.14,0-13.146-8.064T4.788,164.128q0-16.548,11.172-26.922t29.4-10.374q14.7,0,24.276,9.282t9.576,23.646q0,14.952-7.56,23.856t-20.412,10ZM36.54,140.02a24.382,24.382,0,0,0-13.9,8.568,24.439,24.439,0,0,0-5,15.54,23.03,23.03,0,0,0,2.226,10.206q2.226,4.578,4.074,4.578A3.1,3.1,0,0,0,26,177.736a15.65,15.65,0,0,0,2.478-4.032,53.785,53.785,0,0,0,2.646-7.14q1.3-4.284,2.73-11.13T36.54,140.02ZM15.372,239.012v-12.18H68.628v12.18Zm-9.912,10.5H78.54v12.18H51.828q0,14.028-7.56,22.3t-23.352,11.3l-3.948-12.18q11.256-2.436,15.918-7.308t4.662-14.112H5.46Zm26.208,74.632,14.28-1.092,1.176,13.524,26.292-.924.42,12.18-25.62.924,1.344,15.456,27.216-.924.42,12.18-26.544.924,1.68,18.984-14.28,1.092L36.372,376.9,7.224,377.9l-.42-12.18,28.476-1.008L33.852,349.26l-23.268.756-.42-12.18,22.6-.756ZM14.7,440.272v-12.6H69.3v12.6a98.776,98.776,0,0,1-15.288,23.184q11.172,9.912,22.68,21l-9.324,9.24Q54.6,481.264,44.94,472.7a121.377,121.377,0,0,1-31.668,20.748L7.224,482.356q31.92-15.456,46.788-42.084Zm3.192,84.46h14.28v23.184a430.858,430.858,0,0,1,45.192,13.692L73,574.46q-21.252-7.644-40.824-12.6v32.928H17.892Zm-2.52,114.28v-12.18H68.628v12.18Zm-9.912,10.5H78.54v12.18H51.828q0,14.028-7.56,22.3t-23.352,11.3l-3.948-12.18q11.256-2.436,15.918-7.308t4.662-14.112H5.46Zm26.208,74.632,14.28-1.092,1.176,13.524,26.292-.924.42,12.18-25.62.924,1.344,15.456,27.216-.924.42,12.18-26.544.924,1.68,18.984-14.28,1.092L36.372,776.9,7.224,777.9l-.42-12.18,28.476-1.008L33.852,749.26l-23.268.756-.42-12.18,22.6-.756ZM14.7,840.272v-12.6H69.3v12.6a98.776,98.776,0,0,1-15.288,23.184q11.172,9.912,22.68,21l-9.324,9.24Q54.6,881.264,44.94,872.7a121.377,121.377,0,0,1-31.668,20.748L7.224,882.356q31.92-15.456,46.788-42.084Zm3.192,84.46h14.28v23.184a430.858,430.858,0,0,1,45.192,13.692L73,974.46q-21.252-7.644-40.824-12.6v32.928H17.892Z" transform="translate(640 120)" fill="#eaeaea"/>
      <path id="パス_192" data-name="パス 192" d="M51.492,52.368H41.58v4.7Zm-.168,25.368a67.579,67.579,0,0,1-9.744-20.58v.168q0,17.22-5.88,28.98A51.9,51.9,0,0,0,51.324,77.736Zm8.316-9.744a51.433,51.433,0,0,0,5.8-15.624H52.584A53.467,53.467,0,0,0,59.64,67.992Zm20.58-44.6v10.92H41.58v7.56H77.7v10.5q-3.108,15.288-9.828,25.2A54.014,54.014,0,0,0,82.4,86.64l-5.88,11.172A55.652,55.652,0,0,1,59.472,86.976,63.58,63.58,0,0,1,40.236,97.812L35.2,87.4a57.1,57.1,0,0,1-6.888,10L22.176,89.16v8.988H9.408V64.3a46.073,46.073,0,0,1-4.956,6.636L1.008,55.392q10.92-14.028,15.036-34.356l12.348,2.856a96.533,96.533,0,0,1-6.216,21.924V82.44A42.773,42.773,0,0,0,27.426,68.5q1.386-7.392,1.386-21V23.388ZM48.468,181.432q17.892-2.52,17.892-21.672a20.37,20.37,0,0,0-4.494-13.314,19.581,19.581,0,0,0-11.8-6.93,237.884,237.884,0,0,1-4.914,26.25q-2.73,10.542-6.132,16.128t-6.93,7.77a15.16,15.16,0,0,1-8.148,2.184q-7.14,0-13.146-8.064T4.788,164.128q0-16.548,11.172-26.922t29.4-10.374q14.7,0,24.276,9.282t9.576,23.646q0,14.952-7.56,23.856t-20.412,10ZM36.54,140.02a24.382,24.382,0,0,0-13.9,8.568,24.439,24.439,0,0,0-5,15.54,23.03,23.03,0,0,0,2.226,10.206q2.226,4.578,4.074,4.578A3.1,3.1,0,0,0,26,177.736a15.65,15.65,0,0,0,2.478-4.032,53.785,53.785,0,0,0,2.646-7.14q1.3-4.284,2.73-11.13T36.54,140.02ZM15.372,239.012v-12.18H68.628v12.18Zm-9.912,10.5H78.54v12.18H51.828q0,14.028-7.56,22.3t-23.352,11.3l-3.948-12.18q11.256-2.436,15.918-7.308t4.662-14.112H5.46Zm26.208,74.632,14.28-1.092,1.176,13.524,26.292-.924.42,12.18-25.62.924,1.344,15.456,27.216-.924.42,12.18-26.544.924,1.68,18.984-14.28,1.092L36.372,376.9,7.224,377.9l-.42-12.18,28.476-1.008L33.852,349.26l-23.268.756-.42-12.18,22.6-.756ZM14.7,440.272v-12.6H69.3v12.6a98.776,98.776,0,0,1-15.288,23.184q11.172,9.912,22.68,21l-9.324,9.24Q54.6,481.264,44.94,472.7a121.377,121.377,0,0,1-31.668,20.748L7.224,482.356q31.92-15.456,46.788-42.084Zm3.192,84.46h14.28v23.184a430.858,430.858,0,0,1,45.192,13.692L73,574.46q-21.252-7.644-40.824-12.6v32.928H17.892ZM78.708,647.58H65.52v21.756A182.034,182.034,0,0,1,79.38,682.86l-8.4,8.4q-3.612-3.948-6.552-6.8-3.612,10.332-17.472,10.332-9.66,0-14.994-4.494T26.628,677.82q0-7.812,5.292-12.222t15.036-4.41a21.608,21.608,0,0,1,5.712.672V647.58H29.736V636.072H52.668V623.808H65.52v12.264H78.708Zm-55.44-21.42a144.953,144.953,0,0,0,0,67.2l-12.6,1.428a148.167,148.167,0,0,1,0-70.056Zm29.4,48.3A13.241,13.241,0,0,0,46.2,672.7q-7.224,0-7.224,5.124,0,5.46,7.224,5.46,3.444,0,4.956-1.512t1.512-5.04ZM6.3,730.36H23.52v-8.232H36.372v8.232H49.14v11.508H36.372v21.42A49.313,49.313,0,0,1,34.44,776.98a21.572,21.572,0,0,0-1.008,4.452,2.886,2.886,0,0,0,.21,1.3q.21.378,1.512.714a18.636,18.636,0,0,0,3.78.42q2.478.084,7.266.084,7.98,0,10.206-1.134t2.226-4.914q0-3.276-2.856-17.472l12.516-2.52q3.528,14.868,3.528,22.764,0,5.88-2.1,8.9t-7.56,4.452Q56.7,795.46,46.2,795.46a140.929,140.929,0,0,1-17.472-.8q-5.88-.8-7.728-2.352a5.644,5.644,0,0,1-1.848-4.578,14.637,14.637,0,0,1,1.344-5.04,31.887,31.887,0,0,0,1.428-3.78l-.168-.084a14.514,14.514,0,0,1-4.536.84A11.746,11.746,0,0,1,7.56,775.3q-3.528-4.368-3.528-13.02,0-8.568,3.486-12.978a11.673,11.673,0,0,1,9.7-4.41,17.623,17.623,0,0,1,6.132,1.26l.168-.084v-4.2H6.3Zm47.628,8.4L60.4,728.68q11.34,6.636,21.336,13.44L75.264,752.2Q65.772,745.648,53.928,738.76Zm-37.38,17.556q-1.008,1.764-1.008,5.964t1.05,5.964a3.656,3.656,0,0,0,3.4,1.764,3.41,3.41,0,0,0,3.192-1.764q1.008-1.764,1.008-5.964,0-7.728-4.2-7.728A3.754,3.754,0,0,0,16.548,756.316Z" transform="translate(443 120)" fill="#eaeaea"/>
      <path id="パス_191" data-name="パス 191" d="M51.492-37.632H41.58v4.7Zm-.168,25.368a67.579,67.579,0,0,1-9.744-20.58v.168q0,17.22-5.88,28.98A51.9,51.9,0,0,0,51.324-12.264Zm8.316-9.744a51.433,51.433,0,0,0,5.8-15.624H52.584A53.467,53.467,0,0,0,59.64-22.008Zm20.58-44.6v10.92H41.58v7.56H77.7v10.5q-3.108,15.288-9.828,25.2A54.015,54.015,0,0,0,82.4-3.36L76.524,7.812A55.652,55.652,0,0,1,59.472-3.024,63.58,63.58,0,0,1,40.236,7.812L35.2-2.6a57.1,57.1,0,0,1-6.888,10L22.176-.84V8.148H9.408V-25.7a46.072,46.072,0,0,1-4.956,6.636L1.008-34.608q10.92-14.028,15.036-34.356l12.348,2.856a96.533,96.533,0,0,1-6.216,21.924V-7.56A42.773,42.773,0,0,0,27.426-21.5q1.386-7.392,1.386-21V-66.612ZM132.468-8.568q17.892-2.52,17.892-21.672a20.37,20.37,0,0,0-4.494-13.314,19.58,19.58,0,0,0-11.8-6.93,237.88,237.88,0,0,1-4.914,26.25q-2.73,10.542-6.132,16.128t-6.93,7.77a15.16,15.16,0,0,1-8.148,2.184q-7.14,0-13.146-8.064T88.788-25.872q0-16.548,11.172-26.922t29.4-10.374q14.7,0,24.276,9.282t9.576,23.646q0,14.952-7.56,23.856t-20.412,10ZM120.54-49.98a24.382,24.382,0,0,0-13.9,8.568,24.439,24.439,0,0,0-5,15.54,23.03,23.03,0,0,0,2.226,10.206q2.226,4.578,4.074,4.578A3.1,3.1,0,0,0,110-12.264a15.65,15.65,0,0,0,2.478-4.032,53.785,53.785,0,0,0,2.646-7.14q1.3-4.284,2.73-11.13T120.54-49.98Zm62.832-1.008v-12.18h53.256v12.18Zm-9.912,10.5h73.08v12.18H219.828q0,14.028-7.56,22.3t-23.352,11.3l-3.948-12.18q11.256-2.436,15.918-7.308t4.662-14.112H173.46ZM283.668-65.856l14.28-1.092,1.176,13.524,26.292-.924.42,12.18-25.62.924,1.344,15.456,27.216-.924.42,12.18-26.544.924,1.68,18.984-14.28,1.092L288.372-13.1,259.224-12.1l-.42-12.18,28.476-1.008L285.852-40.74l-23.268.756-.42-12.18,22.6-.756ZM350.7-49.728v-12.6h54.6v12.6a98.776,98.776,0,0,1-15.288,23.184q11.172,9.912,22.68,21L403.368,3.7Q390.6-8.736,380.94-17.3A121.378,121.378,0,0,1,349.272,3.444L343.224-7.644q31.92-15.456,46.788-42.084Zm87.192-15.54h14.28v23.184a430.849,430.849,0,0,1,45.192,13.692L493-15.54q-21.252-7.644-40.824-12.6V4.788h-14.28Zm81.48,14.28v-12.18h53.256v12.18Zm-9.912,10.5h73.08v12.18H555.828q0,14.028-7.56,22.3t-23.352,11.3l-3.948-12.18q11.256-2.436,15.918-7.308t4.662-14.112H509.46Z" transform="translate(744 210)" fill="#eaeaea"/>
      <path id="パス_190" data-name="パス 190" d="M51.535,31.225H42.9V45.47a119.184,119.184,0,0,1,9.075,8.855l-5.5,5.5q-2.365-2.585-4.29-4.455-2.365,6.765-11.44,6.765-6.325,0-9.818-2.942a10.1,10.1,0,0,1-3.493-8.167,9.85,9.85,0,0,1,3.465-8q3.465-2.887,9.845-2.887a14.148,14.148,0,0,1,3.74.44v-9.35H19.47V23.69H34.485V15.66H42.9v8.03h8.635ZM15.235,17.2a88.737,88.737,0,0,0-2.585,22,88.737,88.737,0,0,0,2.585,22l-8.25.935A90.408,90.408,0,0,1,4.235,39.2a90.408,90.408,0,0,1,2.75-22.935Zm19.25,31.625A8.67,8.67,0,0,0,30.25,47.67q-4.73,0-4.73,3.355,0,3.575,4.73,3.575a4.463,4.463,0,0,0,3.245-.99,4.553,4.553,0,0,0,.99-3.3ZM4.125,83.95H15.4V78.56h8.415v5.39h8.36v7.535h-8.36V105.51a32.289,32.289,0,0,1-1.265,8.965,14.124,14.124,0,0,0-.66,2.915,1.89,1.89,0,0,0,.138.853q.137.248.99.467a12.2,12.2,0,0,0,2.475.275q1.623.055,4.757.055,5.225,0,6.683-.743t1.457-3.217q0-2.145-1.87-11.44l8.195-1.65q2.31,9.735,2.31,14.9a10.217,10.217,0,0,1-1.375,5.83q-1.375,1.98-4.95,2.915a44.03,44.03,0,0,1-10.45.935,92.281,92.281,0,0,1-11.44-.522q-3.85-.523-5.06-1.54a3.7,3.7,0,0,1-1.21-3,9.584,9.584,0,0,1,.88-3.3,20.877,20.877,0,0,0,.935-2.475l-.11-.055a9.5,9.5,0,0,1-2.97.55,7.691,7.691,0,0,1-6.325-2.86q-2.31-2.86-2.31-8.525,0-5.61,2.283-8.5a7.643,7.643,0,0,1,6.352-2.888,11.539,11.539,0,0,1,4.015.825l.11-.055v-2.75H4.125Zm31.185,5.5,4.235-6.6q7.425,4.345,13.97,8.8l-4.235,6.6Q43.065,93.96,35.31,89.45Zm-24.475,11.5a8.387,8.387,0,0,0-.66,3.9,8.094,8.094,0,0,0,.688,3.9,2.394,2.394,0,0,0,2.227,1.155,2.233,2.233,0,0,0,2.09-1.155,8.387,8.387,0,0,0,.66-3.9q0-5.06-2.75-5.06A2.458,2.458,0,0,0,10.835,100.945ZM2.915,150.81H14.41v-7.7h8.415v12.76a40.576,40.576,0,0,1,7.645-5.692,12.712,12.712,0,0,1,5.665-1.293q4.455,0,6.38,2.7t1.925,9.845a35.931,35.931,0,0,1-.825,6.765,37.5,37.5,0,0,0-.77,6.71q0,4.565,1.705,4.565,1.485,0,5.5-3.685l4.29,6.05a23.734,23.734,0,0,1-6.215,4.785,13.348,13.348,0,0,1-6.1,1.76q-4.18,0-6.1-2.777t-1.925-9.762a38.383,38.383,0,0,1,.77-6.765,34.839,34.839,0,0,0,.77-6.71q0-4.62-1.705-4.62a2.447,2.447,0,0,0-1.21.44,34.81,34.81,0,0,0-3.135,2.53q-2.42,2.09-6.655,6.1V190.74H14.41V174.955q-1.1,1.1-3.547,3.52T7.15,182.1l-5.665-5.61q11.605-11.44,12.925-12.76V158.29H2.915Zm5.83,72.58q13.75-3.135,20.46-3.135,17.05,0,17.05,14.19,0,9.075-7.1,13.612T17.05,252.6l-.55-7.37q11.5,0,16.445-2.558t4.95-7.727q0-3.74-2.228-5.445t-7.232-1.7q-5.17,0-18.15,2.97Zm-2.75,65.045-1.87-8.415q17.38-3.96,25.465-3.96,21.285,0,21.285,17.765,0,11.275-8.882,16.912t-27.528,5.638l-.66-8.415A69.991,69.991,0,0,0,30,306.448q6.133-1.512,8.718-4.372a10.493,10.493,0,0,0,2.585-7.315q0-5.17-2.97-7.59t-9.625-2.42Q21.89,284.75,5.995,288.435Zm45.54,62.79H42.9V365.47a119.18,119.18,0,0,1,9.075,8.855l-5.5,5.5q-2.365-2.585-4.29-4.455-2.365,6.765-11.44,6.765-6.325,0-9.818-2.943a10.1,10.1,0,0,1-3.493-8.168,9.85,9.85,0,0,1,3.465-8q3.465-2.887,9.845-2.887a14.148,14.148,0,0,1,3.74.44v-9.35H19.47V343.69H34.485v-8.03H42.9v8.03h8.635ZM15.235,337.2a94.91,94.91,0,0,0,0,44l-8.25.935a97.014,97.014,0,0,1,0-45.87Zm19.25,31.625a8.67,8.67,0,0,0-4.235-1.155q-4.73,0-4.73,3.355,0,3.575,4.73,3.575a4.463,4.463,0,0,0,3.245-.99,4.553,4.553,0,0,0,.99-3.3ZM4.125,403.95H15.4v-5.39h8.415v5.39h8.36v7.535h-8.36V425.51a32.289,32.289,0,0,1-1.265,8.965,14.124,14.124,0,0,0-.66,2.915,1.89,1.89,0,0,0,.138.852q.137.248.99.467a12.2,12.2,0,0,0,2.475.275q1.623.055,4.757.055,5.225,0,6.683-.743t1.457-3.217q0-2.145-1.87-11.44l8.195-1.65q2.31,9.735,2.31,14.9a10.217,10.217,0,0,1-1.375,5.83q-1.375,1.98-4.95,2.915a44.03,44.03,0,0,1-10.45.935,92.276,92.276,0,0,1-11.44-.523q-3.85-.522-5.06-1.54a3.7,3.7,0,0,1-1.21-3,9.584,9.584,0,0,1,.88-3.3,20.876,20.876,0,0,0,.935-2.475l-.11-.055a9.5,9.5,0,0,1-2.97.55,7.691,7.691,0,0,1-6.325-2.86q-2.31-2.86-2.31-8.525,0-5.61,2.283-8.5a7.643,7.643,0,0,1,6.352-2.888,11.539,11.539,0,0,1,4.015.825l.11-.055v-2.75H4.125Zm31.185,5.5,4.235-6.6q7.425,4.345,13.97,8.8l-4.235,6.6Q43.065,413.96,35.31,409.45ZM10.835,420.945a8.387,8.387,0,0,0-.66,3.9,8.094,8.094,0,0,0,.688,3.9,2.394,2.394,0,0,0,2.227,1.155,2.233,2.233,0,0,0,2.09-1.155,8.387,8.387,0,0,0,.66-3.9q0-5.06-2.75-5.06A2.458,2.458,0,0,0,10.835,420.945ZM2.915,470.81H14.41v-7.7h8.415v12.76a40.577,40.577,0,0,1,7.645-5.693,12.712,12.712,0,0,1,5.665-1.292q4.455,0,6.38,2.7t1.925,9.845a35.931,35.931,0,0,1-.825,6.765,37.5,37.5,0,0,0-.77,6.71q0,4.565,1.705,4.565,1.485,0,5.5-3.685l4.29,6.05a23.733,23.733,0,0,1-6.215,4.785,13.348,13.348,0,0,1-6.1,1.76q-4.18,0-6.1-2.777t-1.925-9.763a38.383,38.383,0,0,1,.77-6.765,34.839,34.839,0,0,0,.77-6.71q0-4.62-1.705-4.62a2.447,2.447,0,0,0-1.21.44,34.809,34.809,0,0,0-3.135,2.53q-2.42,2.09-6.655,6.105V510.74H14.41V494.955q-1.1,1.1-3.547,3.52t-3.713,3.63l-5.665-5.61q11.605-11.44,12.925-12.76V478.29H2.915Zm5.83,72.58q13.75-3.135,20.46-3.135,17.05,0,17.05,14.19,0,9.075-7.1,13.612t-22.11,4.537l-.55-7.37q11.5,0,16.445-2.557t4.95-7.727q0-3.74-2.228-5.445t-7.232-1.705q-5.17,0-18.15,2.97Zm-2.75,65.045-1.87-8.415q17.38-3.96,25.465-3.96,21.285,0,21.285,17.765,0,11.275-8.882,16.912t-27.528,5.638l-.66-8.415A69.989,69.989,0,0,0,30,626.448q6.133-1.513,8.718-4.372a10.492,10.492,0,0,0,2.585-7.315q0-5.17-2.97-7.59t-9.625-2.42Q21.89,604.75,5.995,608.435Zm45.54,62.79H42.9V685.47a119.187,119.187,0,0,1,9.075,8.855l-5.5,5.5q-2.365-2.585-4.29-4.455-2.365,6.765-11.44,6.765-6.325,0-9.818-2.943a10.1,10.1,0,0,1-3.493-8.167,9.85,9.85,0,0,1,3.465-8q3.465-2.887,9.845-2.888a14.148,14.148,0,0,1,3.74.44v-9.35H19.47V663.69H34.485v-8.03H42.9v8.03h8.635ZM15.235,657.2a94.91,94.91,0,0,0,0,44l-8.25.935a97.014,97.014,0,0,1,0-45.87Zm19.25,31.625a8.67,8.67,0,0,0-4.235-1.155q-4.73,0-4.73,3.355,0,3.575,4.73,3.575a4.463,4.463,0,0,0,3.245-.99,4.553,4.553,0,0,0,.99-3.3ZM4.125,723.95H15.4v-5.39h8.415v5.39h8.36v7.535h-8.36V745.51a32.288,32.288,0,0,1-1.265,8.965,14.125,14.125,0,0,0-.66,2.915,1.89,1.89,0,0,0,.138.852q.137.247.99.468a12.205,12.205,0,0,0,2.475.275q1.623.055,4.757.055,5.225,0,6.683-.742t1.457-3.217q0-2.145-1.87-11.44l8.195-1.65q2.31,9.735,2.31,14.905a10.217,10.217,0,0,1-1.375,5.83q-1.375,1.98-4.95,2.915a44.028,44.028,0,0,1-10.45.935,92.282,92.282,0,0,1-11.44-.523q-3.85-.522-5.06-1.54a3.7,3.7,0,0,1-1.21-3,9.583,9.583,0,0,1,.88-3.3,20.878,20.878,0,0,0,.935-2.475l-.11-.055a9.5,9.5,0,0,1-2.97.55,7.691,7.691,0,0,1-6.325-2.86q-2.31-2.86-2.31-8.525,0-5.61,2.283-8.5a7.643,7.643,0,0,1,6.352-2.887,11.539,11.539,0,0,1,4.015.825l.11-.055v-2.75H4.125Zm31.185,5.5,4.235-6.6q7.425,4.345,13.97,8.8l-4.235,6.6Q43.065,733.96,35.31,729.45ZM10.835,740.945a8.387,8.387,0,0,0-.66,3.9,8.094,8.094,0,0,0,.688,3.905,2.394,2.394,0,0,0,2.227,1.155,2.233,2.233,0,0,0,2.09-1.155,8.387,8.387,0,0,0,.66-3.905q0-5.06-2.75-5.06A2.458,2.458,0,0,0,10.835,740.945Z" transform="translate(304 222)" fill="#eaeaea"/>
      <path id="パス_189" data-name="パス 189" d="M33.715,34.36h-6.49v3.08ZM33.6,50.97a44.248,44.248,0,0,1-6.38-13.475v.11q0,11.275-3.85,18.975A33.982,33.982,0,0,0,33.6,50.97Zm5.445-6.38a33.676,33.676,0,0,0,3.795-10.23H34.43A35.008,35.008,0,0,0,39.05,44.59Zm13.475-29.2v7.15h-25.3v4.95h23.65V34.36a45.265,45.265,0,0,1-6.435,16.5,35.367,35.367,0,0,0,9.515,5.94L50.1,64.115A36.439,36.439,0,0,1,38.94,57.02a41.63,41.63,0,0,1-12.595,7.095l-3.3-6.82a37.387,37.387,0,0,1-4.51,6.545L14.52,58.45v5.885H6.16V42.17a30.167,30.167,0,0,1-3.245,4.345L.66,36.34a53.2,53.2,0,0,0,9.845-22.495l8.085,1.87A63.206,63.206,0,0,1,14.52,30.07V54.05a28.006,28.006,0,0,0,3.438-9.13,79.349,79.349,0,0,0,.907-13.75V15.385Zm-20.79,102Q43.45,115.74,43.45,103.2a13.338,13.338,0,0,0-2.943-8.717,12.821,12.821,0,0,0-7.727-4.537,155.758,155.758,0,0,1-3.218,17.187,40.331,40.331,0,0,1-4.015,10.56,15.036,15.036,0,0,1-4.538,5.088,9.926,9.926,0,0,1-5.335,1.43q-4.675,0-8.608-5.28a20.938,20.938,0,0,1-3.933-12.87q0-10.835,7.315-17.627T29.7,81.64q9.625,0,15.9,6.077a20.633,20.633,0,0,1,6.27,15.482q0,9.79-4.95,15.62a18.851,18.851,0,0,1-13.365,6.545Zm-7.81-27.115a15.964,15.964,0,0,0-9.1,5.61A16,16,0,0,0,11.55,106.06a15.079,15.079,0,0,0,1.458,6.683q1.458,3,2.668,3a2.033,2.033,0,0,0,1.348-.77,10.247,10.247,0,0,0,1.622-2.64,35.216,35.216,0,0,0,1.733-4.675q.852-2.805,1.787-7.287T23.925,90.275Zm-13.86,63.34V145.64h34.87v7.975Zm-6.49,6.875h47.85v7.975H33.935q0,9.185-4.95,14.6t-15.29,7.4L11.11,182.49q7.37-1.6,10.422-4.785t3.052-9.24H3.575Zm17.16,47.39,9.35-.715.77,8.855,17.215-.6.275,7.975-16.775.6.88,10.12,17.82-.605.275,7.975-17.38.6,1.1,12.43-9.35.715-1.1-12.815-19.085.66L4.455,235.1l18.645-.66-.935-10.12-15.235.5-.275-7.975,14.795-.495ZM9.625,282.44v-8.25h35.75v8.25a64.675,64.675,0,0,1-10.01,15.18q7.315,6.49,14.85,13.75l-6.1,6.05q-8.36-8.14-14.685-13.75A79.474,79.474,0,0,1,8.69,317.255l-3.96-7.26q20.9-10.12,30.635-27.555Zm2.09,53.825h9.35v15.18a282.106,282.106,0,0,1,29.59,8.965l-2.86,8.415q-13.915-5.005-26.73-8.25v21.56h-9.35Zm-1.65,73.35V401.64h34.87v7.975Zm-6.49,6.875h47.85v7.975H33.935q0,9.185-4.95,14.6t-15.29,7.4L11.11,438.49q7.37-1.595,10.422-4.785t3.052-9.24H3.575Zm17.16,47.39,9.35-.715.77,8.855,17.215-.6.275,7.975-16.775.6.88,10.12,17.82-.6.275,7.975-17.38.605,1.1,12.43-9.35.715-1.1-12.815-19.085.66-.275-7.975,18.645-.66-.935-10.12L6.93,480.82l-.275-7.975,14.795-.495ZM9.625,538.44v-8.25h35.75v8.25a64.676,64.676,0,0,1-10.01,15.18q7.315,6.49,14.85,13.75l-6.1,6.05q-8.36-8.14-14.685-13.75A79.472,79.472,0,0,1,8.69,573.255l-3.96-7.26q20.9-10.12,30.635-27.555Zm2.09,53.825h9.35v15.18a282.106,282.106,0,0,1,29.59,8.965l-2.86,8.415q-13.915-5.005-26.73-8.25v21.56h-9.35Zm39.82,78.96H42.9V685.47a119.187,119.187,0,0,1,9.075,8.855l-5.5,5.5q-2.365-2.585-4.29-4.455-2.365,6.765-11.44,6.765-6.325,0-9.818-2.943a10.1,10.1,0,0,1-3.493-8.167,9.85,9.85,0,0,1,3.465-8q3.465-2.887,9.845-2.888a14.148,14.148,0,0,1,3.74.44v-9.35H19.47V663.69H34.485v-8.03H42.9v8.03h8.635ZM15.235,657.2a94.91,94.91,0,0,0,0,44l-8.25.935a97.014,97.014,0,0,1,0-45.87Zm19.25,31.625a8.67,8.67,0,0,0-4.235-1.155q-4.73,0-4.73,3.355,0,3.575,4.73,3.575a4.463,4.463,0,0,0,3.245-.99,4.553,4.553,0,0,0,.99-3.3ZM4.125,723.95H15.4v-5.39h8.415v5.39h8.36v7.535h-8.36V745.51a32.288,32.288,0,0,1-1.265,8.965,14.125,14.125,0,0,0-.66,2.915,1.89,1.89,0,0,0,.138.852q.137.247.99.468a12.205,12.205,0,0,0,2.475.275q1.623.055,4.757.055,5.225,0,6.683-.742t1.457-3.217q0-2.145-1.87-11.44l8.195-1.65q2.31,9.735,2.31,14.905a10.217,10.217,0,0,1-1.375,5.83q-1.375,1.98-4.95,2.915a44.028,44.028,0,0,1-10.45.935,92.282,92.282,0,0,1-11.44-.523q-3.85-.522-5.06-1.54a3.7,3.7,0,0,1-1.21-3,9.583,9.583,0,0,1,.88-3.3,20.878,20.878,0,0,0,.935-2.475l-.11-.055a9.5,9.5,0,0,1-2.97.55,7.691,7.691,0,0,1-6.325-2.86q-2.31-2.86-2.31-8.525,0-5.61,2.283-8.5a7.643,7.643,0,0,1,6.352-2.887,11.539,11.539,0,0,1,4.015.825l.11-.055v-2.75H4.125Zm31.185,5.5,4.235-6.6q7.425,4.345,13.97,8.8l-4.235,6.6Q43.065,733.96,35.31,729.45ZM10.835,740.945a8.387,8.387,0,0,0-.66,3.9,8.094,8.094,0,0,0,.688,3.905,2.394,2.394,0,0,0,2.227,1.155,2.233,2.233,0,0,0,2.09-1.155,8.387,8.387,0,0,0,.66-3.905q0-5.06-2.75-5.06A2.458,2.458,0,0,0,10.835,740.945Z" transform="translate(1207 237)" fill="#eaeaea"/>
      <path id="パス_188" data-name="パス 188" d="M33.715,34.36h-6.49v3.08ZM33.6,50.97a44.248,44.248,0,0,1-6.38-13.475v.11q0,11.275-3.85,18.975A33.982,33.982,0,0,0,33.6,50.97Zm5.445-6.38a33.676,33.676,0,0,0,3.795-10.23H34.43A35.008,35.008,0,0,0,39.05,44.59Zm13.475-29.2v7.15h-25.3v4.95h23.65V34.36a45.265,45.265,0,0,1-6.435,16.5,35.367,35.367,0,0,0,9.515,5.94L50.1,64.115A36.439,36.439,0,0,1,38.94,57.02a41.63,41.63,0,0,1-12.595,7.095l-3.3-6.82a37.387,37.387,0,0,1-4.51,6.545L14.52,58.45v5.885H6.16V42.17a30.167,30.167,0,0,1-3.245,4.345L.66,36.34a53.2,53.2,0,0,0,9.845-22.495l8.085,1.87A63.206,63.206,0,0,1,14.52,30.07V54.05a28.006,28.006,0,0,0,3.438-9.13,79.349,79.349,0,0,0,.907-13.75V15.385Zm-20.79,102Q43.45,115.74,43.45,103.2a13.338,13.338,0,0,0-2.943-8.717,12.821,12.821,0,0,0-7.727-4.537,155.758,155.758,0,0,1-3.218,17.187,40.331,40.331,0,0,1-4.015,10.56,15.036,15.036,0,0,1-4.538,5.088,9.926,9.926,0,0,1-5.335,1.43q-4.675,0-8.608-5.28a20.938,20.938,0,0,1-3.933-12.87q0-10.835,7.315-17.627T29.7,81.64q9.625,0,15.9,6.077a20.633,20.633,0,0,1,6.27,15.482q0,9.79-4.95,15.62a18.851,18.851,0,0,1-13.365,6.545Zm-7.81-27.115a15.964,15.964,0,0,0-9.1,5.61A16,16,0,0,0,11.55,106.06a15.079,15.079,0,0,0,1.458,6.683q1.458,3,2.668,3a2.033,2.033,0,0,0,1.348-.77,10.247,10.247,0,0,0,1.622-2.64,35.216,35.216,0,0,0,1.733-4.675q.852-2.805,1.787-7.287T23.925,90.275Zm-13.86,63.34V145.64h34.87v7.975Zm-6.49,6.875h47.85v7.975H33.935q0,9.185-4.95,14.6t-15.29,7.4L11.11,182.49q7.37-1.6,10.422-4.785t3.052-9.24H3.575Zm17.16,47.39,9.35-.715.77,8.855,17.215-.6.275,7.975-16.775.6.88,10.12,17.82-.605.275,7.975-17.38.6,1.1,12.43-9.35.715-1.1-12.815-19.085.66L4.455,235.1l18.645-.66-.935-10.12-15.235.5-.275-7.975,14.795-.495ZM9.625,282.44v-8.25h35.75v8.25a64.675,64.675,0,0,1-10.01,15.18q7.315,6.49,14.85,13.75l-6.1,6.05q-8.36-8.14-14.685-13.75A79.474,79.474,0,0,1,8.69,317.255l-3.96-7.26q20.9-10.12,30.635-27.555Zm2.09,53.825h9.35v15.18a282.106,282.106,0,0,1,29.59,8.965l-2.86,8.415q-13.915-5.005-26.73-8.25v21.56h-9.35Zm-1.65,73.35V401.64h34.87v7.975Zm-6.49,6.875h47.85v7.975H33.935q0,9.185-4.95,14.6t-15.29,7.4L11.11,438.49q7.37-1.595,10.422-4.785t3.052-9.24H3.575Zm17.16,47.39,9.35-.715.77,8.855,17.215-.6.275,7.975-16.775.6.88,10.12,17.82-.6.275,7.975-17.38.605,1.1,12.43-9.35.715-1.1-12.815-19.085.66-.275-7.975,18.645-.66-.935-10.12L6.93,480.82l-.275-7.975,14.795-.495ZM9.625,538.44v-8.25h35.75v8.25a64.676,64.676,0,0,1-10.01,15.18q7.315,6.49,14.85,13.75l-6.1,6.05q-8.36-8.14-14.685-13.75A79.472,79.472,0,0,1,8.69,573.255l-3.96-7.26q20.9-10.12,30.635-27.555Zm2.09,53.825h9.35v15.18a282.106,282.106,0,0,1,29.59,8.965l-2.86,8.415q-13.915-5.005-26.73-8.25v21.56h-9.35Zm22,82.095h-6.49v3.08Zm-.11,16.61a44.248,44.248,0,0,1-6.38-13.475v.11q0,11.275-3.85,18.975A33.981,33.981,0,0,0,33.6,690.97Zm5.445-6.38a33.676,33.676,0,0,0,3.795-10.23H34.43A35.009,35.009,0,0,0,39.05,684.59Zm13.475-29.205v7.15h-25.3v4.95h23.65v6.875a45.265,45.265,0,0,1-6.435,16.5,35.366,35.366,0,0,0,9.515,5.94l-3.85,7.315A36.439,36.439,0,0,1,38.94,697.02a41.63,41.63,0,0,1-12.595,7.095l-3.3-6.82a37.389,37.389,0,0,1-4.51,6.545l-4.015-5.39v5.885H6.16V682.17a30.17,30.17,0,0,1-3.245,4.345L.66,676.34a53.2,53.2,0,0,0,9.845-22.5l8.085,1.87a63.207,63.207,0,0,1-4.07,14.355v23.98a28.006,28.006,0,0,0,3.438-9.13,79.349,79.349,0,0,0,.907-13.75V655.385Z" transform="translate(858 222)" fill="#eaeaea"/>
      <path id="パス_187" data-name="パス 187" d="M78.708-42.42H65.52v21.756A182.026,182.026,0,0,1,79.38-7.14l-8.4,8.4q-3.612-3.948-6.552-6.8Q60.816,4.788,46.956,4.788q-9.66,0-14.994-4.494T26.628-12.18q0-7.812,5.292-12.222t15.036-4.41a21.608,21.608,0,0,1,5.712.672V-42.42H29.736V-53.928H52.668V-66.192H65.52v12.264H78.708ZM23.268-63.84a135.525,135.525,0,0,0-3.948,33.6,135.525,135.525,0,0,0,3.948,33.6l-12.6,1.428a138.077,138.077,0,0,1-4.2-35.028,138.077,138.077,0,0,1,4.2-35.028Zm29.4,48.3A13.241,13.241,0,0,0,46.2-17.3q-7.224,0-7.224,5.124,0,5.46,7.224,5.46,3.444,0,4.956-1.512t1.512-5.04ZM90.3-59.64h17.22v-8.232h12.852v8.232H133.14v11.508H120.372v21.42A49.314,49.314,0,0,1,118.44-13.02a21.571,21.571,0,0,0-1.008,4.452,2.886,2.886,0,0,0,.21,1.3q.21.378,1.512.714a18.638,18.638,0,0,0,3.78.42q2.478.084,7.266.084,7.98,0,10.206-1.134t2.226-4.914q0-3.276-2.856-17.472l12.516-2.52Q155.82-17.22,155.82-9.324q0,5.88-2.1,8.9t-7.56,4.452Q140.7,5.46,130.2,5.46a140.939,140.939,0,0,1-17.472-.8q-5.88-.8-7.728-2.352a5.644,5.644,0,0,1-1.848-4.578,14.637,14.637,0,0,1,1.344-5.04,31.885,31.885,0,0,0,1.428-3.78l-.168-.084a14.514,14.514,0,0,1-4.536.84A11.746,11.746,0,0,1,91.56-14.7q-3.528-4.368-3.528-13.02,0-8.568,3.486-12.978a11.673,11.673,0,0,1,9.7-4.41,17.624,17.624,0,0,1,6.132,1.26l.168-.084v-4.2H90.3Zm47.628,8.4L144.4-61.32q11.34,6.636,21.336,13.44L159.264-37.8Q149.772-44.352,137.928-51.24Zm-37.38,17.556Q99.54-31.92,99.54-27.72t1.05,5.964a3.656,3.656,0,0,0,3.4,1.764,3.41,3.41,0,0,0,3.192-1.764q1.008-1.764,1.008-5.964,0-7.728-4.2-7.728A3.754,3.754,0,0,0,100.548-33.684Zm71.9-21.588h17.556v-11.76H202.86v19.488q7.644-6.72,11.676-8.694a19.414,19.414,0,0,1,8.652-1.974q6.8,0,9.744,4.116t2.94,15.036a54.875,54.875,0,0,1-1.26,10.332,57.266,57.266,0,0,0-1.176,10.248q0,6.972,2.6,6.972,2.268,0,8.4-5.628l6.552,9.24A36.248,36.248,0,0,1,241.5-.588,20.386,20.386,0,0,1,232.176,2.1q-6.384,0-9.324-4.242t-2.94-14.91a58.622,58.622,0,0,1,1.176-10.332,53.208,53.208,0,0,0,1.176-10.248q0-7.056-2.6-7.056a3.737,3.737,0,0,0-1.848.672,53.166,53.166,0,0,0-4.788,3.864q-3.7,3.192-10.164,9.324V5.712H190.008V-18.4q-1.68,1.68-5.418,5.376t-5.67,5.544l-8.652-8.568q17.724-17.472,19.74-19.488v-8.316H172.452Zm92.9,13.1q21-4.788,31.248-4.788,26.04,0,26.04,21.672,0,13.86-10.836,20.79T278.04,2.436L277.2-8.82q17.556,0,25.116-3.906t7.56-11.8q0-5.712-3.4-8.316t-11.046-2.6q-7.9,0-27.72,4.536Zm79.8,1.6L342.3-53.424q26.544-6.048,38.892-6.048,32.508,0,32.508,27.132,0,17.22-13.566,25.83T358.092,2.1l-1.008-12.852q15.372,0,24.738-2.31t13.314-6.678a16.025,16.025,0,0,0,3.948-11.172q0-7.9-4.536-11.592t-14.7-3.7Q369.432-46.2,345.156-40.572Z" transform="translate(0 210)" fill="#eaeaea"/>
      <path id="パス_186" data-name="パス 186" d="M51.535,31.225H42.9V45.47a119.184,119.184,0,0,1,9.075,8.855l-5.5,5.5q-2.365-2.585-4.29-4.455-2.365,6.765-11.44,6.765-6.325,0-9.818-2.942a10.1,10.1,0,0,1-3.493-8.167,9.85,9.85,0,0,1,3.465-8q3.465-2.887,9.845-2.887a14.148,14.148,0,0,1,3.74.44v-9.35H19.47V23.69H34.485V15.66H42.9v8.03h8.635ZM15.235,17.2a88.737,88.737,0,0,0-2.585,22,88.737,88.737,0,0,0,2.585,22l-8.25.935A90.408,90.408,0,0,1,4.235,39.2a90.408,90.408,0,0,1,2.75-22.935Zm19.25,31.625A8.67,8.67,0,0,0,30.25,47.67q-4.73,0-4.73,3.355,0,3.575,4.73,3.575a4.463,4.463,0,0,0,3.245-.99,4.553,4.553,0,0,0,.99-3.3ZM4.125,83.95H15.4V78.56h8.415v5.39h8.36v7.535h-8.36V105.51a32.289,32.289,0,0,1-1.265,8.965,14.124,14.124,0,0,0-.66,2.915,1.89,1.89,0,0,0,.138.853q.137.248.99.467a12.2,12.2,0,0,0,2.475.275q1.623.055,4.757.055,5.225,0,6.683-.743t1.457-3.217q0-2.145-1.87-11.44l8.195-1.65q2.31,9.735,2.31,14.9a10.217,10.217,0,0,1-1.375,5.83q-1.375,1.98-4.95,2.915a44.03,44.03,0,0,1-10.45.935,92.281,92.281,0,0,1-11.44-.522q-3.85-.523-5.06-1.54a3.7,3.7,0,0,1-1.21-3,9.584,9.584,0,0,1,.88-3.3,20.877,20.877,0,0,0,.935-2.475l-.11-.055a9.5,9.5,0,0,1-2.97.55,7.691,7.691,0,0,1-6.325-2.86q-2.31-2.86-2.31-8.525,0-5.61,2.283-8.5a7.643,7.643,0,0,1,6.352-2.888,11.539,11.539,0,0,1,4.015.825l.11-.055v-2.75H4.125Zm31.185,5.5,4.235-6.6q7.425,4.345,13.97,8.8l-4.235,6.6Q43.065,93.96,35.31,89.45Zm-24.475,11.5a8.387,8.387,0,0,0-.66,3.9,8.094,8.094,0,0,0,.688,3.9,2.394,2.394,0,0,0,2.227,1.155,2.233,2.233,0,0,0,2.09-1.155,8.387,8.387,0,0,0,.66-3.9q0-5.06-2.75-5.06A2.458,2.458,0,0,0,10.835,100.945ZM2.915,150.81H14.41v-7.7h8.415v12.76a40.576,40.576,0,0,1,7.645-5.692,12.712,12.712,0,0,1,5.665-1.293q4.455,0,6.38,2.7t1.925,9.845a35.931,35.931,0,0,1-.825,6.765,37.5,37.5,0,0,0-.77,6.71q0,4.565,1.705,4.565,1.485,0,5.5-3.685l4.29,6.05a23.734,23.734,0,0,1-6.215,4.785,13.348,13.348,0,0,1-6.1,1.76q-4.18,0-6.1-2.777t-1.925-9.762a38.383,38.383,0,0,1,.77-6.765,34.839,34.839,0,0,0,.77-6.71q0-4.62-1.705-4.62a2.447,2.447,0,0,0-1.21.44,34.81,34.81,0,0,0-3.135,2.53q-2.42,2.09-6.655,6.1V190.74H14.41V174.955q-1.1,1.1-3.547,3.52T7.15,182.1l-5.665-5.61q11.605-11.44,12.925-12.76V158.29H2.915Zm5.83,72.58q13.75-3.135,20.46-3.135,17.05,0,17.05,14.19,0,9.075-7.1,13.612T17.05,252.6l-.55-7.37q11.5,0,16.445-2.558t4.95-7.727q0-3.74-2.228-5.445t-7.232-1.7q-5.17,0-18.15,2.97Zm-2.75,65.045-1.87-8.415q17.38-3.96,25.465-3.96,21.285,0,21.285,17.765,0,11.275-8.882,16.912t-27.528,5.638l-.66-8.415A69.991,69.991,0,0,0,30,306.448q6.133-1.512,8.718-4.372a10.493,10.493,0,0,0,2.585-7.315q0-5.17-2.97-7.59t-9.625-2.42Q21.89,284.75,5.995,288.435Zm45.54,62.79H42.9V365.47a119.18,119.18,0,0,1,9.075,8.855l-5.5,5.5q-2.365-2.585-4.29-4.455-2.365,6.765-11.44,6.765-6.325,0-9.818-2.943a10.1,10.1,0,0,1-3.493-8.168,9.85,9.85,0,0,1,3.465-8q3.465-2.887,9.845-2.887a14.148,14.148,0,0,1,3.74.44v-9.35H19.47V343.69H34.485v-8.03H42.9v8.03h8.635ZM15.235,337.2a94.91,94.91,0,0,0,0,44l-8.25.935a97.014,97.014,0,0,1,0-45.87Zm19.25,31.625a8.67,8.67,0,0,0-4.235-1.155q-4.73,0-4.73,3.355,0,3.575,4.73,3.575a4.463,4.463,0,0,0,3.245-.99,4.553,4.553,0,0,0,.99-3.3ZM4.125,403.95H15.4v-5.39h8.415v5.39h8.36v7.535h-8.36V425.51a32.289,32.289,0,0,1-1.265,8.965,14.124,14.124,0,0,0-.66,2.915,1.89,1.89,0,0,0,.138.852q.137.248.99.467a12.2,12.2,0,0,0,2.475.275q1.623.055,4.757.055,5.225,0,6.683-.743t1.457-3.217q0-2.145-1.87-11.44l8.195-1.65q2.31,9.735,2.31,14.9a10.217,10.217,0,0,1-1.375,5.83q-1.375,1.98-4.95,2.915a44.03,44.03,0,0,1-10.45.935,92.276,92.276,0,0,1-11.44-.523q-3.85-.522-5.06-1.54a3.7,3.7,0,0,1-1.21-3,9.584,9.584,0,0,1,.88-3.3,20.876,20.876,0,0,0,.935-2.475l-.11-.055a9.5,9.5,0,0,1-2.97.55,7.691,7.691,0,0,1-6.325-2.86q-2.31-2.86-2.31-8.525,0-5.61,2.283-8.5a7.643,7.643,0,0,1,6.352-2.888,11.539,11.539,0,0,1,4.015.825l.11-.055v-2.75H4.125Zm31.185,5.5,4.235-6.6q7.425,4.345,13.97,8.8l-4.235,6.6Q43.065,413.96,35.31,409.45ZM10.835,420.945a8.387,8.387,0,0,0-.66,3.9,8.094,8.094,0,0,0,.688,3.9,2.394,2.394,0,0,0,2.227,1.155,2.233,2.233,0,0,0,2.09-1.155,8.387,8.387,0,0,0,.66-3.9q0-5.06-2.75-5.06A2.458,2.458,0,0,0,10.835,420.945ZM2.915,470.81H14.41v-7.7h8.415v12.76a40.577,40.577,0,0,1,7.645-5.693,12.712,12.712,0,0,1,5.665-1.292q4.455,0,6.38,2.7t1.925,9.845a35.931,35.931,0,0,1-.825,6.765,37.5,37.5,0,0,0-.77,6.71q0,4.565,1.705,4.565,1.485,0,5.5-3.685l4.29,6.05a23.733,23.733,0,0,1-6.215,4.785,13.348,13.348,0,0,1-6.1,1.76q-4.18,0-6.1-2.777t-1.925-9.763a38.383,38.383,0,0,1,.77-6.765,34.839,34.839,0,0,0,.77-6.71q0-4.62-1.705-4.62a2.447,2.447,0,0,0-1.21.44,34.809,34.809,0,0,0-3.135,2.53q-2.42,2.09-6.655,6.105V510.74H14.41V494.955q-1.1,1.1-3.547,3.52t-3.713,3.63l-5.665-5.61q11.605-11.44,12.925-12.76V478.29H2.915Zm5.83,72.58q13.75-3.135,20.46-3.135,17.05,0,17.05,14.19,0,9.075-7.1,13.612t-22.11,4.537l-.55-7.37q11.5,0,16.445-2.557t4.95-7.727q0-3.74-2.228-5.445t-7.232-1.705q-5.17,0-18.15,2.97Zm-2.75,65.045-1.87-8.415q17.38-3.96,25.465-3.96,21.285,0,21.285,17.765,0,11.275-8.882,16.912t-27.528,5.638l-.66-8.415A69.989,69.989,0,0,0,30,626.448q6.133-1.513,8.718-4.372a10.492,10.492,0,0,0,2.585-7.315q0-5.17-2.97-7.59t-9.625-2.42Q21.89,604.75,5.995,608.435Zm45.54,62.79H42.9V685.47a119.187,119.187,0,0,1,9.075,8.855l-5.5,5.5q-2.365-2.585-4.29-4.455-2.365,6.765-11.44,6.765-6.325,0-9.818-2.943a10.1,10.1,0,0,1-3.493-8.167,9.85,9.85,0,0,1,3.465-8q3.465-2.887,9.845-2.888a14.148,14.148,0,0,1,3.74.44v-9.35H19.47V663.69H34.485v-8.03H42.9v8.03h8.635ZM15.235,657.2a94.91,94.91,0,0,0,0,44l-8.25.935a97.014,97.014,0,0,1,0-45.87Zm19.25,31.625a8.67,8.67,0,0,0-4.235-1.155q-4.73,0-4.73,3.355,0,3.575,4.73,3.575a4.463,4.463,0,0,0,3.245-.99,4.553,4.553,0,0,0,.99-3.3ZM4.125,723.95H15.4v-5.39h8.415v5.39h8.36v7.535h-8.36V745.51a32.288,32.288,0,0,1-1.265,8.965,14.125,14.125,0,0,0-.66,2.915,1.89,1.89,0,0,0,.138.852q.137.247.99.468a12.205,12.205,0,0,0,2.475.275q1.623.055,4.757.055,5.225,0,6.683-.742t1.457-3.217q0-2.145-1.87-11.44l8.195-1.65q2.31,9.735,2.31,14.905a10.217,10.217,0,0,1-1.375,5.83q-1.375,1.98-4.95,2.915a44.028,44.028,0,0,1-10.45.935,92.282,92.282,0,0,1-11.44-.523q-3.85-.522-5.06-1.54a3.7,3.7,0,0,1-1.21-3,9.583,9.583,0,0,1,.88-3.3,20.878,20.878,0,0,0,.935-2.475l-.11-.055a9.5,9.5,0,0,1-2.97.55,7.691,7.691,0,0,1-6.325-2.86q-2.31-2.86-2.31-8.525,0-5.61,2.283-8.5a7.643,7.643,0,0,1,6.352-2.887,11.539,11.539,0,0,1,4.015.825l.11-.055v-2.75H4.125Zm31.185,5.5,4.235-6.6q7.425,4.345,13.97,8.8l-4.235,6.6Q43.065,733.96,35.31,729.45ZM10.835,740.945a8.387,8.387,0,0,0-.66,3.9,8.094,8.094,0,0,0,.688,3.905,2.394,2.394,0,0,0,2.227,1.155,2.233,2.233,0,0,0,2.09-1.155,8.387,8.387,0,0,0,.66-3.905q0-5.06-2.75-5.06A2.458,2.458,0,0,0,10.835,740.945Z" transform="translate(374 222)" fill="#eaeaea"/>
      <path id="パス_185" data-name="パス 185" d="M33.715,34.36h-6.49v3.08ZM33.6,50.97a44.248,44.248,0,0,1-6.38-13.475v.11q0,11.275-3.85,18.975A33.982,33.982,0,0,0,33.6,50.97Zm5.445-6.38a33.676,33.676,0,0,0,3.795-10.23H34.43A35.008,35.008,0,0,0,39.05,44.59Zm13.475-29.2v7.15h-25.3v4.95h23.65V34.36a45.265,45.265,0,0,1-6.435,16.5,35.367,35.367,0,0,0,9.515,5.94L50.1,64.115A36.439,36.439,0,0,1,38.94,57.02a41.63,41.63,0,0,1-12.595,7.095l-3.3-6.82a37.387,37.387,0,0,1-4.51,6.545L14.52,58.45v5.885H6.16V42.17a30.167,30.167,0,0,1-3.245,4.345L.66,36.34a53.2,53.2,0,0,0,9.845-22.495l8.085,1.87A63.206,63.206,0,0,1,14.52,30.07V54.05a28.006,28.006,0,0,0,3.438-9.13,79.349,79.349,0,0,0,.907-13.75V15.385Zm-20.79,102Q43.45,115.74,43.45,103.2a13.338,13.338,0,0,0-2.943-8.717,12.821,12.821,0,0,0-7.727-4.537,155.758,155.758,0,0,1-3.218,17.187,40.331,40.331,0,0,1-4.015,10.56,15.036,15.036,0,0,1-4.538,5.088,9.926,9.926,0,0,1-5.335,1.43q-4.675,0-8.608-5.28a20.938,20.938,0,0,1-3.933-12.87q0-10.835,7.315-17.627T29.7,81.64q9.625,0,15.9,6.077a20.633,20.633,0,0,1,6.27,15.482q0,9.79-4.95,15.62a18.851,18.851,0,0,1-13.365,6.545Zm-7.81-27.115a15.964,15.964,0,0,0-9.1,5.61A16,16,0,0,0,11.55,106.06a15.079,15.079,0,0,0,1.458,6.683q1.458,3,2.668,3a2.033,2.033,0,0,0,1.348-.77,10.247,10.247,0,0,0,1.622-2.64,35.216,35.216,0,0,0,1.733-4.675q.852-2.805,1.787-7.287T23.925,90.275Zm-13.86,63.34V145.64h34.87v7.975Zm-6.49,6.875h47.85v7.975H33.935q0,9.185-4.95,14.6t-15.29,7.4L11.11,182.49q7.37-1.6,10.422-4.785t3.052-9.24H3.575Zm17.16,47.39,9.35-.715.77,8.855,17.215-.6.275,7.975-16.775.6.88,10.12,17.82-.605.275,7.975-17.38.6,1.1,12.43-9.35.715-1.1-12.815-19.085.66L4.455,235.1l18.645-.66-.935-10.12-15.235.5-.275-7.975,14.795-.495ZM9.625,282.44v-8.25h35.75v8.25a64.675,64.675,0,0,1-10.01,15.18q7.315,6.49,14.85,13.75l-6.1,6.05q-8.36-8.14-14.685-13.75A79.474,79.474,0,0,1,8.69,317.255l-3.96-7.26q20.9-10.12,30.635-27.555Zm2.09,53.825h9.35v15.18a282.106,282.106,0,0,1,29.59,8.965l-2.86,8.415q-13.915-5.005-26.73-8.25v21.56h-9.35Zm-1.65,73.35V401.64h34.87v7.975Zm-6.49,6.875h47.85v7.975H33.935q0,9.185-4.95,14.6t-15.29,7.4L11.11,438.49q7.37-1.595,10.422-4.785t3.052-9.24H3.575Zm17.16,47.39,9.35-.715.77,8.855,17.215-.6.275,7.975-16.775.6.88,10.12,17.82-.6.275,7.975-17.38.605,1.1,12.43-9.35.715-1.1-12.815-19.085.66-.275-7.975,18.645-.66-.935-10.12L6.93,480.82l-.275-7.975,14.795-.495ZM9.625,538.44v-8.25h35.75v8.25a64.676,64.676,0,0,1-10.01,15.18q7.315,6.49,14.85,13.75l-6.1,6.05q-8.36-8.14-14.685-13.75A79.472,79.472,0,0,1,8.69,573.255l-3.96-7.26q20.9-10.12,30.635-27.555Zm2.09,53.825h9.35v15.18a282.106,282.106,0,0,1,29.59,8.965l-2.86,8.415q-13.915-5.005-26.73-8.25v21.56h-9.35Zm-1.65,73.35V657.64h34.87v7.975Zm-6.49,6.875h47.85v7.975H33.935q0,9.185-4.95,14.6t-15.29,7.4L11.11,694.49q7.37-1.595,10.422-4.785t3.052-9.24H3.575Zm17.16,47.39,9.35-.715.77,8.855,17.215-.605.275,7.975-16.775.6.88,10.12,17.82-.6.275,7.975-17.38.605,1.1,12.43-9.35.715-1.1-12.815-19.085.66L4.455,747.1l18.645-.66-.935-10.12L6.93,736.82l-.275-7.975,14.795-.495ZM9.625,794.44v-8.25h35.75v8.25a64.676,64.676,0,0,1-10.01,15.18q7.315,6.49,14.85,13.75l-6.1,6.05q-8.36-8.14-14.685-13.75A79.472,79.472,0,0,1,8.69,829.255l-3.96-7.26q20.9-10.12,30.635-27.555Zm2.09,53.825h9.35v15.18a282.106,282.106,0,0,1,29.59,8.965l-2.86,8.415q-13.915-5.005-26.73-8.25v21.56h-9.35Z" transform="translate(551 129)" fill="#eaeaea"/>
      <path id="パス_184" data-name="パス 184" d="M78.708,47.58H65.52V69.336A182.027,182.027,0,0,1,79.38,82.86l-8.4,8.4q-3.612-3.948-6.552-6.8Q60.816,94.788,46.956,94.788q-9.66,0-14.994-4.494T26.628,77.82q0-7.812,5.292-12.222t15.036-4.41a21.608,21.608,0,0,1,5.712.672V47.58H29.736V36.072H52.668V23.808H65.52V36.072H78.708ZM23.268,26.16a135.525,135.525,0,0,0-3.948,33.6,135.525,135.525,0,0,0,3.948,33.6l-12.6,1.428a138.077,138.077,0,0,1-4.2-35.028,138.077,138.077,0,0,1,4.2-35.028Zm29.4,48.3A13.241,13.241,0,0,0,46.2,72.7q-7.224,0-7.224,5.124,0,5.46,7.224,5.46,3.444,0,4.956-1.512t1.512-5.04ZM6.3,130.36H23.52v-8.232H36.372v8.232H49.14v11.508H36.372v21.42A49.314,49.314,0,0,1,34.44,176.98a21.571,21.571,0,0,0-1.008,4.452,2.886,2.886,0,0,0,.21,1.3q.21.378,1.512.714a18.638,18.638,0,0,0,3.78.42q2.478.084,7.266.084,7.98,0,10.206-1.134t2.226-4.914q0-3.276-2.856-17.472l12.516-2.52q3.528,14.868,3.528,22.764,0,5.88-2.1,8.9t-7.56,4.452Q56.7,195.46,46.2,195.46a140.94,140.94,0,0,1-17.472-.8q-5.88-.8-7.728-2.352a5.644,5.644,0,0,1-1.848-4.578,14.637,14.637,0,0,1,1.344-5.04,31.886,31.886,0,0,0,1.428-3.78l-.168-.084a14.514,14.514,0,0,1-4.536.84A11.746,11.746,0,0,1,7.56,175.3q-3.528-4.368-3.528-13.02,0-8.568,3.486-12.978a11.673,11.673,0,0,1,9.7-4.41,17.623,17.623,0,0,1,6.132,1.26l.168-.084v-4.2H6.3Zm47.628,8.4L60.4,128.68q11.34,6.636,21.336,13.44L75.264,152.2Q65.772,145.648,53.928,138.76Zm-37.38,17.556q-1.008,1.764-1.008,5.964t1.05,5.964a3.656,3.656,0,0,0,3.4,1.764,3.41,3.41,0,0,0,3.192-1.764q1.008-1.764,1.008-5.964,0-7.728-4.2-7.728A3.754,3.754,0,0,0,16.548,156.316Zm-12.1,78.412H22.008v-11.76H34.86v19.488q7.644-6.72,11.676-8.694a19.414,19.414,0,0,1,8.652-1.974q6.8,0,9.744,4.116t2.94,15.036a54.876,54.876,0,0,1-1.26,10.332,57.266,57.266,0,0,0-1.176,10.248q0,6.972,2.6,6.972,2.268,0,8.4-5.628l6.552,9.24a36.248,36.248,0,0,1-9.492,7.308,20.385,20.385,0,0,1-9.324,2.688q-6.384,0-9.324-4.242t-2.94-14.91a58.622,58.622,0,0,1,1.176-10.332,53.208,53.208,0,0,0,1.176-10.248q0-7.056-2.6-7.056a3.737,3.737,0,0,0-1.848.672,53.164,53.164,0,0,0-4.788,3.864q-3.7,3.192-10.164,9.324v36.54H22.008V271.6q-1.68,1.68-5.418,5.376t-5.67,5.544l-8.652-8.568q17.724-17.472,19.74-19.488v-8.316H4.452Zm8.9,113.1q21-4.788,31.248-4.788,26.04,0,26.04,21.672,0,13.86-10.836,20.79t-33.768,6.93L25.2,381.18q17.556,0,25.116-3.906t7.56-11.8q0-5.712-3.4-8.316t-11.046-2.6q-7.9,0-27.72,4.536Zm-4.2,101.6L6.3,436.576q26.544-6.048,38.892-6.048,32.508,0,32.508,27.132,0,17.22-13.566,25.83T22.092,492.1l-1.008-12.852q15.372,0,24.738-2.31t13.314-6.678a16.025,16.025,0,0,0,3.948-11.172q0-7.9-4.536-11.592t-14.7-3.7Q33.432,443.8,9.156,449.428ZM78.708,547.58H65.52v21.756A182.034,182.034,0,0,1,79.38,582.86l-8.4,8.4q-3.612-3.948-6.552-6.8-3.612,10.332-17.472,10.332-9.66,0-14.994-4.494T26.628,577.82q0-7.812,5.292-12.222t15.036-4.41a21.608,21.608,0,0,1,5.712.672V547.58H29.736V536.072H52.668V523.808H65.52v12.264H78.708Zm-55.44-21.42a144.953,144.953,0,0,0,0,67.2l-12.6,1.428a148.167,148.167,0,0,1,0-70.056Zm29.4,48.3A13.241,13.241,0,0,0,46.2,572.7q-7.224,0-7.224,5.124,0,5.46,7.224,5.46,3.444,0,4.956-1.512t1.512-5.04ZM6.3,630.36H23.52v-8.232H36.372v8.232H49.14v11.508H36.372v21.42A49.313,49.313,0,0,1,34.44,676.98a21.572,21.572,0,0,0-1.008,4.452,2.886,2.886,0,0,0,.21,1.3q.21.378,1.512.714a18.636,18.636,0,0,0,3.78.42q2.478.084,7.266.084,7.98,0,10.206-1.134t2.226-4.914q0-3.276-2.856-17.472l12.516-2.52q3.528,14.868,3.528,22.764,0,5.88-2.1,8.9t-7.56,4.452Q56.7,695.46,46.2,695.46a140.929,140.929,0,0,1-17.472-.8q-5.88-.8-7.728-2.352a5.644,5.644,0,0,1-1.848-4.578,14.637,14.637,0,0,1,1.344-5.04,31.887,31.887,0,0,0,1.428-3.78l-.168-.084a14.514,14.514,0,0,1-4.536.84A11.746,11.746,0,0,1,7.56,675.3q-3.528-4.368-3.528-13.02,0-8.568,3.486-12.978a11.673,11.673,0,0,1,9.7-4.41,17.623,17.623,0,0,1,6.132,1.26l.168-.084v-4.2H6.3Zm47.628,8.4L60.4,628.68q11.34,6.636,21.336,13.44L75.264,652.2Q65.772,645.648,53.928,638.76Zm-37.38,17.556q-1.008,1.764-1.008,5.964t1.05,5.964a3.656,3.656,0,0,0,3.4,1.764,3.41,3.41,0,0,0,3.192-1.764q1.008-1.764,1.008-5.964,0-7.728-4.2-7.728A3.754,3.754,0,0,0,16.548,656.316Z" transform="translate(938 222)" fill="#eaeaea"/>
      <path id="パス_183" data-name="パス 183" d="M78.708,47.58H65.52V69.336A182.027,182.027,0,0,1,79.38,82.86l-8.4,8.4q-3.612-3.948-6.552-6.8Q60.816,94.788,46.956,94.788q-9.66,0-14.994-4.494T26.628,77.82q0-7.812,5.292-12.222t15.036-4.41a21.608,21.608,0,0,1,5.712.672V47.58H29.736V36.072H52.668V23.808H65.52V36.072H78.708ZM23.268,26.16a135.525,135.525,0,0,0-3.948,33.6,135.525,135.525,0,0,0,3.948,33.6l-12.6,1.428a138.077,138.077,0,0,1-4.2-35.028,138.077,138.077,0,0,1,4.2-35.028Zm29.4,48.3A13.241,13.241,0,0,0,46.2,72.7q-7.224,0-7.224,5.124,0,5.46,7.224,5.46,3.444,0,4.956-1.512t1.512-5.04ZM6.3,130.36H23.52v-8.232H36.372v8.232H49.14v11.508H36.372v21.42A49.314,49.314,0,0,1,34.44,176.98a21.571,21.571,0,0,0-1.008,4.452,2.886,2.886,0,0,0,.21,1.3q.21.378,1.512.714a18.638,18.638,0,0,0,3.78.42q2.478.084,7.266.084,7.98,0,10.206-1.134t2.226-4.914q0-3.276-2.856-17.472l12.516-2.52q3.528,14.868,3.528,22.764,0,5.88-2.1,8.9t-7.56,4.452Q56.7,195.46,46.2,195.46a140.94,140.94,0,0,1-17.472-.8q-5.88-.8-7.728-2.352a5.644,5.644,0,0,1-1.848-4.578,14.637,14.637,0,0,1,1.344-5.04,31.886,31.886,0,0,0,1.428-3.78l-.168-.084a14.514,14.514,0,0,1-4.536.84A11.746,11.746,0,0,1,7.56,175.3q-3.528-4.368-3.528-13.02,0-8.568,3.486-12.978a11.673,11.673,0,0,1,9.7-4.41,17.623,17.623,0,0,1,6.132,1.26l.168-.084v-4.2H6.3Zm47.628,8.4L60.4,128.68q11.34,6.636,21.336,13.44L75.264,152.2Q65.772,145.648,53.928,138.76Zm-37.38,17.556q-1.008,1.764-1.008,5.964t1.05,5.964a3.656,3.656,0,0,0,3.4,1.764,3.41,3.41,0,0,0,3.192-1.764q1.008-1.764,1.008-5.964,0-7.728-4.2-7.728A3.754,3.754,0,0,0,16.548,156.316Zm-12.1,78.412H22.008v-11.76H34.86v19.488q7.644-6.72,11.676-8.694a19.414,19.414,0,0,1,8.652-1.974q6.8,0,9.744,4.116t2.94,15.036a54.876,54.876,0,0,1-1.26,10.332,57.266,57.266,0,0,0-1.176,10.248q0,6.972,2.6,6.972,2.268,0,8.4-5.628l6.552,9.24a36.248,36.248,0,0,1-9.492,7.308,20.385,20.385,0,0,1-9.324,2.688q-6.384,0-9.324-4.242t-2.94-14.91a58.622,58.622,0,0,1,1.176-10.332,53.208,53.208,0,0,0,1.176-10.248q0-7.056-2.6-7.056a3.737,3.737,0,0,0-1.848.672,53.164,53.164,0,0,0-4.788,3.864q-3.7,3.192-10.164,9.324v36.54H22.008V271.6q-1.68,1.68-5.418,5.376t-5.67,5.544l-8.652-8.568q17.724-17.472,19.74-19.488v-8.316H4.452Zm8.9,113.1q21-4.788,31.248-4.788,26.04,0,26.04,21.672,0,13.86-10.836,20.79t-33.768,6.93L25.2,381.18q17.556,0,25.116-3.906t7.56-11.8q0-5.712-3.4-8.316t-11.046-2.6q-7.9,0-27.72,4.536Zm-4.2,101.6L6.3,436.576q26.544-6.048,38.892-6.048,32.508,0,32.508,27.132,0,17.22-13.566,25.83T22.092,492.1l-1.008-12.852q15.372,0,24.738-2.31t13.314-6.678a16.025,16.025,0,0,0,3.948-11.172q0-7.9-4.536-11.592t-14.7-3.7Q33.432,443.8,9.156,449.428ZM78.708,547.58H65.52v21.756A182.034,182.034,0,0,1,79.38,582.86l-8.4,8.4q-3.612-3.948-6.552-6.8-3.612,10.332-17.472,10.332-9.66,0-14.994-4.494T26.628,577.82q0-7.812,5.292-12.222t15.036-4.41a21.608,21.608,0,0,1,5.712.672V547.58H29.736V536.072H52.668V523.808H65.52v12.264H78.708Zm-55.44-21.42a144.953,144.953,0,0,0,0,67.2l-12.6,1.428a148.167,148.167,0,0,1,0-70.056Zm29.4,48.3A13.241,13.241,0,0,0,46.2,572.7q-7.224,0-7.224,5.124,0,5.46,7.224,5.46,3.444,0,4.956-1.512t1.512-5.04ZM6.3,630.36H23.52v-8.232H36.372v8.232H49.14v11.508H36.372v21.42A49.313,49.313,0,0,1,34.44,676.98a21.572,21.572,0,0,0-1.008,4.452,2.886,2.886,0,0,0,.21,1.3q.21.378,1.512.714a18.636,18.636,0,0,0,3.78.42q2.478.084,7.266.084,7.98,0,10.206-1.134t2.226-4.914q0-3.276-2.856-17.472l12.516-2.52q3.528,14.868,3.528,22.764,0,5.88-2.1,8.9t-7.56,4.452Q56.7,695.46,46.2,695.46a140.929,140.929,0,0,1-17.472-.8q-5.88-.8-7.728-2.352a5.644,5.644,0,0,1-1.848-4.578,14.637,14.637,0,0,1,1.344-5.04,31.887,31.887,0,0,0,1.428-3.78l-.168-.084a14.514,14.514,0,0,1-4.536.84A11.746,11.746,0,0,1,7.56,675.3q-3.528-4.368-3.528-13.02,0-8.568,3.486-12.978a11.673,11.673,0,0,1,9.7-4.41,17.623,17.623,0,0,1,6.132,1.26l.168-.084v-4.2H6.3Zm47.628,8.4L60.4,628.68q11.34,6.636,21.336,13.44L75.264,652.2Q65.772,645.648,53.928,638.76Zm-37.38,17.556q-1.008,1.764-1.008,5.964t1.05,5.964a3.656,3.656,0,0,0,3.4,1.764,3.41,3.41,0,0,0,3.192-1.764q1.008-1.764,1.008-5.964,0-7.728-4.2-7.728A3.754,3.754,0,0,0,16.548,656.316Z" transform="translate(1110 222)" fill="#eaeaea"/>
      <path id="パス_182" data-name="パス 182" d="M33.715,34.36h-6.49v3.08ZM33.6,50.97a44.248,44.248,0,0,1-6.38-13.475v.11q0,11.275-3.85,18.975A33.982,33.982,0,0,0,33.6,50.97Zm5.445-6.38a33.676,33.676,0,0,0,3.795-10.23H34.43A35.008,35.008,0,0,0,39.05,44.59Zm13.475-29.2v7.15h-25.3v4.95h23.65V34.36a45.265,45.265,0,0,1-6.435,16.5,35.367,35.367,0,0,0,9.515,5.94L50.1,64.115A36.439,36.439,0,0,1,38.94,57.02a41.63,41.63,0,0,1-12.595,7.095l-3.3-6.82a37.387,37.387,0,0,1-4.51,6.545L14.52,58.45v5.885H6.16V42.17a30.167,30.167,0,0,1-3.245,4.345L.66,36.34a53.2,53.2,0,0,0,9.845-22.495l8.085,1.87A63.206,63.206,0,0,1,14.52,30.07V54.05a28.006,28.006,0,0,0,3.438-9.13,79.349,79.349,0,0,0,.907-13.75V15.385Zm-20.79,102Q43.45,115.74,43.45,103.2a13.338,13.338,0,0,0-2.943-8.717,12.821,12.821,0,0,0-7.727-4.537,155.758,155.758,0,0,1-3.218,17.187,40.331,40.331,0,0,1-4.015,10.56,15.036,15.036,0,0,1-4.538,5.088,9.926,9.926,0,0,1-5.335,1.43q-4.675,0-8.608-5.28a20.938,20.938,0,0,1-3.933-12.87q0-10.835,7.315-17.627T29.7,81.64q9.625,0,15.9,6.077a20.633,20.633,0,0,1,6.27,15.482q0,9.79-4.95,15.62a18.851,18.851,0,0,1-13.365,6.545Zm-7.81-27.115a15.964,15.964,0,0,0-9.1,5.61A16,16,0,0,0,11.55,106.06a15.079,15.079,0,0,0,1.458,6.683q1.458,3,2.668,3a2.033,2.033,0,0,0,1.348-.77,10.247,10.247,0,0,0,1.622-2.64,35.216,35.216,0,0,0,1.733-4.675q.852-2.805,1.787-7.287T23.925,90.275Zm-13.86,63.34V145.64h34.87v7.975Zm-6.49,6.875h47.85v7.975H33.935q0,9.185-4.95,14.6t-15.29,7.4L11.11,182.49q7.37-1.6,10.422-4.785t3.052-9.24H3.575Zm17.16,47.39,9.35-.715.77,8.855,17.215-.6.275,7.975-16.775.6.88,10.12,17.82-.605.275,7.975-17.38.6,1.1,12.43-9.35.715-1.1-12.815-19.085.66L4.455,235.1l18.645-.66-.935-10.12-15.235.5-.275-7.975,14.795-.495ZM9.625,282.44v-8.25h35.75v8.25a64.675,64.675,0,0,1-10.01,15.18q7.315,6.49,14.85,13.75l-6.1,6.05q-8.36-8.14-14.685-13.75A79.474,79.474,0,0,1,8.69,317.255l-3.96-7.26q20.9-10.12,30.635-27.555Zm2.09,53.825h9.35v15.18a282.106,282.106,0,0,1,29.59,8.965l-2.86,8.415q-13.915-5.005-26.73-8.25v21.56h-9.35Zm-1.65,73.35V401.64h34.87v7.975Zm-6.49,6.875h47.85v7.975H33.935q0,9.185-4.95,14.6t-15.29,7.4L11.11,438.49q7.37-1.595,10.422-4.785t3.052-9.24H3.575Zm17.16,47.39,9.35-.715.77,8.855,17.215-.6.275,7.975-16.775.6.88,10.12,17.82-.6.275,7.975-17.38.605,1.1,12.43-9.35.715-1.1-12.815-19.085.66-.275-7.975,18.645-.66-.935-10.12L6.93,480.82l-.275-7.975,14.795-.495ZM9.625,538.44v-8.25h35.75v8.25a64.676,64.676,0,0,1-10.01,15.18q7.315,6.49,14.85,13.75l-6.1,6.05q-8.36-8.14-14.685-13.75A79.472,79.472,0,0,1,8.69,573.255l-3.96-7.26q20.9-10.12,30.635-27.555Zm2.09,53.825h9.35v15.18a282.106,282.106,0,0,1,29.59,8.965l-2.86,8.415q-13.915-5.005-26.73-8.25v21.56h-9.35Zm-1.65,73.35V657.64h34.87v7.975Zm-6.49,6.875h47.85v7.975H33.935q0,9.185-4.95,14.6t-15.29,7.4L11.11,694.49q7.37-1.595,10.422-4.785t3.052-9.24H3.575Zm17.16,47.39,9.35-.715.77,8.855,17.215-.605.275,7.975-16.775.6.88,10.12,17.82-.6.275,7.975-17.38.605,1.1,12.43-9.35.715-1.1-12.815-19.085.66L4.455,747.1l18.645-.66-.935-10.12L6.93,736.82l-.275-7.975,14.795-.495ZM9.625,794.44v-8.25h35.75v8.25a64.676,64.676,0,0,1-10.01,15.18q7.315,6.49,14.85,13.75l-6.1,6.05q-8.36-8.14-14.685-13.75A79.472,79.472,0,0,1,8.69,829.255l-3.96-7.26q20.9-10.12,30.635-27.555Zm2.09,53.825h9.35v15.18a282.106,282.106,0,0,1,29.59,8.965l-2.86,8.415q-13.915-5.005-26.73-8.25v21.56h-9.35Z" transform="translate(1042 237)" fill="#eaeaea"/>
    </g>
  </g>
</svg>
