<svg xmlns="http://www.w3.org/2000/svg" width="646.021" height="582.947" viewBox="0 0 646.021 582.947">
  <g id="グループ_467" data-name="グループ 467" transform="translate(470.01 1940.974)">
    <g id="b" transform="translate(-470.01 -1940.974)">
      <g id="c" transform="translate(0 0)">
        <g id="グループ_390" data-name="グループ 390">
          <path id="パス_142" data-name="パス 142" d="M61,517.9C9.809,472.876-2.737,413.052.467,349.384,4.157,276.1,17.9,204.752,60.395,142.287c3.917-5.76,2.533-10.453.594-16.047-3.559-10.256-6.381-20.685-6.647-31.724-.987-40.908,23.431-59.261,59.9-40.885,17.909,9.022,28.875,5.972,43.738-3.227,82.075-50.8,170.152-62.037,263.508-38.949,30.93,7.65,58.563,21.85,85.467,37.874,8.363,4.978,15.889,7.542,24.954,3.42a5.992,5.992,0,0,1,1.862-.432c23.161-2.229,48.407-4.766,64.878,13.633,16.275,18.179,1.839,39.636-6.381,57.163-6.42,13.687-4.106,21.568,2.444,33.906,43.8,82.452,62.758,169.593,44.243,262.672a161.821,161.821,0,0,1-36.382,75.023c-2.552,9.685-8.795,16.379-16.66,22.332-42.18,31.909-90.318,39.882-141.509,35.6-52.772-4.411-105.278-7.121-158.551-4.087-50.682,2.888-101.919,7.4-152.8.964-26.858-3.4-52.741-10.387-72.05-31.62Z" transform="translate(0 0)" fill="#050505"/>
          <path id="パス_143" data-name="パス 143" d="M15.825,151.5c41.12,23.257,84.581,29.692,132.147,28.03,84.554-2.957,169.238-9.23,254.058.779,58.817,6.944,112.677-7.538,155.362-52,20.269,31.153,17.154,40.939-19.71,55.44-42.562,16.745-87.53,23.38-132.668,27.456-96.95,8.752-193.756,7.6-289.842-9.851-26.349-4.785-52.486-11.058-76.6-23.5-11.1-5.726-20.57-12.92-22.756-26.361Z" transform="translate(45.179 366.401)" fill="#727272"/>
          <path id="パス_144" data-name="パス 144" d="M52.239,99.664c-2.113-17-10.973-35.7,11.794-46.375,19.317-3.239,28.96,10.541,39.64,22.5,8.968,1.885,13.9-5.093,20.1-9.2,115.746-76.6,234.78-86.532,357.608-17.474,7.195,4.045,13.73,9.273,20.55,13.98,6.192,4.276,13.741,15.681,14.744-3.563.2-3.967,5.992-4.492,9.716-4.187,16.8,1.376,37.955-4.727,48,11.555,8.66,14.042-3.559,30.348-8.532,45.223-.79,2.36-2.236,6.061-3.863,6.342-25.964,4.511-6.99,14.771-2.576,22.066,53.959,89.188,74.969,184.507,47.031,286.229-17.578,64.015-76.611,102.478-148.372,101.626-37.006-.44-73.982-5.972-110.961-5.841-61.937.224-123.869,3-185.794,4.974-39.208,1.253-76.31-5.02-109.033-28.381-14.736-12.481-21.734-29.388-27.687-47.127-28.339-84.438-23.161-168.3,4.457-251.618A231.819,231.819,0,0,1,60.082,139.2c8.725-12.307,14.54-23.828-3.262-33.532-1.959-1.068-2.691-4.237-4.577-6.007Z" transform="translate(16.268 7.842)" fill="#fefefe"/>
          <path id="パス_145" data-name="パス 145" d="M60.747,27.883c23.955,16.51,25.759,19.332,12.3,40.249C41.681,116.878,29.956,171.069,21.775,227.5,13.35,285.6,26.9,339.613,43.5,393.661c3.651,11.883,11.424,22.5,17.3,33.7-18.85-8.6-27.352-26.376-35.3-43.241C8.731,348.555.025,310.935,3.457,271.134,10.085,194.3,22.881,119.469,70.911,55.539c3.728-4.966,10.5-11.844-3.713-13.6-7.037-.868-6.169-8.436-6.454-14.054Z" transform="translate(7.76 79.623)" fill="#ccc"/>
          <path id="パス_146" data-name="パス 146" d="M60.467,40.461c-14.351-5.5-22.567-21.788-39.64-22.5,13.1-6.9,24.352.389,35.911,4.785,10.175,3.867,3.52,11.582,3.725,17.717Z" transform="translate(59.474 43.171)" fill="#c7c7c7"/>
          <path id="パス_147" data-name="パス 147" d="M190.645,106.063c-13.822,1.238-26.511-4.21-35.56-16.224-6.381-8.471-9.192-8.876-15.966.443-13.788,18.981-32.5,23.319-52.429,14.8C68.345,97.237,60.557,69.5,72.579,54.617c1.963-2.429,4.168-5.46,7.8-4.191,4.075,1.427,3.038,4.939,2.059,8.008C77.7,73.329,74.668,87.88,93.8,95.132c16.683,6.327,28.805.5,40.843-18.785,10.356-16.595,12.18-16.568,24.549.332,12.936,17.674,30.8,23.13,50.559,14.937,12.5-5.182,19.29-14.2,17.42-28.5-.6-4.6-3.967-11.736,3.266-12.643,7.858-.987,7.518,7.272,8.336,12.531,3.752,24.155-16.564,42.736-48.126,43.06Z" transform="translate(190.803 143.144)" fill="#0f0f0e"/>
          <path id="パス_148" data-name="パス 148" d="M111.437,51.805c-23.808,1.72-40.974,3.038-58.154,4.141-4.368.281-10.163.968-11-4.742-.856-5.868,4.8-6.693,9.169-6.963,34.994-2.167,69.991-4.264,105-6.076,4.735-.247,11.528-.586,10.769,6.967-.617,6.142-6.709,4.446-10.85,4.658-17.188.871-34.388,1.558-44.937,2.02Z" transform="translate(120.506 108.707)" fill="#1a1a1a"/>
          <path id="パス_149" data-name="パス 149" d="M111.136,38.637c51.3.868,88.1,1.326,95.6.744.667-.05,7.445-.482,9.662,2.514a5.21,5.21,0,0,1,.948,2.926c.281,5.83-5.544,5.706-10.025,5.675q-48.76-.341-97.516-.717c-4.634-.035-10.769-.706-10.688-5.591a5.492,5.492,0,0,1,1.272-3.871c.8-.783,1.77-1.018,3.547-1.261a47.851,47.851,0,0,1,7.2-.42Z" transform="translate(283.052 110.313)"/>
        </g>
      </g>
    </g>
    <path id="パス_150" data-name="パス 150" d="M91.671,2.671h0c13.062-1.161,25.207-2.84,52.248-4.644s52.209-2.466,55.916-2.572c59.576-1.7,128.017,10.811,128.017,10.811s49.1,17.605,69.783,37.671,18.978,20.622,18.978,20.622-65.72-4.758-105.989-6.665c-37.583-1.78-48.182-.741-99.135,0-48.432.7-98.3,2.175-138.241,3.566C27.1,63.066-5.38,64.559-5.38,64.559s31.96-28.2,56.222-43.67S91.671,2.671,91.671,2.671Z" transform="translate(-346.835 -1919.974)" fill="#fbe238"/>
    <path id="パス_150_-_アウトライン" data-name="パス 150 - アウトライン" d="M211.293.3c-3.864,0-7.671.053-11.315.157l-.549.016c-18.9.53-38.5,1.435-55.177,2.547C125.488,4.268,113.7,5.483,104.235,6.459c-4.1.423-7.978.822-11.889,1.172A72.229,72.229,0,0,0,81.721,10.8a129.9,129.9,0,0,0-12.307,5.322A166.54,166.54,0,0,0,53.53,25.1c-9.752,6.219-22.445,15.648-36.706,27.27-2.877,2.344-5.553,4.562-7.934,6.557,13.855-.587,36.669-1.511,64.183-2.469,50.968-1.774,97.513-2.975,138.343-3.568,12.57-.183,22.549-.381,31.354-.556,12.008-.239,21.493-.427,30.794-.427,11.519,0,22.673.3,37.3.988,29.747,1.409,73.806,4.4,94.536,5.853-2.612-2.72-6.232-6.365-11.243-11.226-4.432-4.3-10.713-8.882-18.667-13.62a252.97,252.97,0,0,0-22.528-11.758c-13.059-6.077-24.237-10.24-26.412-11.037C324,10.659,309.8,8.181,290.087,5.734c-12.726-1.58-25.225-2.839-37.149-3.741C238.064.867,224.053.3,211.293.3h0m0-5c56.55,0,116.559,10.97,116.559,10.97s49.1,17.605,69.783,37.671,18.978,20.622,18.978,20.622-65.72-4.758-105.989-6.665c-15.314-.725-26.151-.983-37.06-.983-15.864,0-31.884.544-62.075.983-48.432.7-98.3,2.175-138.241,3.566-46.145,1.606-78.628,3.1-78.628,3.1s31.96-28.2,56.222-43.67S91.671,2.671,91.671,2.671c13.062-1.161,25.207-2.84,52.248-4.644s52.209-2.466,55.916-2.572C203.624-4.653,207.452-4.7,211.293-4.7ZM91.671,2.671l-5.805.516Z" transform="translate(-346.835 -1919.974)" fill="#020202"/>
    <path id="パス_151" data-name="パス 151" d="M26.336,3.773a.9.9,0,0,0,.859.9h9.76a1.919,1.919,0,0,1,1.943,1.9,1.957,1.957,0,0,1-1.943,1.943H25.794a3.288,3.288,0,0,1-3.3-3.3V-3.728a.858.858,0,0,0-.859-.859H18.564a1.266,1.266,0,0,0-1.175.813L13.233,7.116a3.024,3.024,0,0,1-2.8,1.943A1.474,1.474,0,0,1,9.076,7.116l4.2-10.889a.6.6,0,0,0-.587-.813H11.7a3.317,3.317,0,0,1-3.3-3.3V-26.5a3.278,3.278,0,0,1,3.3-3.253H29.861A3.24,3.24,0,0,1,33.114-26.5V-7.885a3.278,3.278,0,0,1-3.253,3.3H27.195a.858.858,0,0,0-.859.859ZM29.318-25.1a.869.869,0,0,0-.859-.9H13.052a.9.9,0,0,0-.859.9v1.31a.889.889,0,0,0,.859.859H28.46a.858.858,0,0,0,.859-.859ZM13.052-19.09a.889.889,0,0,0-.859.859v1.943a.9.9,0,0,0,.859.9H28.46a.869.869,0,0,0,.859-.9v-1.943a.858.858,0,0,0-.859-.859Zm0,7.5a.889.889,0,0,0-.859.859V-9.24a.9.9,0,0,0,.859.9H28.46a.869.869,0,0,0,.859-.9v-1.491a.858.858,0,0,0-.859-.859Zm56.571-1.446c-3.57,0-7.952,1.672-9.9,3.479,0,0-3.3,4.247-4.925,5.874a2.052,2.052,0,0,1-2.621.09c-.587-.542-1.084-1.807.407-3.3a72.506,72.506,0,0,0,6.778-8.269,40.053,40.053,0,0,1,6.642-7.681c.136-.045.09-.136-.045-.09-1.22.271-4.112,1.13-6.19,1.4-1.446.181-2.44-.678-2.395-1.807a2.031,2.031,0,0,1,1.9-1.807,27.131,27.131,0,0,0,4.97-1.084A32.772,32.772,0,0,0,68.358-27.4s2.982-.316,3.705,1.22a2.967,2.967,0,0,1-.994,3.841A52.238,52.238,0,0,0,64.7-16.379c-.136.136.045.361.226.316,1.943-.587,8.359-2.078,12.968,2.485A9.281,9.281,0,0,1,80.106-3.05C76.988,3.908,68.041,5.671,63.7,5.806a1.9,1.9,0,0,1-1.853-1.717,1.894,1.894,0,0,1,1.762-1.943A23.534,23.534,0,0,0,72.7-.249a9.894,9.894,0,0,0,4.112-4.2C78.7-9.06,74.909-13.036,69.623-13.036Z" transform="translate(-186.156 -1879.974)"/>
    <path id="パス_151_-_アウトライン" data-name="パス 151 - アウトライン" d="M10.431,9.559a1.9,1.9,0,0,1-1.561-.82A1.973,1.973,0,0,1,8.6,6.951l.005-.015,4.2-10.875a.121.121,0,0,0-.011-.106.121.121,0,0,0-.1-.041H11.7A3.77,3.77,0,0,1,9.016-5.2,3.77,3.77,0,0,1,7.9-7.885V-26.5a3.78,3.78,0,0,1,3.8-3.753H29.861a3.732,3.732,0,0,1,2.658,1.1,3.732,3.732,0,0,1,1.1,2.658V-7.885a3.78,3.78,0,0,1-3.753,3.8H27.195a.359.359,0,0,0-.358.358v7.5a.4.4,0,0,0,.358.4h9.76a2.42,2.42,0,1,1,0,4.841H25.794a3.788,3.788,0,0,1-3.8-3.8V-3.728a.359.359,0,0,0-.358-.358H18.564a.768.768,0,0,0-.7.484l0,.007L13.7,7.295A3.532,3.532,0,0,1,10.431,9.559ZM9.545,7.288a.973.973,0,0,0,.141.873.91.91,0,0,0,.745.4,2.526,2.526,0,0,0,2.335-1.622L16.921-3.948a1.774,1.774,0,0,1,1.643-1.139h3.073A1.36,1.36,0,0,1,23-3.728V5.219a2.788,2.788,0,0,0,2.8,2.8H36.955A1.462,1.462,0,0,0,38.4,6.574a1.422,1.422,0,0,0-1.443-1.4h-9.76a1.4,1.4,0,0,1-1.358-1.4v-7.5a1.36,1.36,0,0,1,1.358-1.358h2.666a2.779,2.779,0,0,0,2.753-2.8V-26.5a2.738,2.738,0,0,0-.8-1.951,2.738,2.738,0,0,0-1.951-.8H11.7A2.779,2.779,0,0,0,8.9-26.5V-7.885a2.777,2.777,0,0,0,.825,1.973,2.777,2.777,0,0,0,1.973.825h.994a1.111,1.111,0,0,1,.916.456,1.113,1.113,0,0,1,.146,1.015l-.008.022Zm54.166-.982H63.7a2.39,2.39,0,0,1-2.352-2.192,2.444,2.444,0,0,1,.686-1.76,2.181,2.181,0,0,1,1.555-.708A23.164,23.164,0,0,0,72.459-.689,9.483,9.483,0,0,0,76.35-4.653a5.127,5.127,0,0,0-.389-4.933,6.306,6.306,0,0,0-2.544-2.132,8.836,8.836,0,0,0-3.793-.818A16.442,16.442,0,0,0,64.235-11.5,12.853,12.853,0,0,0,60.1-9.217c-.333.428-3.368,4.315-4.941,5.888l-.02.019a2.423,2.423,0,0,1-1.63.648,2.964,2.964,0,0,1-1.6-.51L51.874-3.2l-.032-.029a2.317,2.317,0,0,1-.737-1.65,3.267,3.267,0,0,1,1.129-2.369,71.961,71.961,0,0,0,6.712-8.187,41.551,41.551,0,0,1,5.436-6.587,41.346,41.346,0,0,1-4.546.984,3.577,3.577,0,0,1-.443.028,2.615,2.615,0,0,1-1.917-.752,2.161,2.161,0,0,1-.6-1.6,2.527,2.527,0,0,1,2.388-2.287,24.035,24.035,0,0,0,4.441-.954l.406-.113c.4-.111.832-.215,1.247-.316a18.167,18.167,0,0,0,2.8-.837l.069-.03L68.3-27.9c.011,0,.285-.03.684-.03,1.046,0,2.894.2,3.524,1.529a3.477,3.477,0,0,1-1.145,4.46,53.714,53.714,0,0,0-5.613,5.14,17.266,17.266,0,0,1,3.91-.468,13.252,13.252,0,0,1,4.292.679,11.183,11.183,0,0,1,4.286,2.659l0,0a10.422,10.422,0,0,1,2.988,5.51,9.891,9.891,0,0,1-.669,5.562l0,.011a12.678,12.678,0,0,1-3.4,4.476A17.5,17.5,0,0,1,72.555,4.4a25.973,25.973,0,0,1-8.836,1.908Zm-.1-3.66a1.19,1.19,0,0,0-.852.4,1.427,1.427,0,0,0-.411,1.021A1.4,1.4,0,0,0,63.7,5.306a24.932,24.932,0,0,0,8.473-1.831c3.645-1.527,6.161-3.789,7.478-6.724a8.892,8.892,0,0,0,.6-4.994,9.442,9.442,0,0,0-2.714-4.982,10.766,10.766,0,0,0-7.872-3.046,16.384,16.384,0,0,0-4.6.687l-.023.006a.7.7,0,0,1-.169.021.738.738,0,0,1-.673-.453.652.652,0,0,1,.127-.707,53,53,0,0,1,6.431-6.019l.021-.016a2.467,2.467,0,0,0,.835-3.208l-.005-.011c-.408-.866-1.969-.96-2.622-.96-.232,0-.415.011-.509.018a19.46,19.46,0,0,1-2.884.858c-.427.1-.829.2-1.217.308l-.4.112a24.45,24.45,0,0,1-4.684.99h-.017a1.537,1.537,0,0,0-1.4,1.332,1.151,1.151,0,0,0,.32.862,1.63,1.63,0,0,0,1.2.445,2.565,2.565,0,0,0,.317-.02,43.3,43.3,0,0,0,4.7-1.032c.569-.147,1.063-.275,1.424-.356a.7.7,0,0,1,.195-.029.542.542,0,0,1,.553.451.55.55,0,0,1-.3.578,39.462,39.462,0,0,0-6.494,7.528,73.368,73.368,0,0,1-6.843,8.349A2.383,2.383,0,0,0,52.105-4.9a1.315,1.315,0,0,0,.386.907,1.949,1.949,0,0,0,1.015.325,1.417,1.417,0,0,0,.953-.384c1.59-1.594,4.841-5.775,4.873-5.817l.025-.032.03-.028A13.561,13.561,0,0,1,63.9-12.444a17.461,17.461,0,0,1,5.727-1.092,8.463,8.463,0,0,1,7.168,3.394,6.1,6.1,0,0,1,.478,5.882l-.01.023A10.376,10.376,0,0,1,72.936.19a23.846,23.846,0,0,1-9.283,2.455ZM28.46-7.837H13.052a1.4,1.4,0,0,1-1.359-1.4v-1.491a1.394,1.394,0,0,1,1.359-1.358H28.46a1.36,1.36,0,0,1,1.359,1.358V-9.24A1.367,1.367,0,0,1,28.46-7.837ZM13.052-11.09a.394.394,0,0,0-.359.358V-9.24a.4.4,0,0,0,.359.4H28.46a.372.372,0,0,0,.359-.4v-1.491a.359.359,0,0,0-.359-.358Zm15.408-3.8H13.052a1.4,1.4,0,0,1-1.359-1.4v-1.943a1.394,1.394,0,0,1,1.359-1.359H28.46a1.36,1.36,0,0,1,1.359,1.359v1.943A1.367,1.367,0,0,1,28.46-14.885ZM13.052-18.59a.394.394,0,0,0-.359.359v1.943a.4.4,0,0,0,.359.4H28.46a.372.372,0,0,0,.359-.4v-1.943a.359.359,0,0,0-.359-.359ZM28.46-22.431H13.052a1.394,1.394,0,0,1-1.359-1.358V-25.1a1.4,1.4,0,0,1,1.359-1.4H28.46a1.367,1.367,0,0,1,1.359,1.4v1.31A1.36,1.36,0,0,1,28.46-22.431ZM13.052-25.5a.4.4,0,0,0-.359.4v1.31a.394.394,0,0,0,.359.358H28.46a.359.359,0,0,0,.359-.358V-25.1a.372.372,0,0,0-.359-.4Z" transform="translate(-186.156 -1879.974)"/>
  </g>
</svg>
