<svg xmlns="http://www.w3.org/2000/svg" width="64.091" height="59.348" viewBox="0 0 64.091 59.348">
  <g id="b" transform="translate(15.909 2.409) rotate(21)">
    <path id="パス_155" data-name="パス 155" d="M11.842-.331c8.284,0,27.455,16.075,27.455,28.5S23.284,45,15,45,.566,33.04.566,20.614,3.558-.331,11.842-.331Z" transform="matrix(0.559, -0.829, 0.829, 0.559, -1.855, 22.565)" fill="#fff"/>
    <g id="c" transform="translate(0.001 0)">
      <path id="パス_153" data-name="パス 153" d="M.667,20.269a9.456,9.456,0,0,1-.589-4.622,8.5,8.5,0,0,1,1.836-4.171l0,0h0A28.185,28.185,0,0,1,13.184,3.783,49.35,49.35,0,0,1,23.532,1.177C24.4,1.089,25.265.954,26.142.9A35.7,35.7,0,0,0,30.158.271a14.231,14.231,0,0,1,4.336-.19c.526.091.138.072,2.22.656,0,0,.865.29,3.982,1.474a1.428,1.428,0,0,1,.906,1.6,1.358,1.358,0,0,1-1.128,1.342A19.664,19.664,0,0,1,34.979,6.2a3.692,3.692,0,0,0-.451.033c-2.077.135-5.278.154-6.881.245A32.65,32.65,0,0,0,16.684,9.323h0C9.388,11.377,7.1,13.569,7.1,13.569a4.649,4.649,0,0,0-1.269,1.807,5.506,5.506,0,0,0,.649,4.541,15.388,15.388,0,0,0,3.013,3.365c2.165,2.1,4.127,4.419,6.624,6.166a38.146,38.146,0,0,0,7.727,4.14c4.37,1.748,8.784,3.385,13.167,5.1a11.261,11.261,0,0,1,1.73.979,1.626,1.626,0,0,1,.726,1.2,3.342,3.342,0,0,1-.228,2.6,3.064,3.064,0,0,1-2.4.932s-3.849.184-11.462-3.637A49.68,49.68,0,0,1,13.587,34.4c-.322-.241-2.007-1.77-5.378-4.828a32.827,32.827,0,0,1-6.131-6.665,12.453,12.453,0,0,1-1.411-2.64Z" transform="translate(-0.001 0)"/>
    </g>
  </g>
</svg>
