<svg xmlns="http://www.w3.org/2000/svg" width="52.963" height="52.963" viewBox="0 0 52.963 52.963">
  <g id="グループ_540" data-name="グループ 540" transform="translate(-508.939 -443.952)">
    <ellipse id="楕円形_46" data-name="楕円形 46" cx="26.481" cy="26.481" rx="26.481" ry="26.481" transform="translate(508.939 443.952)" fill="#2b2b2b"/>
    <g id="グループ_523" data-name="グループ 523" transform="translate(528.03 459.348)">
      <path id="線_47" data-name="線 47" d="M0,13.085A1.994,1.994,0,0,1-1.414,12.5a2,2,0,0,1,0-2.828L9.671-1.414a2,2,0,0,1,2.828,0,2,2,0,0,1,0,2.828L1.414,12.5A1.994,1.994,0,0,1,0,13.085Z" transform="translate(0 0)" fill="#fff"/>
      <path id="線_48" data-name="線 48" d="M11.085,13.085A1.994,1.994,0,0,1,9.671,12.5L-1.414,1.414a2,2,0,0,1,0-2.828,2,2,0,0,1,2.828,0L12.5,9.671a2,2,0,0,1-1.414,3.414Z" transform="translate(0 11.085)" fill="#fff"/>
    </g>
  </g>
</svg>
