<?xml version="1.0" encoding="utf-8"?>
<!-- Generator: Adobe Illustrator 21.1.0, SVG Export Plug-In . SVG Version: 6.00 Build 0)  -->
<svg version="1.1" id="レイヤー_1" xmlns="http://www.w3.org/2000/svg" xmlns:xlink="http://www.w3.org/1999/xlink" x="0px"
	 y="0px" viewBox="0 0 850.4 850.4" style="enable-background:new 0 0 850.4 850.4;" xml:space="preserve">
<path d="M71.3,683.4c83.5,9.4,157.1-12.1,223.1-62.4c-11.9-2.1-22.9-3.6-33.7-6.2c-20.3-4.8-38.9-13.7-55-26.9
	c-12.4-10.1-23.9-21.4-32.5-35c-7.1-11.2-13.5-22.8-17.7-35.4c-0.5-1.6-0.9-3.2-1.6-6c22.5,6.7,44,4.5,66.5-1.6
	c-35.5-9.4-64.5-27.5-86.6-55.8c-22.1-28.3-32.9-60.8-32.8-97.3c21,10.4,42.4,17.9,66,18.4c-5.5-5.1-11.1-10.1-16.6-15.2
	c-16.5-15.3-28.6-33.7-37-54.5c-9.5-23.6-12.8-48.2-10.3-73.6c2-20.5,7.7-39.8,17.4-58c0.7-1.2,1.4-2.4,2.8-4.8
	c0.8,1.5,1.2,2.4,1.8,3.1c16.8,20.5,35.2,39.5,55.3,56.9c14.2,12.2,29.4,22.8,44.7,33.4c21.9,15.2,46,26.3,70.3,37.1
	c35.7,15.8,73.3,24.2,111.8,29.1c8.6,1.1,17.3,1.5,25.9,2.2c0.3,0,0.7-0.1,1.4-0.3c-0.8-5.5-1.7-10.9-2.5-16.3
	c-2.1-15.3-1.4-30.5,1.3-45.7c4.8-26.8,15.9-50.6,33.1-71.9c11.3-13.9,24.8-24.6,39.8-34c25.5-16.1,53.5-22,83.2-20.9
	c21.8,0.8,42.7,6,61.8,16.6c14.4,8,28,17.3,39.3,29.5c1.5,1.6,2.7,2.1,5,1.6c27.7-5.8,54.1-15.2,79.2-28.4c4.6-2.4,8.9-5.5,13.8-7.8
	c-5.4,17.3-14.2,32.8-24.7,47.3c-10.6,14.6-24.5,25.9-39.5,37c30-2.3,57.1-12.7,84.8-22.4c-1.5,2-3.1,4-4.5,6.1
	c-11.1,15.3-23,30-36.8,43c-10.2,9.5-20.8,18.4-31.4,27.5c-1.8,1.5-2.7,2.9-2.6,5.4c1.3,24.7-0.2,49.3-3.6,73.8
	c-5,36.5-14.3,71.8-27.6,106.1c-9.7,24.9-21.3,48.9-35.4,71.6c-7.5,12-15.3,23.9-23.7,35.3c-8.9,11.9-18.2,23.6-28.4,34.5
	c-11.8,12.6-24.6,24.3-37.1,36.2c-14.7,14.1-31.9,24.7-48.7,35.9c-23.4,15.6-49,26.3-74.9,36.6c-30.6,12.2-62.5,18.7-95,22.7
	c-32.7,4-65.6,4.4-98.4,1.1c-33.1-3.3-65.5-9.7-96.6-21.2c-26.6-9.8-52.6-21-77-35.7C82,691,77.2,687.4,71.3,683.4z"/>
</svg>
