<svg xmlns="http://www.w3.org/2000/svg" width="65" height="53.501" viewBox="0 0 65 53.501">
  <g id="グループ_492" data-name="グループ 492" transform="translate(-110 -4013.499)">
    <g id="グループ_490" data-name="グループ 490">
      <circle id="楕円形_30" data-name="楕円形 30" cx="15" cy="15" r="15" transform="translate(110 4037)" fill="#d3d3d3"/>
      <path id="線_38" data-name="線 38" d="M0,31a4.976,4.976,0,0,1-2.494-.67A5,5,0,0,1-4.331,23.5l15-26A5,5,0,0,1,17.5-4.331,5,5,0,0,1,19.331,2.5l-15,26A5,5,0,0,1,0,31Z" transform="translate(117.5 4018.5)" fill="#d3d3d3"/>
    </g>
    <g id="グループ_491" data-name="グループ 491" transform="translate(35)">
      <circle id="楕円形_30-2" data-name="楕円形 30" cx="15" cy="15" r="15" transform="translate(110 4037)" fill="#d3d3d3"/>
      <path id="線_38-2" data-name="線 38" d="M0,31a4.976,4.976,0,0,1-2.494-.67A5,5,0,0,1-4.331,23.5l15-26A5,5,0,0,1,17.5-4.331,5,5,0,0,1,19.331,2.5l-15,26A5,5,0,0,1,0,31Z" transform="translate(117.5 4018.5)" fill="#d3d3d3"/>
    </g>
  </g>
</svg>
