<svg xmlns="http://www.w3.org/2000/svg" width="20.169" height="19.399" viewBox="0 0 20.169 19.399">
  <g id="b" transform="translate(0 0)">
    <g id="c" transform="translate(0 0)">
      <path id="パス_4" data-name="パス 4" d="M12.944,5.147a2.388,2.388,0,0,0,1.566,1.21l5.109.9c.606.107.731.534.278.95l-3.821,3.509a2.389,2.389,0,0,0-.667,1.863l.724,5.137c.086.609-.282.86-.817.557L10.8,16.722a2.389,2.389,0,0,0-1.978-.059L4.158,18.939c-.553.27-.9,0-.783-.605L4.4,13.249a2.39,2.39,0,0,0-.555-1.9L.244,7.62c-.427-.442-.277-.861.334-.931L5.731,6.1A2.39,2.39,0,0,0,7.366,4.981L9.8.4c.288-.543.734-.53.989.029l2.156,4.718Z" transform="translate(0 0)" fill="#cad7db"/>
    </g>
  </g>
</svg>
