<svg xmlns="http://www.w3.org/2000/svg" xmlns:xlink="http://www.w3.org/1999/xlink" width="60" height="60" viewBox="0 0 60 60">
  <defs>
    <clipPath id="clip-アートボード_17">
      <rect width="60" height="60"/>
    </clipPath>
  </defs>
  <g id="アートボード_17" data-name="アートボード – 17" clip-path="url(#clip-アートボード_17)">
    <g id="ネクタイアイコン2" transform="translate(18.465 6.521)">
      <path id="パス_255" data-name="パス 255" d="M130.234,137.568l.616,5.851a1.192,1.192,0,0,0,1.675.962l3.334-1.5,2.708-23.133Z" transform="translate(-130.234 -108.766)" fill="#707070"/>
      <path id="パス_256" data-name="パス 256" d="M226.346,115.167a.817.817,0,0,0-.812-.722h-7.211a.817.817,0,0,0-.811.722l-3.251,27.758a2.126,2.126,0,0,0,.652,1.792l6.23,5.878a1.144,1.144,0,0,0,1.57,0l6.23-5.878a2.124,2.124,0,0,0,.652-1.792Z" transform="translate(-206.541 -103.949)" fill="#707070"/>
      <path id="パス_257" data-name="パス 257" d="M235.086,7.006a1.227,1.227,0,0,0,1.189.926h6.755a1.225,1.225,0,0,0,1.189-.926L245.5,1.932A1.553,1.553,0,0,0,243.993,0h-8.68a1.553,1.553,0,0,0-1.506,1.932Z" transform="translate(-224.265)" fill="#707070"/>
    </g>
  </g>
</svg>
