<svg xmlns="http://www.w3.org/2000/svg" xmlns:xlink="http://www.w3.org/1999/xlink" width="60" height="60" viewBox="0 0 60 60">
  <defs>
    <clipPath id="clip-アートボード_19">
      <rect width="60" height="60"/>
    </clipPath>
  </defs>
  <g id="アートボード_19" data-name="アートボード – 19" clip-path="url(#clip-アートボード_19)">
    <g id="ノートパソコンのアイコン素材3" transform="translate(6.129 -51.507)">
      <path id="パス_261" data-name="パス 261" d="M37.842,92.232H73.484a2.783,2.783,0,0,0,2.781-2.78V66.344a2.784,2.784,0,0,0-2.781-2.781H37.842a2.784,2.784,0,0,0-2.78,2.781V89.452A2.782,2.782,0,0,0,37.842,92.232ZM39.7,67.981H71.629V87.814H39.7Z" transform="translate(-31.793 0)" fill="#707070"/>
      <path id="パス_262" data-name="パス 262" d="M0,401.625v2.019a2.348,2.348,0,0,0,2.344,2.346H45.4a2.348,2.348,0,0,0,2.346-2.346v-2.019Z" transform="translate(0 -306.539)" fill="#707070"/>
    </g>
  </g>
</svg>
