<svg xmlns="http://www.w3.org/2000/svg" width="20.273" height="19.499" viewBox="0 0 20.273 19.499">
  <g id="b" transform="translate(0 0)">
    <g id="c" transform="translate(0 0)">
      <path id="パス_3" data-name="パス 3" d="M13.011,5.173A2.4,2.4,0,0,0,14.585,6.39l5.135.9c.609.107.734.537.279.955l-3.841,3.527a2.4,2.4,0,0,0-.671,1.873l.728,5.163c.086.612-.283.864-.822.56l-4.541-2.563a2.4,2.4,0,0,0-1.988-.059L4.179,19.037c-.555.271-.909,0-.787-.609l1.034-5.111a2.4,2.4,0,0,0-.558-1.909L.245,7.659c-.429-.444-.279-.866.335-.936l5.18-.6A2.4,2.4,0,0,0,7.4,5.006L9.85.4c.29-.546.737-.532.994.03Z" transform="translate(0 0)" fill="#ffce00"/>
    </g>
  </g>
</svg>
