<svg xmlns="http://www.w3.org/2000/svg" width="349.536" height="66.88" viewBox="0 0 349.536 66.88">
  <path id="パス_202" data-name="パス 202" d="M6.248-66h14.08v25.784H20.5A16.494,16.494,0,0,1,33.792-46.64q8.272,0,12.056,4.84t3.784,16.544V0h-13.9V-23.76q0-7.128-1.5-9.548t-5.28-2.42q-3.432,0-6.028,3.564a13.472,13.472,0,0,0-2.6,8.14V0H6.248Zm74.36,19.36q11,0,15.708,4.18t4.708,13.684V-12.32A57.026,57.026,0,0,0,102.344,0H88.968a64.772,64.772,0,0,1-.88-6.424h-.176A16.77,16.77,0,0,1,81.532-1.1a18.722,18.722,0,0,1-8.4,1.98q-6.6,0-10.56-3.7t-3.96-10.12A14.19,14.19,0,0,1,65.076-25.08q6.468-4.576,18.612-4.576h3.256v-.176q0-3.872-1.54-5.368t-5.412-1.5a38.92,38.92,0,0,0-17.16,3.96L60.984-42.68A47.681,47.681,0,0,1,80.608-46.64ZM71.456-14.256a4.741,4.741,0,0,0,1.452,3.7,5.6,5.6,0,0,0,3.916,1.32,10.094,10.094,0,0,0,7.26-2.728,9.19,9.19,0,0,0,2.86-6.952v-2.112H83.688q-5.984,0-9.108,1.848A5.561,5.561,0,0,0,71.456-14.256Zm41.624-31.5h12.76l.264,6.16h.176q5.1-7.04,12.056-7.04a13.21,13.21,0,0,1,6.864,1.584,13.887,13.887,0,0,1,4.752,5.456h.176q6.16-7.04,13.816-7.04,7.48,0,10.868,4.136t3.388,14.08V0H164.648V-25.784q0-6.16-1.188-8.184T159.1-35.992q-2.728,0-4.664,2.86a12.849,12.849,0,0,0-1.936,7.348V0H138.952V-25.784q0-6.16-1.144-8.184T133.5-35.992q-2.728,0-4.664,2.86a12.849,12.849,0,0,0-1.936,7.348V0H113.08ZM191.576,0V-66h14.872V0Zm39.512-26.928h18.128q-.088-10.12-8.976-10.12a8.28,8.28,0,0,0-6.424,2.6Q231.44-31.856,231.088-26.928Zm.088,8.712a10.05,10.05,0,0,0,3.652,6.732,12.252,12.252,0,0,0,7.876,2.42,27.922,27.922,0,0,0,12.76-3.168l3.08,9.592A41.377,41.377,0,0,1,241.384.88q-10.912,0-17.556-6.424T217.184-22.88q0-11,6.16-17.38t16.544-6.38q10.648,0,16.544,6.116t5.9,17.468a29.691,29.691,0,0,1-.352,4.84ZM291.984-44h14.96v9.944h-14.96V-17.6q0,4.752,1.144,6.336t4.136,1.584a24.558,24.558,0,0,0,7.92-1.408L306.768-.88A47.159,47.159,0,0,1,293.92.88q-8.448,0-12.364-3.784t-3.916-12.32V-34.056h-9.416V-44h9.416V-60.72h14.344ZM352-33.352a38.417,38.417,0,0,0-14.7-3.08q-4.048,0-5.676.924A3,3,0,0,0,330-32.736a3.2,3.2,0,0,0,1.452,2.772,12.735,12.735,0,0,0,5.148,1.54q10.3,1.32,14.74,5.016T355.784-13.2a12.173,12.173,0,0,1-5.06,10.3Q345.664.88,336.16.88a45.737,45.737,0,0,1-20.24-4.4l2.64-10.208a32.676,32.676,0,0,0,16.456,4.312q6.688,0,6.688-4.048a2.994,2.994,0,0,0-1.276-2.64q-1.276-.88-5.324-1.5-10.12-1.584-14.52-5.324A12.544,12.544,0,0,1,316.184-33a11.692,11.692,0,0,1,5.06-9.944q5.06-3.7,14.916-3.7a53.3,53.3,0,0,1,18.48,3.256Z" transform="translate(-6.248 66)" fill="#eaeaea"/>
</svg>
