<svg xmlns="http://www.w3.org/2000/svg" width="33.061" height="123.001" viewBox="0 0 33.061 123.001">
  <g id="グループ_488" data-name="グループ 488" transform="translate(68.261 -366)">
    <g id="グループ_10" data-name="グループ 10" transform="translate(-125.651 -275.5)">
      <path id="線_6" data-name="線 6" d="M0,118a5,5,0,0,1-5-5V0A5,5,0,0,1,0-5,5,5,0,0,1,5,0V113A5,5,0,0,1,0,118Z" transform="translate(62.5 646.5)" fill="#fff"/>
      <path id="線_7" data-name="線 7" d="M0,23a4.976,4.976,0,0,1-2.6-.734,5,5,0,0,1-1.659-6.874l11-18a5,5,0,0,1,6.874-1.659,5,5,0,0,1,1.659,6.874l-11,18A5,5,0,0,1,0,23Z" transform="translate(62.391 741.5)" fill="#fff"/>
      <path id="線_45" data-name="線 45" d="M0,116a3,3,0,0,1-3-3V0A3,3,0,0,1,0-3,3,3,0,0,1,3,0V113A3,3,0,0,1,0,116Z" transform="translate(62.5 646.5)" fill="#2b2b2b"/>
      <path id="線_46" data-name="線 46" d="M0,21a2.986,2.986,0,0,1-1.561-.441,3,3,0,0,1-1-4.124l11-18a3,3,0,0,1,4.124-1,3,3,0,0,1,1,4.124l-11,18A3,3,0,0,1,0,21Z" transform="translate(62.391 741.5)" fill="#2b2b2b"/>
    </g>
    <path id="パス_201" data-name="パス 201" d="M10.66,9.8a8.906,8.906,0,0,0-4-.94,2.631,2.631,0,0,0-1.58.4,1.275,1.275,0,0,0-.54,1.08q0,1.12,1.68,1.6a10.167,10.167,0,0,1,4.19,1.96,3.858,3.858,0,0,1,1.21,2.94,3.858,3.858,0,0,1-1.44,3.24A6.853,6.853,0,0,1,5.92,21.2a9.494,9.494,0,0,1-2.62-.39A8.021,8.021,0,0,1,1.02,19.8l.8-2.66a7.391,7.391,0,0,0,4.24,1.4,2.449,2.449,0,0,0,1.57-.43,1.47,1.47,0,0,0,.53-1.21,1.355,1.355,0,0,0-.43-1.04,3.914,3.914,0,0,0-1.51-.72,9.636,9.636,0,0,1-3.94-1.95,3.789,3.789,0,0,1-1.2-2.85A3.636,3.636,0,0,1,2.51,7.32,6.362,6.362,0,0,1,6.52,6.2a10.988,10.988,0,0,1,4.76.96Zm10.4-.86a4.373,4.373,0,0,0-3.31,1.26,4.845,4.845,0,0,0-1.21,3.5,4.745,4.745,0,0,0,1.26,3.48,4.374,4.374,0,0,0,3.26,1.28,6.276,6.276,0,0,0,3.44-1.1l.96,2.48a8.225,8.225,0,0,1-4.74,1.36,7.675,7.675,0,0,1-5.57-2.02,7.266,7.266,0,0,1-2.09-5.48,7.37,7.37,0,0,1,2.03-5.5,7.675,7.675,0,0,1,5.63-2,8.225,8.225,0,0,1,4.74,1.36l-.96,2.48A6.276,6.276,0,0,0,21.06,8.94ZM31.44,15.6V21H28.1V6.5a35.639,35.639,0,0,1,4.8-.3,7.294,7.294,0,0,1,4.47,1.13,3.811,3.811,0,0,1,1.47,3.21,3.991,3.991,0,0,1-.78,2.41A4.277,4.277,0,0,1,36,14.48v.04a4.259,4.259,0,0,1,1.7,2.38L39.24,21h-3.5l-1.38-3.96a2.317,2.317,0,0,0-.68-1.14,2.071,2.071,0,0,0-1.24-.3Zm0-2.5h1.12a3.367,3.367,0,0,0,2.14-.59,1.991,1.991,0,0,0,.74-1.65q0-2.08-2.74-2.08a5.858,5.858,0,0,0-1.26.12ZM42.38,8.22a7.3,7.3,0,0,1,5.4-2.02,7.264,7.264,0,0,1,5.39,2.02,7.426,7.426,0,0,1,2.01,5.48,7.426,7.426,0,0,1-2.01,5.48,7.264,7.264,0,0,1-5.39,2.02,7.264,7.264,0,0,1-5.39-2.02,7.426,7.426,0,0,1-2.01-5.48A7.447,7.447,0,0,1,42.38,8.22Zm2.5,8.98a4.092,4.092,0,0,0,5.79,0,5.234,5.234,0,0,0,1.03-3.5,5.234,5.234,0,0,0-1.03-3.5,4.08,4.08,0,0,0-5.78,0,5.234,5.234,0,0,0-1.03,3.5A5.27,5.27,0,0,0,44.88,17.2ZM60.82,6.4V18.18h6.16V21H57.32V6.4Zm12.2,0V18.18h6.16V21H69.52V6.4Z" transform="translate(-31 368) rotate(90)" fill="#2b2b2b"/>
    <path id="パス_201_-_アウトライン" data-name="パス 201 - アウトライン" d="M6.52,6.2A6.362,6.362,0,0,0,2.51,7.32a3.635,3.635,0,0,0-1.43,3.02,3.789,3.789,0,0,0,1.2,2.85,9.635,9.635,0,0,0,3.94,1.95,3.913,3.913,0,0,1,1.51.72,1.355,1.355,0,0,1,.43,1.04,1.47,1.47,0,0,1-.53,1.21,2.449,2.449,0,0,1-1.57.43,7.391,7.391,0,0,1-4.24-1.4l-.8,2.66A8.022,8.022,0,0,0,3.3,20.81a9.494,9.494,0,0,0,2.62.39,6.853,6.853,0,0,0,4.26-1.12,3.858,3.858,0,0,0,1.44-3.24,3.858,3.858,0,0,0-1.21-2.94,10.167,10.167,0,0,0-4.19-1.96q-1.68-.48-1.68-1.6a1.275,1.275,0,0,1,.54-1.08,2.631,2.631,0,0,1,1.58-.4,8.906,8.906,0,0,1,4,.94l.62-2.64A10.988,10.988,0,0,0,6.52,6.2m14.2,0a7.675,7.675,0,0,0-5.63,2,7.37,7.37,0,0,0-2.03,5.5,7.266,7.266,0,0,0,2.09,5.48,7.675,7.675,0,0,0,5.57,2.02,8.225,8.225,0,0,0,4.74-1.36l-.96-2.48a6.276,6.276,0,0,1-3.44,1.1,4.374,4.374,0,0,1-3.26-1.28,4.745,4.745,0,0,1-1.26-3.48,4.845,4.845,0,0,1,1.21-3.5,4.373,4.373,0,0,1,3.31-1.26,6.276,6.276,0,0,1,3.44,1.1l.96-2.48A8.225,8.225,0,0,0,20.72,6.2m12.18,0a35.639,35.639,0,0,0-4.8.3V21h3.34V15.6h1a2.071,2.071,0,0,1,1.24.3,2.317,2.317,0,0,1,.68,1.14L35.74,21h3.5L37.7,16.9A4.259,4.259,0,0,0,36,14.52v-.04a4.277,4.277,0,0,0,2.06-1.53,3.991,3.991,0,0,0,.78-2.41,3.811,3.811,0,0,0-1.47-3.21A7.294,7.294,0,0,0,32.9,6.2m-.34,6.9H31.44V8.9a5.858,5.858,0,0,1,1.26-.12q2.74,0,2.74,2.08a1.991,1.991,0,0,1-.74,1.65,3.367,3.367,0,0,1-2.14.59M47.78,6.2a7.3,7.3,0,0,0-5.4,2.02,7.447,7.447,0,0,0-2,5.48,7.426,7.426,0,0,0,2.01,5.48,7.264,7.264,0,0,0,5.39,2.02,7.264,7.264,0,0,0,5.39-2.02,7.426,7.426,0,0,0,2.01-5.48,7.426,7.426,0,0,0-2.01-5.48A7.264,7.264,0,0,0,47.78,6.2m0,12.2a3.633,3.633,0,0,1-2.9-1.2,5.27,5.27,0,0,1-1.02-3.5,5.234,5.234,0,0,1,1.03-3.5,4.08,4.08,0,0,1,5.78,0,5.235,5.235,0,0,1,1.03,3.5,5.235,5.235,0,0,1-1.03,3.5,3.6,3.6,0,0,1-2.89,1.2m9.54-12V21h9.66V18.18H60.82V6.4h-3.5m12.2,0V21h9.66V18.18H73.02V6.4h-3.5m-63-2.2a13.009,13.009,0,0,1,5.618,1.154l1.457.693L13.34,7.137q.167-.185.347-.362A9.627,9.627,0,0,1,20.72,4.2,10.354,10.354,0,0,1,26.1,5.6V4.754l1.73-.236A37.8,37.8,0,0,1,32.9,4.2a9.08,9.08,0,0,1,5.689,1.544A5.6,5.6,0,0,1,40.2,7.685a8.536,8.536,0,0,1,.755-.872l.007-.007A9.255,9.255,0,0,1,47.78,4.2a9.22,9.22,0,0,1,6.808,2.609,8.548,8.548,0,0,1,.732.838V4.4h7.5V16.18h4.7V4.4h7.5V16.18h6.16V23H55.32V19.753a8.548,8.548,0,0,1-.732.838A9.22,9.22,0,0,1,47.78,23.2a9.334,9.334,0,0,1-6.419-2.242L42.128,23H34.319l-.879-2.522V23H26.1V21.8a10.354,10.354,0,0,1-5.38,1.4,9.636,9.636,0,0,1-6.96-2.582,8.642,8.642,0,0,1-.783-.865,5.57,5.57,0,0,1-1.569,1.906A8.776,8.776,0,0,1,5.92,23.2a11.533,11.533,0,0,1-3.171-.467A10.037,10.037,0,0,1-.1,21.459l-1.222-.823,1.9-6.324A5.806,5.806,0,0,1-.92,10.34a5.634,5.634,0,0,1,2.2-4.595A8.306,8.306,0,0,1,6.52,4.2Zm18.958,8.855-2.064-1.336a4.291,4.291,0,0,0-2.353-.779,2.348,2.348,0,0,0-1.867.645A2.935,2.935,0,0,0,18.54,13.7a2.822,2.822,0,0,0,.685,2.077,2.361,2.361,0,0,0,1.835.683,4.291,4.291,0,0,0,2.353-.779l2.064-1.336.622,1.608V11.447ZM47.78,16.4a1.608,1.608,0,0,0,1.372-.5,3.468,3.468,0,0,0,.548-2.2,3.468,3.468,0,0,0-.548-2.2,2.125,2.125,0,0,0-2.745,0,3.468,3.468,0,0,0-.548,2.2,3.525,3.525,0,0,0,.538,2.2A1.641,1.641,0,0,0,47.78,16.4Z" transform="translate(-31 368) rotate(90)" fill="#fff"/>
  </g>
</svg>
