<svg xmlns="http://www.w3.org/2000/svg" xmlns:xlink="http://www.w3.org/1999/xlink" width="80" height="362" viewBox="0 0 80 362">
  <defs>
    <clipPath id="clip-アートボード_15">
      <rect width="80" height="362"/>
    </clipPath>
  </defs>
  <g id="アートボード_15" data-name="アートボード – 15" clip-path="url(#clip-アートボード_15)">
    <g id="グループ_486" data-name="グループ 486" transform="matrix(0.259, 0.966, -0.966, 0.259, -3467.091, -4839.978)">
      <path id="パス_242" data-name="パス 242" d="M10.192-20.124H22.568v-8.06h-9.36A73.3,73.3,0,0,1,10.192-20.124ZM22.568-42.536H31.1v7.384h16.38v6.968H31.1v8.06h13.78v6.76H31.1v10.14H49.14V3.744H2.86V-3.224H22.568v-10.14H8.632v-3.38L1.508-20.02A109.359,109.359,0,0,0,8.736-41.652L16.38-40.3q-.208,1.248-1.144,5.148h7.332Z" transform="translate(5584.02 -2102.096) rotate(3)" fill="#2b2b2b"/>
      <path id="パス_243" data-name="パス 243" d="M30.784-17l.1-.1Q30-18.98,29.38-20.488q-11.6.364-24.6.364V-26.78q11.024,0,22.256-.312-.364-1.352-.832-3.224-10.66.26-19.032.26v-6.708q9.828,0,17.888-.208-.26-2.08-.364-4.784l8.008-.468q.1,2.86.364,4.992,4.784-.156,12.532-.572l.208,6.708q-3.64.208-11.544.52.208.78.884,3.224Q46.8-27.82,47.06-27.82l.208,6.656q-6.344.312-9.568.416a48.083,48.083,0,0,0,4.42,7.7L33.9-9.2a29.3,29.3,0,0,0-10.5-2.444q-7.28,0-7.28,3.328,0,2.236,2.626,3.3t9.282,1.066A84.894,84.894,0,0,0,40.4-4.992l.884,6.916a85.777,85.777,0,0,1-13.26,1.04Q7.644,2.964,7.644-8.32a8.053,8.053,0,0,1,3.978-7.072q3.978-2.6,11.778-2.6A29.679,29.679,0,0,1,30.784-17Z" transform="translate(5634.521 -2097.777) rotate(8)" fill="#2b2b2b"/>
      <path id="パス_244" data-name="パス 244" d="M5.46-37.024H25.636V-41.6h8.008v4.576h12.9V-29.9h-12.9v3.276h10.92v6.968H33.644v7.332a71.873,71.873,0,0,1,11.8,9.152L40.56,2.236a89.737,89.737,0,0,0-7.436-6.344,8.638,8.638,0,0,1-4.082,5.72Q25.948,3.38,20.28,3.38q-5.72,0-8.918-2.626a9.049,9.049,0,0,1-3.2-7.41,8.818,8.818,0,0,1,3.042-7.072q3.042-2.6,9.074-2.6a21.6,21.6,0,0,1,5.356.676v-4H7.436v-6.968h18.2V-29.9H5.46ZM25.636-8.476a11.764,11.764,0,0,0-4.472-.936q-4.94,0-4.94,2.756,0,2.912,4.056,2.912,3.12,0,4.212-.962T25.636-8.476Z" transform="translate(5689.088 -2091.385) rotate(10)" fill="#2b2b2b"/>
      <path id="パス_245" data-name="パス 245" d="M9.672-40.456l8.632.208q-.78,13.364-.78,22.828,0,7.54,1.638,10.01t5.9,2.47a11.7,11.7,0,0,0,8.164-3.38q3.64-3.38,6.708-10.972l7.54,2.86Q40.248,3.016,25.064,3.016q-6.188,0-9.594-1.82A10.729,10.729,0,0,1,10.5-5.018q-1.56-4.394-1.56-12.4Q8.944-28.808,9.672-40.456Z" transform="matrix(0.966, 0.259, -0.259, 0.966, 5736.517, -2082.291)" fill="#2b2b2b"/>
      <path id="パス_246" data-name="パス 246" d="M25.168-33.228h7.176v4.108q12.22,1.144,12.22,12.532,0,5.876-3.38,9.048T31.356-4a10.563,10.563,0,0,1-3.2,4.836A18.437,18.437,0,0,1,22.048,4L18.564-1.56q3.9-1.456,5.148-3.328A17.292,17.292,0,0,1,17.056-9.2l3.692-5.3a14,14,0,0,0,4.42,3.068V-21.788a14.467,14.467,0,0,0-7.514,6.4A21.153,21.153,0,0,0,14.768-4.16H8.32V-29.016h6.6v7.592h.052A17.613,17.613,0,0,1,25.168-28.6ZM32.344-22.36v11.544q4.992-.936,4.992-5.772T32.344-22.36Z" transform="translate(5781.779 -2072.234) rotate(18)" fill="#2b2b2b"/>
      <path id="パス_247" data-name="パス 247" d="M9.152-29.38l8.164.676q-.884,6.708-1.2,8.84l.052.052Q23.608-24.6,30.784-24.6q8.008,0,11.7,3.068t3.692,9.568a12.409,12.409,0,0,1-5.9,10.868Q34.372,2.86,23.348,2.86a116.431,116.431,0,0,1-12.636-.728l.624-7.176q7.54.78,12.012.78,6.344,0,9.828-2.08A6.314,6.314,0,0,0,36.66-11.96q0-5.564-7.124-5.564-5.824,0-15.5,5.928L6.552-13.208Q7.956-20.956,9.152-29.38Zm5.1-10.4a212.9,212.9,0,0,0,25.48,1.56V-31.1a221.53,221.53,0,0,1-26.416-1.56Z" transform="matrix(0.946, 0.326, -0.326, 0.946, 5825.79, -2055.593)" fill="#2b2b2b"/>
      <path id="パス_248" data-name="パス 248" d="M27.716-39.468q-3.276,8.06-6.916,17.42l.1.1a9.988,9.988,0,0,1,4.68-1.56,6.245,6.245,0,0,1,5.356,2.548q1.872,2.548,2.652,8.788A19.308,19.308,0,0,0,34.684-7.02q.624,1.3,1.612,1.3,2.7,0,5.564-10.816l7.28,1.976Q46.592-4.888,43.6-1.222a9.3,9.3,0,0,1-7.514,3.666A8.7,8.7,0,0,1,29.25-.26q-2.418-2.7-3.406-9.256A17.781,17.781,0,0,0,24.7-14.144a1.849,1.849,0,0,0-1.612-1.248q-2.288,0-5.044,4.03T10.868,3.328L3.38.676Q13.728-25.948,20.02-41.7Z" transform="translate(5869.151 -2043.119) rotate(27)" fill="#2b2b2b"/>
    </g>
  </g>
</svg>
