<svg xmlns="http://www.w3.org/2000/svg" width="45.752" height="35.171" viewBox="0 0 45.752 35.171">
  <g id="グループ_60" data-name="グループ 60" transform="translate(-912.616 -1969.907)">
    <g id="グループ_52" data-name="グループ 52">
      <g id="b" transform="translate(913.116 1970.408)">
        <g id="c" transform="translate(0 -0.001)">
          <g id="グループ_51" data-name="グループ 51">
            <path id="パス_52" data-name="パス 52" d="M712.1,48.028c-.029.107-.056.214-.086.32a2.556,2.556,0,0,1-.442.865,2.506,2.506,0,0,1-.778.668,2.87,2.87,0,0,1-.734.274,2.418,2.418,0,0,1-.84.037,2.168,2.168,0,0,1-.717-.2,3.14,3.14,0,0,1-.5-.288,2.526,2.526,0,0,1-.762-.907,2.912,2.912,0,0,1-.235-.686,2.544,2.544,0,0,1,.265-1.718,2.583,2.583,0,0,1,.888-.95,2.9,2.9,0,0,1,.639-.291,2.692,2.692,0,0,1,1.07-.093,2.058,2.058,0,0,1,.514.123,2.61,2.61,0,0,1,.866.506,2.531,2.531,0,0,1,.641.867,2.164,2.164,0,0,1,.186.612.217.217,0,0,0,.028.059v.806Z" transform="translate(-667.349 -42.517)" fill="#2b2b2b"/>
            <path id="パス_52_-_アウトライン" data-name="パス 52 - アウトライン" d="M709.561,50.711a3.671,3.671,0,0,1-.395-.023,2.663,2.663,0,0,1-.882-.25,3.619,3.619,0,0,1-.579-.336,3.037,3.037,0,0,1-.912-1.084,3.374,3.374,0,0,1-.277-.8,3.043,3.043,0,0,1,.316-2.071,3.09,3.09,0,0,1,1.058-1.13,3.353,3.353,0,0,1,.748-.342,2.782,2.782,0,0,1,.891-.133c.114,0,.236,0,.374.015a2.536,2.536,0,0,1,.64.149,3.117,3.117,0,0,1,1.031.6,3.037,3.037,0,0,1,.767,1.036,2.711,2.711,0,0,1,.214.672l.045.092v.988l-.044.163c-.02.076-.04.152-.062.228a3.081,3.081,0,0,1-1.457,1.833,3.332,3.332,0,0,1-.86.324A2.572,2.572,0,0,1,709.561,50.711Zm-.031-5.171a1.781,1.781,0,0,0-.575.082,2.4,2.4,0,0,0-.53.239,2.074,2.074,0,0,0-.718.77,1.934,1.934,0,0,0-.234.719,1.907,1.907,0,0,0,.02.647,2.413,2.413,0,0,0,.193.57,2.018,2.018,0,0,0,.613.73,2.662,2.662,0,0,0,.422.241,1.667,1.667,0,0,0,.552.155,1.894,1.894,0,0,0,.668-.025,2.372,2.372,0,0,0,.608-.224,2,2,0,0,0,.626-.535,2.053,2.053,0,0,0,.358-.7c.02-.07.039-.141.057-.212l.01-.038V47.33a.563.563,0,0,1-.023-.1,1.671,1.671,0,0,0-.145-.47,2.044,2.044,0,0,0-.514-.7,2.123,2.123,0,0,0-.7-.411,1.645,1.645,0,0,0-.387-.1C709.717,45.544,709.619,45.54,709.53,45.54Z" transform="translate(-667.349 -42.517)" fill="#fff"/>
            <path id="パス_53" data-name="パス 53" d="M357.621,0a.744.744,0,0,0,.137.048,2.392,2.392,0,0,1,.928.353,2.538,2.538,0,0,1,.989,1.137,1.873,1.873,0,0,1,.189.7,4.021,4.021,0,0,1,.032.426,2.85,2.85,0,0,1-.136.745,2.565,2.565,0,0,1-.994,1.318,2.852,2.852,0,0,1-.588.3c-.094.037-.2.044-.3.077a2.856,2.856,0,0,1-.81.056,1.6,1.6,0,0,1-.431-.077,2.08,2.08,0,0,1-.518-.2,2.632,2.632,0,0,1-.984-.9,2.445,2.445,0,0,1-.3-.657,2.539,2.539,0,0,1-.088-.875c0-.045.01-.089.012-.134a2.1,2.1,0,0,1,.157-.67,2.547,2.547,0,0,1,.37-.652A2.379,2.379,0,0,1,356.125.3c.186-.092.387-.157.582-.23a1.112,1.112,0,0,1,.119-.016c.059-.015.117-.036.176-.054h.618Z" transform="translate(-334.868 0.001)" fill="#2b2b2b"/>
            <path id="パス_53_-_アウトライン" data-name="パス 53 - アウトライン" d="M356.926-.5h.782l.082.029.068.027,0,0a2.876,2.876,0,0,1,1.089.419,3.031,3.031,0,0,1,1.181,1.357,2.365,2.365,0,0,1,.233.889c0,.035.007.08.013.127a1.713,1.713,0,0,1,.018.353,3.348,3.348,0,0,1-.163.874,3.154,3.154,0,0,1-.428.832,3.159,3.159,0,0,1-.753.731,3.338,3.338,0,0,1-.69.359,1.431,1.431,0,0,1-.239.066c-.031.006-.063.013-.078.018a1.784,1.784,0,0,1-.59.084c-.089,0-.177,0-.266,0l-.091,0h-.053a1.592,1.592,0,0,1-.421-.067l-.09-.023a2.532,2.532,0,0,1-.644-.25,3.143,3.143,0,0,1-1.168-1.072,2.949,2.949,0,0,1-.364-.791,3.042,3.042,0,0,1-.107-1.047c0-.026,0-.052.007-.078s0-.027,0-.041a2.61,2.61,0,0,1,.189-.829,3.028,3.028,0,0,1,.441-.779A2.879,2.879,0,0,1,355.9-.148a4.7,4.7,0,0,1,.488-.2l.139-.051a.671.671,0,0,1,.2-.041l.064-.02.058-.019Zm.6,1h-.443c-.04.013-.085.027-.134.039a.707.707,0,0,1-.115.018l-.1.036a3.892,3.892,0,0,0-.387.156,1.888,1.888,0,0,0-.663.55,2.044,2.044,0,0,0-.3.525,1.6,1.6,0,0,0-.125.511c0,.042-.005.08-.009.11,0,.013,0,.025,0,.038a2.047,2.047,0,0,0,.07.7,1.951,1.951,0,0,0,.241.523,2.125,2.125,0,0,0,.8.735,1.575,1.575,0,0,0,.392.157c.043.01.085.021.127.032a.835.835,0,0,0,.166.034c.048,0,.093,0,.144,0,.089,0,.178,0,.266,0a.828.828,0,0,0,.268-.031,1.61,1.61,0,0,1,.2-.051c.028-.006.066-.014.079-.019a2.358,2.358,0,0,0,.486-.25,2.131,2.131,0,0,0,.516-.5,2.173,2.173,0,0,0,.291-.573,2.4,2.4,0,0,0,.109-.616.992.992,0,0,0-.013-.152c-.008-.065-.018-.139-.021-.22a1.368,1.368,0,0,0-.146-.514,2.048,2.048,0,0,0-.8-.918,1.889,1.889,0,0,0-.735-.283A.774.774,0,0,1,357.525.5Z" transform="translate(-334.868 0.001)" fill="#fff"/>
            <path id="パス_54" data-name="パス 54" d="M67.879,155.176q-8.686,0-17.373,0a1.053,1.053,0,0,1-.513-.112.981.981,0,0,1-.483-.587,1.749,1.749,0,0,1-.055-.462q-.03-.6-.063-1.207c-.014-.259-.029-.518-.047-.777-.029-.424-.06-.847-.09-1.27,0-.018,0-.036,0-.054-.023-.5-.043-1-.071-1.5-.022-.416-.054-.831-.079-1.246q-.045-.744-.087-1.489c-.026-.465-.051-.93-.078-1.394-.014-.255-.031-.509-.045-.764-.021-.38-.023-.762-.067-1.139-.034-.295-.031-.589-.049-.884-.019-.326-.037-.652-.055-.978-.017-.308-.032-.617-.053-.925-.026-.388-.058-.775-.087-1.163,0-.009,0-.018,0-.027-.023-.487-.044-.975-.07-1.462-.024-.434-.054-.867-.081-1.3s-.055-.885-.08-1.328c-.029-.509-.054-1.019-.082-1.529-.016-.3-.034-.6-.05-.9-.019-.34-.036-.679-.057-1.019a4.4,4.4,0,0,1-.038-.453.991.991,0,0,1,.5-.843,1.09,1.09,0,0,1,.749-.1.887.887,0,0,1,.363.181c.468.317.935.636,1.4.953s.927.62,1.389.933c.259.176.511.362.77.537.3.205.61.4.913.607s.61.419.916.628q.664.452,1.331.9t1.344.911q.56.378,1.121.753a3.59,3.59,0,0,0,.437.274.906.906,0,0,0,.618.054,1.162,1.162,0,0,0,.645-.477c.27-.342.548-.677.821-1.018.259-.324.515-.651.773-.976.178-.225.357-.45.537-.674.219-.272.44-.541.659-.813q.377-.467.752-.935l1.033-1.291q.41-.512.822-1.023l.854-1.058c.047-.059.088-.122.137-.18a.924.924,0,0,1,.527-.323.88.88,0,0,1,.342-.031,1.07,1.07,0,0,1,.678.4c.386.488.78.97,1.168,1.455.353.441.7.885,1.055,1.325.256.319.518.634.774.953.191.237.376.479.567.716.255.316.513.629.768.945.2.244.387.493.584.737s.393.477.588.717c.177.219.352.441.527.661s.356.461.544.683a.987.987,0,0,0,.547.314.885.885,0,0,0,.45-.018,1.286,1.286,0,0,0,.352-.169c.327-.215.647-.441.97-.66s.638-.426.955-.642c.277-.189.55-.386.827-.575.225-.154.455-.3.68-.454.438-.3.873-.6,1.311-.894.292-.2.587-.389.88-.585s.567-.385.851-.578c.233-.158.467-.313.7-.472.19-.13.377-.264.567-.394s.395-.261.591-.394c.375-.255.748-.512,1.123-.767a1.473,1.473,0,0,1,.415-.227,1.2,1.2,0,0,1,.32-.022.937.937,0,0,1,.874.584.8.8,0,0,1,.071.336c0,.2-.019.4-.031.6,0,.018,0,.036,0,.054-.023.478-.043.957-.07,1.435-.026.46-.058.92-.087,1.38,0,.076-.014.152-.018.228-.024.479-.047.957-.072,1.436-.021.384-.045.768-.068,1.153q-.025.436-.05.871c-.019.344-.021.69-.062,1.032-.037.3-.033.6-.05.9q-.028.489-.055.978c-.017.308-.032.617-.053.925-.026.388-.058.776-.087,1.163,0,.013,0,.027,0,.04-.023.492-.043.984-.07,1.476-.023.425-.054.849-.08,1.273-.028.451-.056.9-.082,1.355-.029.5-.054,1.01-.081,1.515-.016.295-.033.59-.05.885-.019.34-.02.681-.062,1.018-.038.3-.033.607-.05.911s-.036.634-.053.951-.034.634-.054.952c-.014.214-.024.429-.053.641a.957.957,0,0,1-.419.668.869.869,0,0,1-.491.169c-.067,0-.134,0-.2,0H67.879Z" transform="translate(-45.425 -121.007)" fill="#2b2b2b"/>
            <path id="パス_54_-_アウトライン" data-name="パス 54 - アウトライン" d="M50.506,155.678h0a1.54,1.54,0,0,1-.751-.172,1.472,1.472,0,0,1-.721-.875,1.89,1.89,0,0,1-.075-.521c0-.023,0-.045,0-.068-.018-.377-.039-.771-.063-1.2-.017-.31-.031-.547-.046-.771q-.03-.448-.063-.9l-.028-.384c0-.018,0-.035,0-.053q-.011-.231-.021-.462c-.015-.34-.031-.692-.049-1.037-.013-.241-.03-.488-.046-.727-.012-.172-.023-.344-.034-.516q-.045-.745-.087-1.491-.021-.377-.042-.755-.018-.32-.036-.64-.01-.183-.021-.366-.012-.2-.023-.4c-.007-.121-.012-.242-.016-.363-.01-.26-.02-.505-.048-.746-.024-.21-.031-.413-.038-.61,0-.1-.007-.2-.013-.3q-.02-.334-.038-.667l-.017-.313q-.008-.14-.015-.279c-.011-.21-.023-.428-.037-.64-.018-.27-.039-.545-.06-.811q-.013-.174-.027-.348v-.005c0-.011,0-.023,0-.034-.007-.152-.014-.3-.021-.454-.015-.33-.031-.672-.049-1.006-.015-.276-.033-.559-.051-.831q-.015-.232-.03-.465l-.013-.21c-.023-.374-.046-.747-.068-1.121q-.027-.472-.051-.944-.015-.293-.031-.586-.015-.275-.031-.55l-.02-.347q-.009-.16-.018-.32c-.013-.232-.025-.463-.04-.7,0-.042-.009-.091-.015-.142a2.124,2.124,0,0,1-.023-.364,1.487,1.487,0,0,1,.734-1.247,1.357,1.357,0,0,1,.736-.2,2.683,2.683,0,0,1,.339.025,1.23,1.23,0,0,1,.549.242l.031.021.619.421.783.532.613.412q.389.26.776.522c.134.091.266.184.393.274s.252.178.377.263c.156.106.318.213.475.316s.292.192.437.29c.176.119.351.239.525.36l.392.269.937.636.775.525.962.651c.449.3.794.535,1.119.751l.1.07a2.147,2.147,0,0,0,.271.168.409.409,0,0,0,.289.02c.121-.029.21-.1.368-.3s.316-.394.47-.584q.177-.217.352-.436.249-.311.495-.624l.277-.351.078-.1q.23-.29.461-.578l.357-.44.3-.373q.377-.466.751-.934l.529-.661.5-.63q.41-.513.822-1.024l.414-.513.44-.545c.017-.021.032-.042.048-.064.027-.037.058-.079.095-.123a1.426,1.426,0,0,1,.8-.491l.008,0a1.618,1.618,0,0,1,.357-.049.99.99,0,0,1,.172.015,1.563,1.563,0,0,1,.983.58c.232.292.47.588.7.875l.466.579q.25.312.5.626.278.35.557.7c.134.167.269.332.4.5s.247.3.369.454c.1.12.191.24.286.361s.186.237.281.355q.188.234.379.466t.389.479c.1.122.194.244.291.367s.194.247.293.37.2.251.308.376.187.226.279.34c.134.166.268.334.4.5l.133.168.171.218c.123.158.24.307.363.452a.484.484,0,0,0,.281.151.388.388,0,0,0,.2-.013.784.784,0,0,0,.212-.105c.2-.133.409-.275.608-.412l.357-.244.427-.287c.176-.118.352-.235.526-.355.139-.095.276-.191.414-.288s.274-.193.413-.287c.123-.084.247-.166.367-.245s.21-.139.315-.21l.606-.414q.352-.241.705-.481c.162-.109.325-.217.488-.325l.394-.262q.262-.176.522-.354l.328-.223.28-.189q.209-.14.416-.282c.089-.061.178-.123.266-.185s.2-.141.3-.21.2-.136.3-.2.192-.127.287-.191l.587-.4.536-.366.029-.02a1.8,1.8,0,0,1,.532-.275,1.3,1.3,0,0,1,.358-.042h.1a1.439,1.439,0,0,1,1.321.861,1.3,1.3,0,0,1,.124.553c0,.164-.009.319-.02.47,0,.056-.008.113-.011.169,0,.017,0,.033,0,.05v0q-.011.221-.021.442c-.015.325-.031.66-.049.991s-.041.672-.062,1q-.013.193-.025.386c0,.037-.006.075-.009.112s-.006.073-.008.109q-.014.282-.028.563-.021.437-.044.874c-.013.25-.028.5-.044.749q-.012.2-.024.406-.025.435-.05.87c-.006.1-.01.206-.014.309-.01.245-.02.5-.051.755-.022.175-.027.357-.034.548,0,.1-.007.209-.013.316l-.055.978q-.008.141-.015.282c-.011.212-.023.431-.038.648-.018.272-.04.548-.06.814q-.014.177-.027.353l0,.026q-.011.23-.021.458c-.015.334-.031.68-.049,1.021-.015.27-.033.542-.05.806q-.016.235-.031.471l0,.029c-.027.434-.055.882-.08,1.323q-.026.461-.05.923-.016.3-.031.591-.014.262-.029.524l-.02.361c-.006.1-.01.2-.014.3-.01.242-.02.493-.051.748-.022.175-.028.356-.034.547,0,.107-.007.218-.014.331q-.019.329-.037.658l-.032.575c-.012.224-.024.449-.039.673l-.006.1c-.012.187-.024.381-.051.579a1.454,1.454,0,0,1-.626,1.009,1.361,1.361,0,0,1-.77.26H63.312Q56.909,155.676,50.506,155.678Zm-1.413-24.935a.366.366,0,0,0-.21.048.5.5,0,0,0-.262.439,1.35,1.35,0,0,0,.016.2c.008.061.016.131.021.2.015.234.027.469.04.7q.009.159.017.319l.02.346q.016.276.031.553.016.294.031.588.025.47.051.94c.021.372.044.744.067,1.115l.013.21q.014.231.03.462c.018.275.037.56.052.842.019.339.034.683.05,1.015q.01.225.021.451v.013q.013.174.027.347c.021.268.042.546.061.82.015.219.027.44.038.654q.007.138.015.277l.017.314q.018.331.037.662c.007.111.01.221.014.327.006.185.012.359.032.528.032.279.043.555.054.822,0,.116.009.232.016.347q.011.2.023.394t.022.369q.018.32.036.641.021.377.042.754.042.744.086,1.487c.01.17.022.34.033.51.016.242.033.492.046.74.019.349.035.7.05,1.046q.01.23.021.46l0,.041.027.371q.032.45.064.9c.015.228.03.469.047.784.024.435.044.83.063,1.209,0,.026,0,.052,0,.078a1.062,1.062,0,0,0,.028.256.484.484,0,0,0,.245.3.575.575,0,0,0,.275.052q6.4,0,12.806,0H85.35a.371.371,0,0,0,.211-.077.461.461,0,0,0,.212-.327c.022-.161.032-.328.043-.5l.006-.1c.014-.221.026-.442.038-.663q.008-.142.016-.284l.016-.291q.018-.331.037-.661c.006-.1.009-.2.013-.3.007-.205.014-.418.041-.638s.035-.432.044-.664c0-.107.009-.214.014-.32l.021-.363q.015-.261.029-.521.016-.295.031-.59.024-.463.05-.927c.025-.443.053-.893.08-1.328l0-.029q.015-.238.031-.475c.017-.261.035-.53.049-.794.018-.337.034-.68.049-1.012q.01-.23.021-.46c0-.015,0-.03,0-.046v-.008q.013-.177.027-.355c.02-.264.041-.537.059-.8.014-.21.026-.426.037-.634q.008-.143.016-.285l.055-.979c.005-.1.009-.191.012-.292.007-.205.014-.417.041-.637s.035-.438.045-.673c0-.109.009-.217.015-.326q.024-.436.05-.872.012-.2.024-.408c.015-.247.03-.495.043-.742q.023-.435.044-.87.014-.282.028-.565c0-.048.007-.1.011-.145,0-.03.005-.06.007-.089q.012-.194.025-.387c.021-.324.043-.66.062-.989s.034-.66.049-.982q.01-.225.021-.449c0-.019,0-.038,0-.057v-.005c0-.059.008-.119.012-.179.01-.135.019-.263.017-.384a.337.337,0,0,0-.018-.12c-.127-.255-.263-.307-.428-.307h-.1a.477.477,0,0,0-.089,0,1.036,1.036,0,0,0-.237.137l-.031.021-.533.364-.59.4c-.1.067-.2.133-.3.2s-.2.129-.293.2-.194.134-.29.2-.183.128-.276.192q-.211.144-.423.286l-.278.187-.326.221q-.263.179-.527.357l-.4.266c-.16.106-.32.211-.478.319q-.351.238-.7.478l-.609.416c-.108.073-.217.145-.326.217s-.238.157-.353.236c-.135.092-.269.186-.4.28s-.282.2-.424.3c-.177.121-.356.241-.534.36l-.422.283-.351.24c-.2.14-.413.285-.625.424a1.751,1.751,0,0,1-.493.233,1.474,1.474,0,0,1-.4.057,1.3,1.3,0,0,1-.3-.035,1.485,1.485,0,0,1-.813-.477c-.136-.16-.265-.325-.389-.485l-.166-.211-.134-.169c-.128-.161-.26-.328-.39-.489-.09-.111-.182-.222-.273-.332-.106-.128-.212-.256-.316-.385s-.2-.253-.3-.38-.188-.239-.283-.358q-.191-.238-.385-.473t-.383-.471c-.1-.121-.193-.242-.288-.364s-.185-.235-.279-.352q-.181-.225-.365-.448c-.137-.168-.274-.336-.41-.5q-.281-.35-.56-.7-.247-.312-.5-.623l-.463-.576c-.232-.288-.472-.586-.707-.882a.569.569,0,0,0-.373-.216,1.075,1.075,0,0,0-.139.026l-.008,0a.425.425,0,0,0-.251.156c-.015.018-.034.044-.054.071s-.05.069-.077.1l-.441.546-.413.512q-.411.51-.821,1.022l-.5.629-.53.662q-.376.469-.753.937l-.305.376q-.177.218-.354.436-.229.285-.456.572l-.078.1-.276.349q-.249.315-.5.629-.177.221-.357.441c-.153.188-.311.382-.462.574a1.635,1.635,0,0,1-.921.653,1.408,1.408,0,0,1-.948-.089,2.965,2.965,0,0,1-.408-.247l-.092-.062c-.326-.217-.673-.45-1.124-.754l-.963-.652-.774-.525-.939-.637-.4-.273c-.172-.119-.344-.237-.517-.354-.142-.1-.285-.19-.428-.284-.159-.1-.324-.214-.487-.324-.133-.091-.265-.184-.393-.274s-.252-.178-.377-.263q-.384-.261-.771-.518l-.617-.414-.786-.533-.618-.42-.036-.024a1.1,1.1,0,0,0-.121-.076A1.7,1.7,0,0,0,49.093,130.743Z" transform="translate(-45.425 -121.007)" fill="#fff"/>
            <path id="パス_55" data-name="パス 55" d="M2.576,50.194A2.578,2.578,0,0,1,0,47.6a2.505,2.505,0,0,1,.781-1.837,2.527,2.527,0,0,1,1.812-.733,2.583,2.583,0,0,1-.017,5.166Z" transform="translate(0 -42.505)" fill="#2b2b2b"/>
            <path id="パス_55_-_アウトライン" data-name="パス 55 - アウトライン" d="M2.606,50.694H2.558A3.027,3.027,0,0,1,.4,49.787a3.059,3.059,0,0,1-.9-2.194A2.988,2.988,0,0,1,.433,45.4a3.022,3.022,0,0,1,2.157-.874h.019a3.015,3.015,0,0,1,2.151.909,3.111,3.111,0,0,1,.9,2.2A3.08,3.08,0,0,1,2.606,50.694Zm-.031-1h.031A2.078,2.078,0,0,0,4.05,46.142a2.022,2.022,0,0,0-1.441-.613H2.6a2.027,2.027,0,0,0-1.466.591A2,2,0,0,0,.5,47.6a2.066,2.066,0,0,0,.606,1.481,2.034,2.034,0,0,0,1.452.612Z" transform="translate(0 -42.505)" fill="#fff"/>
          </g>
        </g>
      </g>
    </g>
    <path id="パス_177" data-name="パス 177" d="M2.048-10.992A5.172,5.172,0,0,1,5.2-11.84,5.208,5.208,0,0,1,8.352-11,2.569,2.569,0,0,1,9.488-8.848q0,1.52-1.984,2.528v.032A3.232,3.232,0,0,1,9.84-3.2,2.9,2.9,0,0,1,8.616-.752,5.617,5.617,0,0,1,5.2.16,5.617,5.617,0,0,1,1.784-.752,2.9,2.9,0,0,1,.56-3.2q0-1.76,2.224-2.784v-.032A3.154,3.154,0,0,1,.912-8.848,2.549,2.549,0,0,1,2.048-10.992ZM5.312-7.008a3.311,3.311,0,0,0,1.248-.7,1.236,1.236,0,0,0,.368-.88,1.19,1.19,0,0,0-.464-.968A1.951,1.951,0,0,0,5.2-9.936a1.891,1.891,0,0,0-1.24.376,1.2,1.2,0,0,0-.456.968,1.194,1.194,0,0,0,.408.9A3.646,3.646,0,0,0,5.312-7.008ZM4.928-5.152a3.6,3.6,0,0,0-1.344.816A1.47,1.47,0,0,0,3.2-3.328a1.394,1.394,0,0,0,.56,1.136,2.234,2.234,0,0,0,1.44.448,2.2,2.2,0,0,0,1.432-.448,1.4,1.4,0,0,0,.552-1.136,1.281,1.281,0,0,0-.448-1.024A5.535,5.535,0,0,0,4.928-5.152Z" transform="translate(930.492 1999.578)" fill="#fff"/>
  </g>
</svg>
