<svg xmlns="http://www.w3.org/2000/svg" xmlns:xlink="http://www.w3.org/1999/xlink" width="20.297" height="19.522" viewBox="0 0 20.297 19.522">
  <defs>
    <clipPath id="clip-path">
      <rect id="長方形_501" data-name="長方形 501" width="10.143" height="19.364" transform="translate(0 0)" fill="#fff"/>
    </clipPath>
  </defs>
  <g id="グループ_191" data-name="グループ 191" transform="translate(11261 149.001)">
    <g id="b" transform="translate(-11261 -149.001)">
      <g id="c" transform="translate(0 0)">
        <path id="パス_4" data-name="パス 4" d="M13.027,5.179A2.4,2.4,0,0,0,14.6,6.4l5.141.9c.61.107.735.537.279.956l-3.845,3.531a2.4,2.4,0,0,0-.672,1.875l.729,5.169c.086.613-.284.865-.823.561l-4.547-2.566a2.4,2.4,0,0,0-1.991-.059L4.184,19.059c-.556.271-.911,0-.788-.609l1.036-5.117a2.4,2.4,0,0,0-.559-1.912L.245,7.668c-.43-.445-.279-.867.336-.937l5.186-.6A2.4,2.4,0,0,0,7.413,5.012L9.861.4c.29-.546.738-.533,1,.03l2.17,4.748Z" transform="translate(0 0)" fill="#cad7db"/>
      </g>
    </g>
    <g id="マスクグループ_2" data-name="マスクグループ 2" transform="translate(-11261 -149)" clip-path="url(#clip-path)">
      <g id="b-2" data-name="b" transform="translate(0 -0.001)">
        <g id="c-2" data-name="c" transform="translate(0 0)">
          <path id="パス_5" data-name="パス 5" d="M13.027,5.179A2.4,2.4,0,0,0,14.6,6.4l5.141.9c.61.107.735.537.28.956l-3.845,3.531a2.4,2.4,0,0,0-.672,1.875l.729,5.169c.086.613-.284.865-.823.561l-4.547-2.566a2.4,2.4,0,0,0-1.991-.059L4.184,19.059c-.556.272-.91,0-.788-.609l1.036-5.117a2.4,2.4,0,0,0-.559-1.912L.245,7.668c-.43-.445-.279-.867.336-.937l5.186-.6A2.4,2.4,0,0,0,7.413,5.012L9.861.4c.29-.546.738-.533,1,.03l2.17,4.748Z" transform="translate(0 0)" fill="#ffce00"/>
        </g>
      </g>
    </g>
  </g>
</svg>
