<svg xmlns="http://www.w3.org/2000/svg" xmlns:xlink="http://www.w3.org/1999/xlink" width="60" height="60" viewBox="0 0 60 60">
  <defs>
    <clipPath id="clip-アートボード_22">
      <rect width="60" height="60"/>
    </clipPath>
  </defs>
  <g id="アートボード_22" data-name="アートボード – 22" clip-path="url(#clip-アートボード_22)">
    <g id="マップのピンアイコン" transform="translate(-69.409 6.584)">
      <path id="パス_268" data-name="パス 268" d="M99.409,0A15.764,15.764,0,0,0,83.644,15.765c0,8.887,4.4,10.781,9.274,16.693a29.119,29.119,0,0,1,6.492,14.374A29.119,29.119,0,0,1,105.9,32.458c4.869-5.912,9.274-7.805,9.274-16.693A15.764,15.764,0,0,0,99.409,0Zm0,21.214a5.448,5.448,0,1,1,5.448-5.448A5.448,5.448,0,0,1,99.409,21.214Z" fill="#707070"/>
    </g>
  </g>
</svg>
