<svg xmlns="http://www.w3.org/2000/svg" xmlns:xlink="http://www.w3.org/1999/xlink" width="60" height="60" viewBox="0 0 60 60">
  <defs>
    <clipPath id="clip-アートボード_21">
      <rect width="60" height="60"/>
    </clipPath>
  </defs>
  <g id="アートボード_21" data-name="アートボード – 21" clip-path="url(#clip-アートボード_21)">
    <g id="カレンダーのフリーアイコン20" transform="translate(1.398 7.859)">
      <path id="パス_265" data-name="パス 265" d="M122.726,8.954a2.505,2.505,0,0,0,2.505-2.506V2.505a2.505,2.505,0,0,0-5.011,0V6.448A2.506,2.506,0,0,0,122.726,8.954Z" transform="translate(-103.361)" fill="#707070"/>
      <path id="パス_266" data-name="パス 266" d="M336.348,8.954a2.505,2.505,0,0,0,2.5-2.506V2.505a2.505,2.505,0,0,0-5.011,0V6.448A2.506,2.506,0,0,0,336.348,8.954Z" transform="translate(-298.508)" fill="#707070"/>
      <path id="パス_267" data-name="パス 267" d="M44.1,41.287h-1.55v2.877a4.707,4.707,0,1,1-9.415,0V41.287H24.071v2.877a4.707,4.707,0,1,1-9.414,0V41.287h-1.55a6.034,6.034,0,0,0-6.034,6.034V75.964A6.034,6.034,0,0,0,13.107,82H44.1a6.034,6.034,0,0,0,6.034-6.034V47.321A6.034,6.034,0,0,0,44.1,41.287ZM45.382,74.9a2.8,2.8,0,0,1-2.8,2.8H14.617a2.8,2.8,0,0,1-2.8-2.8V52.495H45.382Z" transform="translate(0 -37.716)" fill="#707070"/>
    </g>
  </g>
</svg>
