<svg xmlns="http://www.w3.org/2000/svg" width="23" height="19" viewBox="0 0 23 19">
  <g id="グループ_503" data-name="グループ 503" transform="translate(-124 -4911)">
    <path id="線_40" data-name="線 40" d="M15,1.5H0A1.5,1.5,0,0,1-1.5,0,1.5,1.5,0,0,1,0-1.5H15A1.5,1.5,0,0,1,16.5,0,1.5,1.5,0,0,1,15,1.5Z" transform="translate(125.5 4912.5)" fill="#fff"/>
    <path id="線_41" data-name="線 41" d="M15,1.5H0A1.5,1.5,0,0,1-1.5,0,1.5,1.5,0,0,1,0-1.5H15A1.5,1.5,0,0,1,16.5,0,1.5,1.5,0,0,1,15,1.5Z" transform="translate(125.5 4920.5)" fill="#fff"/>
    <path id="線_42" data-name="線 42" d="M15,1.5H0A1.5,1.5,0,0,1-1.5,0,1.5,1.5,0,0,1,0-1.5H15A1.5,1.5,0,0,1,16.5,0,1.5,1.5,0,0,1,15,1.5Z" transform="translate(125.5 4928.5)" fill="#fff"/>
    <rect id="長方形_506" data-name="長方形 506" width="3" height="3" rx="1" transform="translate(144 4911)" fill="#fff"/>
    <rect id="長方形_507" data-name="長方形 507" width="3" height="3" rx="1" transform="translate(144 4919)" fill="#fff"/>
    <rect id="長方形_508" data-name="長方形 508" width="3" height="3" rx="1" transform="translate(144 4927)" fill="#fff"/>
  </g>
</svg>
