<svg xmlns="http://www.w3.org/2000/svg" xmlns:xlink="http://www.w3.org/1999/xlink" width="60" height="60" viewBox="0 0 60 60">
  <defs>
    <clipPath id="clip-アートボード_23">
      <rect width="60" height="60"/>
    </clipPath>
  </defs>
  <g id="アートボード_23" data-name="アートボード – 23" clip-path="url(#clip-アートボード_23)">
    <g id="電話の受話器のアイコン素材_その2" data-name="電話の受話器のアイコン素材 その2" transform="translate(-88.822 3.5)">
      <path id="パス_269" data-name="パス 269" d="M105.815,114.616c-2.839,1.841-3.4,7.6-2.325,12.287a42.372,42.372,0,0,0,5.6,13.167,44,44,0,0,0,9.738,10.485c3.846,2.892,9.328,4.729,12.167,2.888a14.375,14.375,0,0,0,3.666-3.931l-1.525-2.351-4.194-6.467c-.312-.48-2.266-.041-3.259.521a9.454,9.454,0,0,0-2.573,2.8c-.918.531-1.688,0-3.295-.738-1.975-.909-4.2-3.733-5.963-6.29-1.614-2.657-3.287-5.836-3.311-8.01-.02-1.769-.189-2.687.67-3.309a9.455,9.455,0,0,0,3.6-1.209c.918-.677,2.117-2.283,1.8-2.763l-4.194-6.467-1.525-2.351A14.374,14.374,0,0,0,105.815,114.616Z" transform="translate(0 -101.182)" fill="#707070"/>
      <path id="パス_270" data-name="パス 270" d="M280.327,18.259a13.529,13.529,0,0,0-9.2-16.145L271.7,0a15.721,15.721,0,0,1,10.739,18.838Z" transform="translate(-150.736)" fill="#707070"/>
      <path id="パス_271" data-name="パス 271" d="M264.882,56.673a8.777,8.777,0,0,0-5.877-10.31l.579-2.115a10.968,10.968,0,0,1,7.413,13Z" transform="translate(-139.872 -39.669)" fill="#707070"/>
      <path id="パス_272" data-name="パス 272" d="M249.416,95.108a4.024,4.024,0,0,0-2.546-4.466l.58-2.119a6.217,6.217,0,0,1,4.085,7.165Z" transform="translate(-128.993 -79.359)" fill="#707070"/>
    </g>
  </g>
</svg>
