<svg id="icon_line" xmlns="http://www.w3.org/2000/svg" width="40" height="40" viewBox="0 0 40 40">
  <rect id="長方形_211" data-name="長方形 211" width="40" height="40" rx="20" fill="#00c200"/>
  <path id="パス_130" data-name="パス 130" d="M2,18.923A16.923,16.923,0,1,0,18.923,2,16.923,16.923,0,0,0,2,18.923Z" transform="translate(1.077 1.077)" fill="#00c200"/>
  <path id="パス_131" data-name="パス 131" d="M29.621,16.489a6.2,6.2,0,0,0,.1-.75,9.4,9.4,0,0,0-.012-.963c-.3-5.229-5.726-9.4-12.374-9.4-6.841,0-12.387,4.411-12.387,9.853,0,5,4.685,9.133,10.756,9.768a.673.673,0,0,1,.6.745l-.258,2.326a.675.675,0,0,0,.966.681c5.129-2.475,8.2-5.021,10.026-7.227.333-.4,1.42-1.924,1.641-2.324A8.293,8.293,0,0,0,29.621,16.489Z" transform="translate(2.663 2.898)" fill="#fff"/>
  <path id="パス_132" data-name="パス 132" d="M10.915,14.758a1.9,1.9,0,0,1-1.9-1.9V10.607a.634.634,0,0,0-1.267,0v4.784a.634.634,0,0,0,.634.634h2.535a.634.634,0,1,0,0-1.267Z" transform="translate(4.171 5.37)" fill="#00c500"/>
  <path id="パス_133" data-name="パス 133" d="M11.381,16.025H11.1a.5.5,0,0,1-.5-.5V10.469a.5.5,0,0,1,.5-.5h.277a.5.5,0,0,1,.5.5V15.53A.5.5,0,0,1,11.381,16.025Z" transform="translate(5.712 5.37)" fill="#00c500"/>
  <path id="パス_134" data-name="パス 134" d="M15.725,10.607a.992.992,0,0,1-1.78.6c-.432-.562-.776-1.009-.79-1.025a.631.631,0,0,0-.5-.212.651.651,0,0,0-.609.659v4.758a.634.634,0,1,0,1.267,0,.992.992,0,0,1,1.776-.606c.452.584.816,1.053.83,1.066a.63.63,0,0,0,.429.173.657.657,0,0,0,.639-.66V10.607a.634.634,0,1,0-1.267,0Z" transform="translate(6.489 5.37)" fill="#00c500"/>
  <path id="パス_135" data-name="パス 135" d="M19.682,10.607a.634.634,0,0,0-.634-.634H16.514a.634.634,0,0,0-.634.634v4.784a.634.634,0,0,0,.634.634h2.534a.634.634,0,1,0,0-1.267H17.71a.562.562,0,0,1,0-1.125h1.338a.634.634,0,1,0,0-1.267H17.71a.562.562,0,1,1,0-1.125h1.338A.633.633,0,0,0,19.682,10.607Z" transform="translate(8.551 5.37)" fill="#00c500"/>
</svg>
