<svg xmlns="http://www.w3.org/2000/svg" width="30.665" height="26.203" viewBox="0 0 30.665 26.203">
  <g id="グループ_470" data-name="グループ 470" transform="translate(1117 -1316)">
    <g id="グループ_468" data-name="グループ 468" transform="translate(-2013.886 1933)">
      <path id="パス_20" data-name="パス 20" d="M4.62,0a14.935,14.935,0,0,1,10.5,4.506A16.421,16.421,0,0,1,19.536,15.26c0,1.131-.142-1.093,0,.815a12.269,12.269,0,0,1-1.1,5.414c-1.183,1.86-2.385,3.757-4.855,4.3-2.329.511-6.288-.124-8.85-.124-3.965,0-8.634,1.409-12.022-.332-1.158-.6-2.467-1.673-3.361-4.587a18.878,18.878,0,0,1-.213-7.07A23.2,23.2,0,0,1-9.7,9.808,17.861,17.861,0,0,1-8.012,6.691a16.146,16.146,0,0,1,1.594-1.9A15.588,15.588,0,0,1,4.62,0Z" transform="translate(908 -617)" fill="#628afa"/>
      <path id="パス_21" data-name="パス 21" d="M4.116.387A11.526,11.526,0,0,1,5.184,3.75L0,2.247,2.155.372S3.48-.475,4.116.387Z" transform="translate(922.255 -615.997) rotate(34)" fill="#628afa"/>
      <path id="パス_22" data-name="パス 22" d="M4.141.334A11.526,11.526,0,0,1,5.209,3.7L0,3.028,2.24.549S3.5-.528,4.141.334Z" transform="matrix(0.629, -0.777, 0.777, 0.629, 897.67, -611.761)" fill="#628afa"/>
    </g>
    <g id="グループ_469" data-name="グループ 469" transform="translate(-1500.668 45.602)">
      <path id="線_8" data-name="線 8" d="M6,6.5a1.494,1.494,0,0,1-.959-.348l-6-5A1.5,1.5,0,0,1-1.152-.96,1.5,1.5,0,0,1,.96-1.152l6,5A1.5,1.5,0,0,1,6,6.5Z" transform="translate(392.5 1283.5)" fill="#fff"/>
      <path id="線_9" data-name="線 9" d="M0,9.5a1.494,1.494,0,0,1-.987-.371,1.5,1.5,0,0,1-.141-2.117l7-8a1.5,1.5,0,0,1,2.117-.141A1.5,1.5,0,0,1,8.129.988l-7,8A1.5,1.5,0,0,1,0,9.5Z" transform="translate(398.5 1280.5)" fill="#fff"/>
    </g>
  </g>
</svg>
