<svg xmlns="http://www.w3.org/2000/svg" width="32.409" height="32.409" viewBox="0 0 32.409 32.409">
  <g id="グループ_65" data-name="グループ 65" transform="translate(-1140 -1280)">
    <circle id="楕円形_9" data-name="楕円形 9" cx="13.515" cy="13.515" r="13.515" transform="translate(1140 1280)" fill="#fff"/>
    <path id="楕円形_9_-_アウトライン" data-name="楕円形 9 - アウトライン" d="M13.515,3A10.515,10.515,0,1,0,24.03,13.515,10.527,10.527,0,0,0,13.515,3m0-3A13.515,13.515,0,1,1,0,13.515,13.515,13.515,0,0,1,13.515,0Z" transform="translate(1140 1280)" fill="#fff"/>
    <path id="線_11" data-name="線 11" d="M8.688,10.688A1.994,1.994,0,0,1,7.274,10.1L-1.414,1.414a2,2,0,0,1,0-2.828,2,2,0,0,1,2.828,0L10.1,7.274a2,2,0,0,1-1.414,3.414Z" transform="translate(1161.721 1301.721)" fill="#fff"/>
    <g id="グループ_25" data-name="グループ 25" transform="translate(248.768 1903.798)">
      <path id="パス_20" data-name="パス 20" d="M-3.047,0A7.657,7.657,0,0,1,2.338,2.31,8.419,8.419,0,0,1,4.6,7.824c0,.58-.073-.561,0,.418a6.29,6.29,0,0,1-.564,2.776,4.083,4.083,0,0,1-2.489,2.2c-1.194.262-3.28-.234-4.594-.234-2.033,0-4.371.893-6.108,0a3.478,3.478,0,0,1-1.723-2.352,9.679,9.679,0,0,1-.109-3.625,11.9,11.9,0,0,1,.6-1.983,9.157,9.157,0,0,1,.865-1.6,8.278,8.278,0,0,1,.817-.975A7.992,7.992,0,0,1-3.047,0Z" transform="translate(908 -617)" fill="#fbe238"/>
      <path id="パス_21" data-name="パス 21" d="M2.935.276a8.218,8.218,0,0,1,.762,2.4L0,1.6,1.537.266S2.481-.339,2.935.276Z" transform="translate(909.544 -616.897) rotate(34)" fill="#fbe238"/>
      <path id="パス_22" data-name="パス 22" d="M2.646.214a7.365,7.365,0,0,1,.683,2.149L0,1.935,1.431.351S2.239-.337,2.646.214Z" transform="matrix(0.545, -0.839, 0.839, 0.545, 896.58, -613.894)" fill="#fbe238"/>
    </g>
  </g>
</svg>
