<svg xmlns="http://www.w3.org/2000/svg" width="100" height="95.623" viewBox="0 0 100 95.623">
  <g id="グループ_465" data-name="グループ 465" transform="translate(-1638 571)">
    <path id="多角形_1" data-name="多角形 1" d="M14.5,1.52a1.986,1.986,0,0,0-1.646.864L2.166,17.864A2,2,0,0,0,3.811,21H25.189a2,2,0,0,0,1.646-3.136L16.146,2.384A1.986,1.986,0,0,0,14.5,1.52m0-6a8,8,0,0,1,6.583,3.454l10.689,15.48A8,8,0,0,1,25.189,27H3.811A8,8,0,0,1-2.772,14.454L7.917-1.026A8,8,0,0,1,14.5-4.48Z" transform="matrix(-0.999, -0.035, 0.035, -0.999, 1693.625, -480)" fill="#fff"/>
    <rect id="長方形_3" data-name="長方形 3" width="100" height="80" rx="16" transform="translate(1638 -571)" fill="#fbe238"/>
    <path id="長方形_3_-_アウトライン" data-name="長方形 3 - アウトライン" d="M16,6A10.011,10.011,0,0,0,6,16V64A10.011,10.011,0,0,0,16,74H84A10.011,10.011,0,0,0,94,64V16A10.011,10.011,0,0,0,84,6H16m0-6H84a16,16,0,0,1,16,16V64A16,16,0,0,1,84,80H16A16,16,0,0,1,0,64V16A16,16,0,0,1,16,0Z" transform="translate(1638 -571)" fill="#fff"/>
    <path id="多角形_2" data-name="多角形 2" d="M12.854,2.384a2,2,0,0,1,3.292,0l10.689,15.48A2,2,0,0,1,25.189,21H3.811a2,2,0,0,1-1.646-3.136Z" transform="matrix(-0.999, -0.035, 0.035, -0.999, 1693.625, -480)" fill="#fbe238"/>
    <g id="グループ_372" data-name="グループ 372" transform="translate(506 -595)">
      <path id="線_1" data-name="線 1" d="M0,29.58a2,2,0,0,1-1.531-.712,2,2,0,0,1,.242-2.818L31.463-1.53a2,2,0,0,1,2.818.242A2,2,0,0,1,34.04,1.53L1.288,29.11A1.992,1.992,0,0,1,0,29.58Z" transform="translate(1165.624 60.5)" fill="#2b2b2b"/>
      <path id="パス_200" data-name="パス 200" d="M-19.5-9.648A3.5,3.5,0,0,0-22.152-8.64a3.876,3.876,0,0,0-.968,2.8,3.8,3.8,0,0,0,1.008,2.784A3.5,3.5,0,0,0-19.5-2.032a5.021,5.021,0,0,0,2.752-.88l.768,1.984A6.58,6.58,0,0,1-19.776.16a6.14,6.14,0,0,1-4.456-1.616A5.813,5.813,0,0,1-25.9-5.84a5.9,5.9,0,0,1,1.624-4.4,6.14,6.14,0,0,1,4.5-1.6,6.58,6.58,0,0,1,3.792,1.088l-.768,1.984A5.021,5.021,0,0,0-19.5-9.648Zm8.432-2.032v9.424h4.928V0h-7.728V-11.68Zm7.04,1.456A5.838,5.838,0,0,1,.288-11.84,5.811,5.811,0,0,1,4.6-10.224,5.941,5.941,0,0,1,6.208-5.84,5.941,5.941,0,0,1,4.6-1.456,5.811,5.811,0,0,1,.288.16,5.811,5.811,0,0,1-4.024-1.456,5.941,5.941,0,0,1-5.632-5.84,5.958,5.958,0,0,1-4.032-10.224Zm2,7.184a2.907,2.907,0,0,0,2.32.96A2.882,2.882,0,0,0,2.6-3.04a4.188,4.188,0,0,0,.824-2.8A4.188,4.188,0,0,0,2.6-8.64,2.882,2.882,0,0,0,.288-9.6a2.882,2.882,0,0,0-2.312.96,4.188,4.188,0,0,0-.824,2.8A4.216,4.216,0,0,0-2.032-3.04Zm17.1-5.92a7.125,7.125,0,0,0-3.2-.752,2.1,2.1,0,0,0-1.264.32,1.02,1.02,0,0,0-.432.864q0,.9,1.344,1.28A8.133,8.133,0,0,1,14.872-5.68a3.086,3.086,0,0,1,.968,2.352A3.087,3.087,0,0,1,14.688-.736a5.482,5.482,0,0,1-3.408.9,7.6,7.6,0,0,1-2.1-.312A6.417,6.417,0,0,1,7.36-.96L8-3.088a5.913,5.913,0,0,0,3.392,1.12,1.959,1.959,0,0,0,1.256-.344,1.176,1.176,0,0,0,.424-.968,1.084,1.084,0,0,0-.344-.832,3.131,3.131,0,0,0-1.208-.576,7.708,7.708,0,0,1-3.152-1.56,3.031,3.031,0,0,1-.96-2.28,2.908,2.908,0,0,1,1.144-2.416,5.09,5.09,0,0,1,3.208-.9,8.79,8.79,0,0,1,3.808.768Zm5.52-.528V-7.1h4.432V-5.04H20.592v2.848h4.752V0H17.872V-11.68h7.472v2.192Z" transform="translate(1182 51.5)" fill="#2b2b2b"/>
      <path id="線_36" data-name="線 36" d="M32.75,29.58a1.992,1.992,0,0,1-1.287-.47L-1.288,1.53A2,2,0,0,1-1.53-1.288,2,2,0,0,1,1.288-1.53L34.04,26.05a2,2,0,0,1-1.289,3.53Z" transform="translate(1165.624 60.5)" fill="#2b2b2b"/>
    </g>
  </g>
</svg>
