<svg xmlns="http://www.w3.org/2000/svg" width="16.116" height="16.116" viewBox="0 0 16.116 16.116">
  <g id="鉛筆のアイコン素材_2_" data-name="鉛筆のアイコン素材 (2)" transform="translate(-0.001 0)">
    <path id="パス_137" data-name="パス 137" d="M15.944,2.778,13.338.172a.588.588,0,0,0-.831,0L1.5,10.739a.588.588,0,0,0-.147.245L.027,15.356a.588.588,0,0,0,.734.734l4.513-1.374h0L15.944,3.61A.588.588,0,0,0,15.944,2.778ZM2,14.639l-.522-.522L2.245,11.6l1.479.8.8,1.48ZM14.29,2.362,4.916,11.8l-.6-.6,9.434-9.374.536.535Z" transform="translate(0)" fill="#707070"/>
  </g>
</svg>
