<svg xmlns="http://www.w3.org/2000/svg" width="68.857" height="59.265" viewBox="0 0 68.857 59.265">
  <g id="グループ_452" data-name="グループ 452" transform="translate(-892.3 620.906)">
    <path id="パス_20" data-name="パス 20" d="M20.326,0A29.843,29.843,0,0,1,41.312,9a32.812,32.812,0,0,1,8.817,21.488c0,2.259-.283-2.185,0,1.629.252,3.391-1.085,9.067-2.2,10.818-2.364,3.716-4.765,7.508-9.7,8.591-4.654,1.022-12.565-.247-17.684-.247-7.922,0-17.253,2.816-24.022-.663-2.315-1.189-4.93-3.342-6.715-9.165s-.425-14.127-.425-14.127A46.366,46.366,0,0,1-8.289,19.6,35.69,35.69,0,0,1-4.917,13.37a32.262,32.262,0,0,1,3.185-3.8A31.147,31.147,0,0,1,20.326,0Z" transform="translate(908 -617)" fill="#fbe238"/>
    <path id="パス_20_-_アウトライン" data-name="パス 20 - アウトライン" d="M20.326,0A31.147,31.147,0,0,0-1.732,9.572a32.263,32.263,0,0,0-3.185,3.8A35.69,35.69,0,0,0-8.289,19.6a46.366,46.366,0,0,0-2.329,7.729s-1.36,8.3.425,14.127,4.4,7.976,6.715,9.165c6.769,3.479,16.1.663,24.022.663,5.119,0,13.029,1.269,17.684.247,4.937-1.084,7.338-4.875,9.7-8.591,1.114-1.751,2.451-7.427,2.2-10.818-.06-.811-.095-1.249-.112-1.457-.016-.166-.021-.253,0,0,.033.342.112,1.023.112-.172A32.812,32.812,0,0,0,41.312,9,29.843,29.843,0,0,0,20.326,0m0-3A32.112,32.112,0,0,1,32.684-.432,32.764,32.764,0,0,1,43.472,6.922a35.011,35.011,0,0,1,7.173,11.339,33.709,33.709,0,0,1,2.483,12.23c0,.3,0,.525-.014.7q-.008.144-.026.281c.01.129.02.272.032.428.279,3.757-1.063,10.141-2.659,12.65l-.017.026a34.066,34.066,0,0,1-4.268,5.757,14.261,14.261,0,0,1-7.305,4.128,25.083,25.083,0,0,1-5.313.468c-2.342,0-4.832-.178-7.239-.35-2.125-.152-4.132-.3-5.776-.3a72.421,72.421,0,0,0-7.269.516,79.484,79.484,0,0,1-8.1.56A21.3,21.3,0,0,1-4.849,53.287a14,14,0,0,1-4.5-3.605,21.016,21.016,0,0,1-3.712-7.349c-1.968-6.42-.577-15.123-.517-15.491l.013-.071a49.208,49.208,0,0,1,2.492-8.289,38.811,38.811,0,0,1,3.715-6.853,35.162,35.162,0,0,1,3.478-4.15A34.113,34.113,0,0,1,20.326-3Z" transform="translate(908 -617)" fill="#fff"/>
    <path id="パス_21" data-name="パス 21" d="M8.225.773C9.5,2.5,10.359,7.493,10.359,7.493L0,4.49,4.306.744S6.953-.949,8.225.773Z" transform="translate(947.576 -614.996) rotate(34)" fill="#fbe238"/>
    <path id="パス_21_-_アウトライン" data-name="パス 21 - アウトライン" d="M6.624,0A5.038,5.038,0,0,0,4.306.744L0,4.49l10.359,3S9.5,2.5,8.225.773A1.887,1.887,0,0,0,6.624,0m0-3a4.863,4.863,0,0,1,4.015,1.992,15.624,15.624,0,0,1,2.037,5.044c.4,1.562.631,2.891.64,2.947l.817,4.728L-6.122,5.839,2.5-1.664l.186-.119A7.946,7.946,0,0,1,6.624-3Z" transform="translate(947.576 -614.996) rotate(34)" fill="#fff"/>
    <path id="パス_22" data-name="パス 22" d="M8.273.668c1.271,1.723,2.135,6.72,2.135,6.72L0,6.05,4.476,1.1S7-1.054,8.273.668Z" transform="matrix(0.629, -0.777, 0.777, 0.629, 898.453, -606.532)" fill="#fbe238"/>
    <path id="パス_22_-_アウトライン" data-name="パス 22 - アウトライン" d="M6.964,0A4.733,4.733,0,0,0,4.476,1.1L0,6.05,10.408,7.388s-.863-5-2.134-6.72A1.552,1.552,0,0,0,6.964,0m0-3a4.528,4.528,0,0,1,3.723,1.887A15.624,15.624,0,0,1,12.724,3.93c.4,1.562.631,2.891.64,2.947l.692,4L-6.073,8.294,2.382-1.059l.149-.127A7.408,7.408,0,0,1,6.964-3Z" transform="matrix(0.629, -0.777, 0.777, 0.629, 898.453, -606.532)" fill="#fff"/>
    <path id="パス_35" data-name="パス 35" d="M20.326,0A29.843,29.843,0,0,1,41.312,9a32.812,32.812,0,0,1,8.817,21.488c0,2.259-.283-2.185,0,1.629.252,3.391-1.085,9.067-2.2,10.818-2.364,3.716-4.765,7.508-9.7,8.591-4.654,1.022-12.565-.247-17.684-.247-7.922,0-17.253,2.816-24.022-.663-2.315-1.189-4.93-3.342-6.715-9.165s-.425-14.127-.425-14.127A46.366,46.366,0,0,1-8.289,19.6,35.69,35.69,0,0,1-4.917,13.37a32.262,32.262,0,0,1,3.185-3.8A31.147,31.147,0,0,1,20.326,0Z" transform="translate(908 -617)" fill="#fbe238"/>
    <path id="パス_36" data-name="パス 36" d="M1.824-4.1V-17.52H4.875L9.636-9.285h.037V-17.52h3.051V-4.1H9.673L4.912-12.336H4.875V-4.1ZM18.643-15v2.739h5.092v2.371H18.643V-6.62H24.1V-4.1H15.519V-17.52H24.1V-15Zm15.68.662h-.037L32.6-4.1h-3.64L25.978-17.52H29.14L30.831-7.281h.037L32.448-17.52h3.805L37.816-7.281h.037l1.71-10.239H42.65L39.672-4.1h-3.64Z" transform="translate(905.65 -579.826)" fill="#2b2b2b"/>
  </g>
</svg>
