<svg xmlns="http://www.w3.org/2000/svg" width="27.5" height="27.5" viewBox="0 0 27.5 27.5">
  <g id="グループ_67" data-name="グループ 67" transform="translate(316 -4360)">
    <circle id="楕円形_11" data-name="楕円形 11" cx="10.5" cy="10.5" r="10.5" transform="translate(-316 4360)" fill="#2b2b2b"/>
    <path id="線_22" data-name="線 22" d="M10,11.5a1.5,1.5,0,0,1-1.061-.439l-10-10a1.5,1.5,0,0,1,0-2.121,1.5,1.5,0,0,1,2.121,0l10,10A1.5,1.5,0,0,1,10,11.5Z" transform="translate(-300 4376)" fill="#2b2b2b"/>
    <path id="線_23" data-name="線 23" d="M0,4.1a1,1,0,0,1-.707-.293,1,1,0,0,1,0-1.414l3.1-3.1a1,1,0,0,1,1.414,0,1,1,0,0,1,0,1.414l-3.1,3.1A1,1,0,0,1,0,4.1Z" transform="translate(-297.904 4381.198)" fill="#2b2b2b"/>
    <path id="線_24" data-name="線 24" d="M0,3.068a1,1,0,0,1-.707-.293,1,1,0,0,1,0-1.414L1.361-.707a1,1,0,0,1,1.414,0,1,1,0,0,1,0,1.414L.707,2.775A1,1,0,0,1,0,3.068Z" transform="translate(-294.802 4383.267)" fill="#2b2b2b"/>
  </g>
</svg>
