<svg xmlns="http://www.w3.org/2000/svg" width="65" height="45" viewBox="0 0 65 45">
  <g id="グループ_23" data-name="グループ 23" transform="translate(-265 -1040)">
    <g id="グループ_21" data-name="グループ 21">
      <circle id="楕円形_7" data-name="楕円形 7" cx="15" cy="15" r="15" transform="translate(300 1040)" fill="#eaeaea"/>
      <path id="線_10" data-name="線 10" d="M15,26A4,4,0,0,1,11.7,24.253l-15-22A4,4,0,0,1-2.253-3.3,4,4,0,0,1,3.3-2.253l15,22A4,4,0,0,1,15,26Z" transform="translate(307.5 1059)" fill="#eaeaea"/>
    </g>
    <g id="グループ_22" data-name="グループ 22" transform="translate(-35)">
      <circle id="楕円形_7-2" data-name="楕円形 7" cx="15" cy="15" r="15" transform="translate(300 1040)" fill="#eaeaea"/>
      <path id="線_10-2" data-name="線 10" d="M15,26A4,4,0,0,1,11.7,24.253l-15-22A4,4,0,0,1-2.253-3.3,4,4,0,0,1,3.3-2.253l15,22A4,4,0,0,1,15,26Z" transform="translate(307.5 1059)" fill="#eaeaea"/>
    </g>
  </g>
</svg>
