<svg xmlns="http://www.w3.org/2000/svg" width="63.916" height="65.807" viewBox="0 0 63.916 65.807">
  <g id="b" transform="translate(12.759 5.53)">
    <path id="パス_154" data-name="パス 154" d="M18.925-2.009C28.037-2.009,33,14.1,33,31.5c0,6.072-.221,17.665-3.36,22.126-5.339,7.6-21.818-1.312-21.818-1.312A18.532,18.532,0,0,1,.8,44.52C-.763,40.98.09,35.45,0,31.5c-.085-3.68,0,5.5,0,0C0,14.1,9.812-2.009,18.925-2.009Z" transform="translate(25.289 -3.936) rotate(42)" fill="#fff"/>
    <g id="c" transform="translate(0.001 -0.002)">
      <path id="パス_152" data-name="パス 152" d="M31.235,6.55a46.753,46.753,0,0,0-10.87,3.634c-.469.225-2.227,1.076-4.434,2.4C10.781,15.663,8.206,17.2,6.3,18.86A7.188,7.188,0,0,1,2.54,20.681a2.454,2.454,0,0,1-2.088-.414,2.158,2.158,0,0,1-.279-2.23,7.192,7.192,0,0,1,2.447-3.474c1.727-1.346,3.237-2.691,3.238-2.692h0c-2.6,1.764,5.133-3.665,7.917-5.127,2.5-1.313,5.653-2.644,5.653-2.644h0a47.718,47.718,0,0,1,8.3-3.17A18.688,18.688,0,0,1,36.276.244a16.332,16.332,0,0,1,7.331,3.4,9.29,9.29,0,0,1,3,3.43,9.977,9.977,0,0,1,.747,4.481,24.433,24.433,0,0,1-.8,5.935,18.8,18.8,0,0,1-3.589,7.632,40.468,40.468,0,0,0-2.294,3.525c-2.874,4.32-4.989,6.011-8.618,10.206,0,0-.522.6-8.811,11.045h0c-5.608,4.936-6.751,5.193-9.037,5.707a4.509,4.509,0,0,1-.992.074A2.451,2.451,0,0,1,10.9,54.519a2.971,2.971,0,0,1,.174-2.952,19.851,19.851,0,0,1,2.886-3.43c2.9-3.013,6.045-5.774,9.109-8.619,3.113-2.89,5.655-6.324,8.509-9.46A48.507,48.507,0,0,0,38.3,20.41a16.8,16.8,0,0,0,2.066-4.9,7.534,7.534,0,0,0-.166-5.045,7.042,7.042,0,0,0-3.826-3.274,9.314,9.314,0,0,0-5.144-.639Z" transform="translate(-0.001 0.002)"/>
    </g>
  </g>
</svg>
