<svg xmlns="http://www.w3.org/2000/svg" width="29.06" height="119" viewBox="0 0 29.06 119">
  <g id="グループ_466" data-name="グループ 466" transform="translate(66.26 -368)">
    <g id="グループ_10" data-name="グループ 10" transform="translate(-125.651 -275.5)">
      <path id="線_6" data-name="線 6" d="M0,116a3,3,0,0,1-3-3V0A3,3,0,0,1,0-3,3,3,0,0,1,3,0V113A3,3,0,0,1,0,116Z" transform="translate(62.5 646.5)" fill="#2b2b2b"/>
      <path id="線_7" data-name="線 7" d="M0,21a2.986,2.986,0,0,1-1.561-.441,3,3,0,0,1-1-4.124l11-18a3,3,0,0,1,4.124-1,3,3,0,0,1,1,4.124l-11,18A3,3,0,0,1,0,21Z" transform="translate(62.391 741.5)" fill="#2b2b2b"/>
    </g>
    <path id="パス_201" data-name="パス 201" d="M10.66,9.8a8.906,8.906,0,0,0-4-.94,2.631,2.631,0,0,0-1.58.4,1.275,1.275,0,0,0-.54,1.08q0,1.12,1.68,1.6a10.167,10.167,0,0,1,4.19,1.96,3.858,3.858,0,0,1,1.21,2.94,3.858,3.858,0,0,1-1.44,3.24A6.853,6.853,0,0,1,5.92,21.2a9.494,9.494,0,0,1-2.62-.39A8.021,8.021,0,0,1,1.02,19.8l.8-2.66a7.391,7.391,0,0,0,4.24,1.4,2.449,2.449,0,0,0,1.57-.43,1.47,1.47,0,0,0,.53-1.21,1.355,1.355,0,0,0-.43-1.04,3.914,3.914,0,0,0-1.51-.72,9.636,9.636,0,0,1-3.94-1.95,3.789,3.789,0,0,1-1.2-2.85A3.636,3.636,0,0,1,2.51,7.32,6.362,6.362,0,0,1,6.52,6.2a10.988,10.988,0,0,1,4.76.96Zm10.4-.86a4.373,4.373,0,0,0-3.31,1.26,4.845,4.845,0,0,0-1.21,3.5,4.745,4.745,0,0,0,1.26,3.48,4.374,4.374,0,0,0,3.26,1.28,6.276,6.276,0,0,0,3.44-1.1l.96,2.48a8.225,8.225,0,0,1-4.74,1.36,7.675,7.675,0,0,1-5.57-2.02,7.266,7.266,0,0,1-2.09-5.48,7.37,7.37,0,0,1,2.03-5.5,7.675,7.675,0,0,1,5.63-2,8.225,8.225,0,0,1,4.74,1.36l-.96,2.48A6.276,6.276,0,0,0,21.06,8.94ZM31.44,15.6V21H28.1V6.5a35.639,35.639,0,0,1,4.8-.3,7.294,7.294,0,0,1,4.47,1.13,3.811,3.811,0,0,1,1.47,3.21,3.991,3.991,0,0,1-.78,2.41A4.277,4.277,0,0,1,36,14.48v.04a4.259,4.259,0,0,1,1.7,2.38L39.24,21h-3.5l-1.38-3.96a2.317,2.317,0,0,0-.68-1.14,2.071,2.071,0,0,0-1.24-.3Zm0-2.5h1.12a3.367,3.367,0,0,0,2.14-.59,1.991,1.991,0,0,0,.74-1.65q0-2.08-2.74-2.08a5.858,5.858,0,0,0-1.26.12ZM42.38,8.22a7.3,7.3,0,0,1,5.4-2.02,7.264,7.264,0,0,1,5.39,2.02,7.426,7.426,0,0,1,2.01,5.48,7.426,7.426,0,0,1-2.01,5.48,7.264,7.264,0,0,1-5.39,2.02,7.264,7.264,0,0,1-5.39-2.02,7.426,7.426,0,0,1-2.01-5.48A7.447,7.447,0,0,1,42.38,8.22Zm2.5,8.98a4.092,4.092,0,0,0,5.79,0,5.234,5.234,0,0,0,1.03-3.5,5.234,5.234,0,0,0-1.03-3.5,4.08,4.08,0,0,0-5.78,0,5.234,5.234,0,0,0-1.03,3.5A5.27,5.27,0,0,0,44.88,17.2ZM60.82,6.4V18.18h6.16V21H57.32V6.4Zm12.2,0V18.18h6.16V21H69.52V6.4Z" transform="translate(-31 368) rotate(90)" fill="#2b2b2b"/>
  </g>
</svg>
