<svg xmlns="http://www.w3.org/2000/svg" xmlns:xlink="http://www.w3.org/1999/xlink" width="93" height="458" viewBox="0 0 93 458">
  <defs>
    <clipPath id="clip-アートボード_14">
      <rect width="93" height="458"/>
    </clipPath>
  </defs>
  <g id="アートボード_14" data-name="アートボード – 14" clip-path="url(#clip-アートボード_14)">
    <g id="グループ_485" data-name="グループ 485" transform="matrix(0.259, -0.966, 0.966, 0.259, 672.149, 5942.921)">
      <path id="パス_234" data-name="パス 234" d="M21.32-27.664v-7.384H20.176v3.224H16.484v4.16Zm6.188-3.588H29.9v-3.8H27.508Zm0,9.152H29.9v-3.848H27.508ZM21.32-11.024V-20.9H17.264v4.16H20.28v5.98Q20.54-10.816,21.32-11.024ZM29.9-13.26v-3.484H27.508v4.16Q29.328-13.052,29.9-13.26Zm8.788.468a40.55,40.55,0,0,1-2.964-8.736v11.8A13.921,13.921,0,0,0,38.688-12.792ZM42.12-19.76a35.9,35.9,0,0,0,1.248-7.176H35.724v1.768l4.784-1.144A39.373,39.373,0,0,0,42.12-19.76ZM1.04,2.444a99.682,99.682,0,0,0,2.6-21.32l5.824.676q-.1,4.888-.416,8.32A20.86,20.86,0,0,0,10.556-7.8V-20.9H1.768v-6.76H8.632v-4.16H2.6v-6.552H8.632v-4.68h7.852v4.68H19.24v-3.016H49.66v6.344H35.724v2.184H49.556v5.928a45.056,45.056,0,0,1-3.588,14.248,20.522,20.522,0,0,0,4.576,3.9L47.268-2.7a28.4,28.4,0,0,1-4.784-4.368A26.446,26.446,0,0,1,38.012-2.7L35.724-7.02v4.108H29.9V-6.864Q24.128-5.1,19.656-4.16l-.624-6.084H17.264v6.708q5.2,1.56,19.24,1.56H50.128l-.416,6.552H36.5q-12.532,0-18.512-1.456A19.229,19.229,0,0,1,8.164-2.5Q7.644.936,6.656,5.3Z" transform="matrix(0.875, -0.485, 0.485, 0.875, 5161.385, -1996.543)" fill="#2b2b2b"/>
      <path id="パス_235" data-name="パス 235" d="M13.936.676H5.1V-38.116H46.9V.676Zm0-7.54H38.064V-30.576H13.936Z" transform="translate(5267.971 -2045.141) rotate(-20)" fill="#2b2b2b"/>
      <path id="パス_236" data-name="パス 236" d="M20.384-23.868h10.14v-5.98H20.384Zm6.5,6.76h-6.5v9.984A65.217,65.217,0,0,0,26.884-17.108ZM13.468-6.6V-33.228H10.556V-6.6ZM50.18-23.868v6.76h-7.8A71.71,71.71,0,0,0,51.22-4.16L46.644,3.38a77.953,77.953,0,0,1-8.06-13.156V5.564h-8.06V-9.88A72.055,72.055,0,0,1,22.152,3.38L19.032.156H10.556V2.964H2.912V-40.2H20.384v3.588h10.14V-43h8.06v6.4H49.4v6.76H38.584v5.98Z" transform="matrix(0.914, -0.407, 0.407, 0.914, 5214.304, -2024.773)" fill="#2b2b2b"/>
      <path id="パス_237" data-name="パス 237" d="M51.168-35.724l-4.992,2.392q-2.808-5.408-4.056-7.7l4.992-2.5Q49.5-39.156,51.168-35.724ZM34.008-27.56H18.616A43.634,43.634,0,0,1,8.58-13.416l-5.928-5.1a38.934,38.934,0,0,0,7.332-10.27,36.242,36.242,0,0,0,3.64-11.726l8.164.468a44.511,44.511,0,0,1-.78,4.94H37.076q-1.352-2.7-2.756-5.2l4.888-2.444q2.132,4,3.952,7.644v.884q0,18.564-8.294,27.248T8.06,3.224l-1.3-7.54q13.832-1.4,19.994-6.526T34.008-27.56Z" transform="translate(5322.466 -2065.012) rotate(-17)" fill="#2b2b2b"/>
      <path id="パス_238" data-name="パス 238" d="M30-5.3Q41.08-6.864,41.08-18.72A12.61,12.61,0,0,0,38.3-26.962a12.121,12.121,0,0,0-7.306-4.29A147.262,147.262,0,0,1,27.95-15a38.131,38.131,0,0,1-3.8,9.984,14.216,14.216,0,0,1-4.29,4.81A9.385,9.385,0,0,1,14.82,1.144q-4.42,0-8.138-4.992A19.8,19.8,0,0,1,2.964-16.016q0-10.244,6.916-16.666T28.08-39.1a20.71,20.71,0,0,1,15.028,5.746A19.508,19.508,0,0,1,49.036-18.72q0,9.256-4.68,14.768A17.823,17.823,0,0,1,31.72,2.236ZM22.62-30.94a15.094,15.094,0,0,0-8.606,5.3,15.129,15.129,0,0,0-3.094,9.62A14.257,14.257,0,0,0,12.3-9.7q1.378,2.834,2.522,2.834a1.922,1.922,0,0,0,1.274-.728,9.688,9.688,0,0,0,1.534-2.5,33.3,33.3,0,0,0,1.638-4.42q.806-2.652,1.69-6.89T22.62-30.94Z" transform="translate(5369.191 -2078.752) rotate(-13)" fill="#2b2b2b"/>
      <path id="パス_239" data-name="パス 239" d="M46.384-19.344A191.135,191.135,0,0,0,25.168-18.2l-.416-6.916A198.793,198.793,0,0,1,46.384-26.26ZM46.7-5.824,47.58,1.3A59.356,59.356,0,0,1,36.66,2.34q-7.436,0-11.83-2.73T20.436-7.384q0-3.952,4.94-7.956l6.188,2.964A22.554,22.554,0,0,0,29.042-9.8a2.61,2.61,0,0,0-.6,1.534q0,1.508,2.158,2.5a14.924,14.924,0,0,0,6.058.988A56.37,56.37,0,0,0,46.7-5.824ZM4.94-29.38V-36.5H13q.728-3.952,1.04-5.98L22-41.808q-.26,1.768-.884,5.3H38.9v7.124H19.812A278.589,278.589,0,0,1,11.336,3.172L3.38,1.4A277.693,277.693,0,0,0,11.6-29.38Z" transform="translate(5422.262 -2091.671) rotate(-11)" fill="#2b2b2b"/>
      <path id="パス_240" data-name="パス 240" d="M38.064-33.176a18.6,18.6,0,0,1,8.086,6.682,17.664,17.664,0,0,1,2.886,10.01q0,8.632-4.342,13.572T32.084,3.276L30.108-4.056Q41.08-5.616,41.08-16.484a9.7,9.7,0,0,0-5.46-9Q30.888-12.272,24.83-5.538T12.9,1.2A8.6,8.6,0,0,1,5.746-2.47Q2.964-6.136,2.964-12.9A22.3,22.3,0,0,1,5.1-22.62a20.931,20.931,0,0,1,6.032-7.54q-.572-2.08-2.184-8.892l7.54-1.56q.936,4.16,1.612,6.708A27.184,27.184,0,0,1,27.04-35.36a26.694,26.694,0,0,1,3.588.208q.988-3.432,1.872-7.332l7.54,1.612Q39.26-37.544,38.064-33.176ZM28.08-27.352q-.208,0-.52-.026t-.52-.026a20.084,20.084,0,0,0-6.864,1.092q1.248,4.368,3.068,9.828A77.427,77.427,0,0,0,28.08-27.352ZM17.94-8.944q-2.6-6.916-4.368-12.844A13.46,13.46,0,0,0,10.5-12.9a9.591,9.591,0,0,0,.936,4.732,2.715,2.715,0,0,0,2.34,1.612Q15.6-6.552,17.94-8.944Z" transform="translate(5472.062 -2100.657) rotate(-3)" fill="#2b2b2b"/>
      <path id="パス_241" data-name="パス 241" d="M23.3-29.38v-7.332H45.812v7.332ZM16.328-39.52a83.9,83.9,0,0,0-2.444,20.8,83.9,83.9,0,0,0,2.444,20.8L8.06,2.964A85.476,85.476,0,0,1,5.46-18.72,85.476,85.476,0,0,1,8.06-40.4ZM46.176-7.9,47.32-.572A50.871,50.871,0,0,1,34.736.988q-7.488,0-11.7-2.912a9.083,9.083,0,0,1-4.212-7.852,11.749,11.749,0,0,1,1.768-5.512,24.219,24.219,0,0,1,4.732-5.928L31.1-16.692q-4.056,4.16-4.056,6.4a2.987,2.987,0,0,0,1.82,2.834,13.972,13.972,0,0,0,5.876.91A53.352,53.352,0,0,0,46.176-7.9Z" transform="matrix(1, -0.017, 0.017, 1, 5524.331, -2101.592)" fill="#2b2b2b"/>
    </g>
  </g>
</svg>
