<svg id="icon_fb" xmlns="http://www.w3.org/2000/svg" xmlns:xlink="http://www.w3.org/1999/xlink" width="40" height="40" viewBox="0 0 40 40">
  <defs>
    <clipPath id="clip-path">
      <rect id="長方形_213" data-name="長方形 213" width="18" height="18" transform="translate(0.188 0.188)" fill="#fff"/>
    </clipPath>
  </defs>
  <rect id="長方形_212" data-name="長方形 212" width="40" height="40" rx="20" fill="#3b5998"/>
  <g id="グループ_337" data-name="グループ 337" transform="translate(10.812 10.812)" clip-path="url(#clip-path)">
    <path id="パス_136" data-name="パス 136" d="M19.4,7,17,7a4.221,4.221,0,0,0-4.445,4.562v2.1H10.134a.378.378,0,0,0-.378.378V17.09a.378.378,0,0,0,.378.378h2.417v7.689a.378.378,0,0,0,.378.378h3.153a.378.378,0,0,0,.378-.378V17.468h2.826a.378.378,0,0,0,.378-.378V14.043a.378.378,0,0,0-.378-.378H16.46V11.882c0-.857.2-1.292,1.32-1.292H19.4a.378.378,0,0,0,.378-.378V7.382A.378.378,0,0,0,19.4,7Z" transform="translate(-5.499 -7)" fill="#fff"/>
  </g>
</svg>
