<svg xmlns="http://www.w3.org/2000/svg" width="21.637" height="19.851" viewBox="0 0 21.637 19.851">
  <g id="icon_home" transform="translate(0)">
    <path id="パス_56" data-name="パス 56" d="M12.355,18.141a1,1,0,0,1-1-1V11H8v6.141a1,1,0,0,1-2,0V10A1,1,0,0,1,7,9h5.355a1,1,0,0,1,1,1v7.141A1,1,0,0,1,12.355,18.141Z" transform="translate(1.141 1.711)" fill="#2b2b2b"/>
    <path id="パス_57" data-name="パス 57" d="M18.851,19.851H2.785a1,1,0,0,1-1-1V10.926H1a1,1,0,0,1-.673-1.74L10.146.26a1,1,0,0,1,1.345,0l9.818,8.926a1,1,0,0,1-.673,1.74h-.785v7.926A1,1,0,0,1,18.851,19.851Zm-15.066-2H17.851V9.926a1,1,0,0,1,.41-.808L10.818,2.351,3.375,9.118a1,1,0,0,1,.41.808Z" fill="#2b2b2b"/>
  </g>
</svg>
