<svg xmlns="http://www.w3.org/2000/svg" width="23.36" height="19.961" viewBox="0 0 23.36 19.961">
  <g id="グループ_113" data-name="グループ 113" transform="translate(-896.886 617)">
    <path id="パス_20" data-name="パス 20" d="M.873,0a11.377,11.377,0,0,1,8,3.432,12.51,12.51,0,0,1,3.361,8.192c0,.861-.108-.833,0,.621A9.347,9.347,0,0,1,11.4,16.37c-.9,1.417-1.817,2.862-3.7,3.275-1.774.39-4.79-.094-6.742-.094-3.02,0-6.578,1.074-9.158-.253a5.167,5.167,0,0,1-2.56-3.494,14.381,14.381,0,0,1-.162-5.386,17.677,17.677,0,0,1,.888-2.947A13.607,13.607,0,0,1-8.751,5.1,12.3,12.3,0,0,1-7.537,3.649,11.875,11.875,0,0,1,.873,0Z" transform="translate(908 -617)" fill="#628afa"/>
    <path id="パス_21" data-name="パス 21" d="M3.136.295A8.781,8.781,0,0,1,3.95,2.857L0,1.712,1.642.284S2.651-.362,3.136.295Z" transform="translate(916.212 -616.236) rotate(34)" fill="#628afa"/>
    <path id="パス_22" data-name="パス 22" d="M3.154.255a8.781,8.781,0,0,1,.814,2.562L0,2.306,1.707.419S2.67-.4,3.154.255Z" transform="matrix(0.629, -0.777, 0.777, 0.629, 897.484, -613.009)" fill="#628afa"/>
  </g>
</svg>
