<svg xmlns="http://www.w3.org/2000/svg" width="26.297" height="20.079" viewBox="0 0 26.297 20.079">
  <g id="b" transform="translate(0 0.001)">
    <g id="c" transform="translate(0 -0.001)">
      <g id="グループ_51" data-name="グループ 51">
        <path id="パス_52" data-name="パス 52" d="M709.979,46.8c-.017.063-.033.126-.051.188a1.5,1.5,0,0,1-.26.508,1.472,1.472,0,0,1-.457.392,1.685,1.685,0,0,1-.431.161,1.421,1.421,0,0,1-.494.022,1.274,1.274,0,0,1-.421-.119,1.844,1.844,0,0,1-.294-.17,1.484,1.484,0,0,1-.448-.533,1.711,1.711,0,0,1-.138-.4,1.5,1.5,0,0,1,.156-1.01,1.518,1.518,0,0,1,.522-.558,1.7,1.7,0,0,1,.376-.171,1.582,1.582,0,0,1,.628-.055,1.21,1.21,0,0,1,.3.072,1.532,1.532,0,0,1,.509.3,1.488,1.488,0,0,1,.376.51,1.274,1.274,0,0,1,.109.36.129.129,0,0,0,.016.035V46.8Z" transform="translate(-683.682 -43.557)" fill="#2b2b2b"/>
        <path id="パス_53" data-name="パス 53" d="M356.434,0a.436.436,0,0,0,.081.028,1.405,1.405,0,0,1,.545.207,1.492,1.492,0,0,1,.581.668,1.1,1.1,0,0,1,.111.412,2.367,2.367,0,0,1,.019.25,1.676,1.676,0,0,1-.08.438,1.507,1.507,0,0,1-.584.774,1.676,1.676,0,0,1-.345.179c-.055.022-.117.026-.174.045a1.678,1.678,0,0,1-.476.033.939.939,0,0,1-.253-.045,1.223,1.223,0,0,1-.3-.119,1.547,1.547,0,0,1-.578-.531,1.437,1.437,0,0,1-.178-.386,1.492,1.492,0,0,1-.052-.514c0-.026.006-.052.007-.079a1.232,1.232,0,0,1,.092-.394,1.5,1.5,0,0,1,.217-.383,1.4,1.4,0,0,1,.492-.407c.11-.054.227-.092.342-.135a.654.654,0,0,1,.07-.01c.035-.009.069-.021.1-.032h.363Z" transform="translate(-343.064 0.001)" fill="#2b2b2b"/>
        <path id="パス_54" data-name="パス 54" d="M59.731,144.047q-5.1,0-10.208,0a.618.618,0,0,1-.3-.066.576.576,0,0,1-.284-.345,1.028,1.028,0,0,1-.032-.271q-.017-.355-.037-.709c-.008-.152-.017-.3-.027-.457-.017-.249-.035-.5-.053-.747,0-.011,0-.021,0-.032-.014-.294-.026-.589-.041-.883-.013-.244-.032-.488-.047-.732q-.027-.437-.051-.875c-.016-.273-.03-.546-.046-.819-.008-.15-.018-.3-.026-.449-.012-.223-.014-.448-.04-.669-.02-.173-.018-.346-.029-.519-.011-.192-.022-.383-.032-.575s-.019-.362-.031-.543c-.015-.228-.034-.456-.051-.684,0-.005,0-.01,0-.016-.014-.286-.026-.573-.041-.859-.014-.255-.032-.509-.048-.764s-.033-.52-.047-.78c-.017-.3-.032-.6-.048-.9-.01-.176-.02-.352-.03-.528-.011-.2-.021-.4-.034-.6a2.588,2.588,0,0,1-.022-.266.582.582,0,0,1,.293-.5.64.64,0,0,1,.44-.06.522.522,0,0,1,.213.107l.825.56c.272.183.545.364.816.548.152.1.3.212.453.316.178.121.359.236.537.356s.358.246.538.369l.782.53.79.535q.329.222.659.442a2.107,2.107,0,0,0,.257.161.532.532,0,0,0,.363.032.683.683,0,0,0,.379-.28c.159-.2.322-.4.482-.6s.3-.382.454-.574c.1-.132.21-.265.315-.4.129-.16.259-.318.387-.478l.442-.55.607-.759.483-.6.5-.622c.028-.034.052-.072.08-.106a.543.543,0,0,1,.31-.19.517.517,0,0,1,.2-.018.629.629,0,0,1,.4.234c.227.287.458.57.687.855.207.259.412.52.62.779.15.188.3.373.455.56.112.139.221.281.333.421.15.186.3.369.451.555.115.143.227.29.343.433s.231.28.346.421.207.259.31.389.209.271.32.4a.58.58,0,0,0,.322.185.52.52,0,0,0,.264-.01.756.756,0,0,0,.207-.1c.192-.126.38-.259.57-.388s.375-.25.561-.378c.163-.111.323-.227.486-.338.132-.09.267-.177.4-.267.257-.175.513-.351.77-.525.171-.116.345-.229.517-.344s.333-.227.5-.34c.137-.093.274-.184.411-.277.112-.076.221-.155.333-.231s.232-.153.347-.231l.66-.451a.866.866,0,0,1,.244-.133.7.7,0,0,1,.188-.013.551.551,0,0,1,.514.343.469.469,0,0,1,.042.2c0,.118-.011.236-.018.354,0,.011,0,.021,0,.031-.014.281-.025.562-.041.843s-.034.541-.051.811c0,.045-.008.089-.01.134-.014.281-.027.563-.042.844-.012.226-.027.452-.04.677q-.015.256-.029.512c-.011.2-.012.406-.037.606-.022.176-.019.352-.029.527q-.016.287-.032.575c-.01.181-.019.362-.031.543-.015.228-.034.456-.051.684,0,.008,0,.016,0,.024-.014.289-.026.578-.041.867-.014.25-.032.5-.047.748-.016.265-.033.531-.048.8-.017.3-.032.594-.048.89-.009.173-.02.347-.029.52-.011.2-.012.4-.036.6-.022.178-.019.357-.03.535s-.021.373-.031.559-.02.373-.032.559c-.008.126-.014.252-.031.377a.562.562,0,0,1-.246.393.511.511,0,0,1-.288.1H59.731Z" transform="translate(-46.537 -123.969)" fill="#2b2b2b"/>
        <path id="パス_55" data-name="パス 55" d="M1.514,48.064A1.515,1.515,0,0,1,0,46.538a1.472,1.472,0,0,1,.459-1.079,1.485,1.485,0,0,1,1.065-.43,1.518,1.518,0,0,1-.01,3.036Z" transform="translate(0 -43.546)" fill="#2b2b2b"/>
      </g>
    </g>
  </g>
</svg>
