<svg id="icon_twitter" xmlns="http://www.w3.org/2000/svg" xmlns:xlink="http://www.w3.org/1999/xlink" width="40" height="40" viewBox="0 0 40 40">
  <defs>
    <clipPath id="clip-path">
      <rect id="長方形_210" data-name="長方形 210" width="18" height="18" transform="translate(0.34 0.34)" fill="#fff"/>
    </clipPath>
  </defs>
  <rect id="長方形_209" data-name="長方形 209" width="40" height="40" rx="20" fill="#1da1f2"/>
  <g id="グループ_336" data-name="グループ 336" transform="translate(10.66 10.66)" clip-path="url(#clip-path)">
    <path id="パス_129" data-name="パス 129" d="M25.275,9.883a7.811,7.811,0,0,1-2.159.592A3.726,3.726,0,0,0,24.764,8.4a7.489,7.489,0,0,1-2.376.907,3.746,3.746,0,0,0-6.481,2.562,3.856,3.856,0,0,0,.087.854A10.6,10.6,0,0,1,8.272,8.808a3.748,3.748,0,0,0,1.151,5.007,3.7,3.7,0,0,1-1.693-.461V13.4a3.764,3.764,0,0,0,3,3.681,3.736,3.736,0,0,1-.982.123,3.313,3.313,0,0,1-.709-.064,3.782,3.782,0,0,0,3.5,2.61,7.528,7.528,0,0,1-4.645,1.6,7.031,7.031,0,0,1-.9-.051,10.664,10.664,0,0,0,16.411-8.98c0-.166-.006-.325-.014-.484A7.475,7.475,0,0,0,25.275,9.883Z" transform="translate(-7 -6.412)" fill="#fff"/>
  </g>
</svg>
