<svg xmlns="http://www.w3.org/2000/svg" width="100" height="95.623" viewBox="0 0 100 95.623">
  <g id="グループ_444" data-name="グループ 444" transform="translate(-1200 695)">
    <path id="多角形_1" data-name="多角形 1" d="M14.5,1.52a1.986,1.986,0,0,0-1.646.864L2.166,17.864A2,2,0,0,0,3.811,21H25.189a2,2,0,0,0,1.646-3.136L16.146,2.384A1.986,1.986,0,0,0,14.5,1.52m0-6a8,8,0,0,1,6.583,3.454l10.689,15.48A8,8,0,0,1,25.189,27H3.811A8,8,0,0,1-2.772,14.454L7.917-1.026A8,8,0,0,1,14.5-4.48Z" transform="matrix(-0.999, -0.035, 0.035, -0.999, 1255.625, -604)" fill="#fff"/>
    <rect id="長方形_3" data-name="長方形 3" width="100" height="80" rx="16" transform="translate(1200 -695)" fill="#fbe238"/>
    <path id="長方形_3_-_アウトライン" data-name="長方形 3 - アウトライン" d="M16,6A10.011,10.011,0,0,0,6,16V64A10.011,10.011,0,0,0,16,74H84A10.011,10.011,0,0,0,94,64V16A10.011,10.011,0,0,0,84,6H16m0-6H84a16,16,0,0,1,16,16V64A16,16,0,0,1,84,80H16A16,16,0,0,1,0,64V16A16,16,0,0,1,16,0Z" transform="translate(1200 -695)" fill="#fff"/>
    <path id="多角形_2" data-name="多角形 2" d="M12.854,2.384a2,2,0,0,1,3.292,0l10.689,15.48A2,2,0,0,1,25.189,21H3.811a2,2,0,0,1-1.646-3.136Z" transform="matrix(-0.999, -0.035, 0.035, -0.999, 1255.625, -604)" fill="#fbe238"/>
    <g id="グループ_372" data-name="グループ 372" transform="translate(68 -719)">
      <path id="線_1" data-name="線 1" d="M50,2H0A2,2,0,0,1-2,0,2,2,0,0,1,0-2H50a2,2,0,0,1,2,2A2,2,0,0,1,50,2Z" transform="translate(1157 60.5)" fill="#2b2b2b"/>
      <path id="線_2" data-name="線 2" d="M41,2H0A2,2,0,0,1-2,0,2,2,0,0,1,0-2H41a2,2,0,0,1,2,2A2,2,0,0,1,41,2Z" transform="translate(1157 73)" fill="#2b2b2b"/>
      <path id="線_3" data-name="線 3" d="M31.5,2H0A2,2,0,0,1-2,0,2,2,0,0,1,0-2H31.5a2,2,0,0,1,2,2A2,2,0,0,1,31.5,2Z" transform="translate(1157 86.5)" fill="#2b2b2b"/>
      <path id="パス_163" data-name="パス 163" d="M-13.272-7.152H-13.3l-2.048,4.48h-2.464l-2.048-4.48H-19.9V0h-2.576V-11.68h2.784L-16.6-4.8h.032l3.088-6.88h2.848V0h-2.64ZM-5.48-9.488V-7.1h4.432V-5.04H-5.48v2.848H-.728V0H-8.2V-11.68H-.728v2.192ZM1.544,0V-11.68H4.2L8.344-4.512h.032V-11.68h2.656V0H8.376L4.232-7.168H4.2V0ZM16.056-11.68v7.088q0,2.56,1.952,2.56,1.936,0,1.936-2.56V-11.68h2.688v6.912a5.113,5.113,0,0,1-1.2,3.68A4.572,4.572,0,0,1,17.976.16a4.6,4.6,0,0,1-3.464-1.248A5.091,5.091,0,0,1,13.3-4.768V-11.68Z" transform="translate(1182 51.5)" fill="#2b2b2b"/>
    </g>
  </g>
</svg>
